<?xml version="1.0" standalone="no"?>
<!DOCTYPE svg PUBLIC "-//W3C//DTD SVG 20010904//EN"
 "http://www.w3.org/TR/2001/REC-SVG-20010904/DTD/svg10.dtd">
<svg version="1.0" xmlns="http://www.w3.org/2000/svg"
 width="800.000000pt" height="800.000000pt" viewBox="0 0 800.000000 800.000000"
 preserveAspectRatio="xMidYMid meet">
<metadata>
Created by potrace 1.14, written by Peter Selinger 2001-2017
</metadata>
<g transform="translate(0.000000,800.000000) scale(0.100000,-0.100000)"
fill="#000000" stroke="none">
<path d="M2350 4910 l0 -340 40 0 40 0 0 148 c0 169 9 211 51 246 24 21 41 26
84 26 47 0 56 -3 79 -31 26 -30 26 -32 26 -210 l0 -179 41 0 41 0 -4 193 c-4
222 -10 245 -81 278 -75 33 -156 23 -209 -29 l-28 -26 0 132 0 132 -40 0 -40
0 0 -340z"/>
<path d="M4838 5225 c-16 -35 3 -75 35 -75 30 0 47 18 47 50 0 52 -61 71 -82
25z"/>
<path d="M1958 5206 c-90 -24 -164 -106 -188 -208 -20 -83 -8 -226 24 -292 52
-106 148 -154 281 -142 108 9 115 13 115 53 0 35 -1 35 -32 29 -120 -26 -184
-16 -243 36 -49 42 -70 106 -70 208 0 73 4 93 28 143 49 100 137 136 250 103
30 -9 57 -16 60 -16 2 0 10 14 17 31 16 37 9 43 -63 59 -62 13 -120 12 -179
-4z"/>
<path d="M3646 5153 c-26 -106 -21 -99 -86 -112 -49 -10 -60 -16 -60 -32 0
-17 7 -19 60 -19 l60 0 0 -161 c0 -130 3 -168 17 -196 21 -45 79 -73 148 -72
77 1 100 11 103 42 l3 27 -75 0 c-115 0 -116 1 -116 200 l0 160 95 0 95 0 0
30 0 30 -95 0 -95 0 0 65 c0 62 -1 65 -24 65 -18 0 -26 -7 -30 -27z"/>
<path d="M4226 5153 c-26 -106 -21 -99 -86 -112 -49 -10 -60 -16 -60 -32 0
-17 7 -19 60 -19 l60 0 0 -161 c0 -130 3 -168 17 -196 21 -45 79 -73 148 -72
77 1 100 11 103 42 l3 27 -75 0 c-115 0 -116 1 -116 200 l0 160 95 0 95 0 0
30 0 30 -95 0 -95 0 0 65 c0 62 -1 65 -24 65 -18 0 -26 -7 -30 -27z"/>
<path d="M3029 5046 c-73 -21 -83 -33 -56 -69 11 -15 16 -15 52 -2 22 8 66 14
98 15 74 0 107 -27 107 -90 l0 -40 -42 0 c-67 0 -157 -18 -197 -38 -65 -33
-89 -117 -54 -189 37 -79 172 -96 260 -34 l44 31 6 -30 c5 -25 10 -30 35 -30
l29 0 -3 199 c-3 184 -5 202 -24 228 -11 15 -34 34 -49 42 -40 19 -151 23
-206 7z m201 -286 c0 -89 -72 -150 -160 -136 -83 13 -94 116 -17 158 18 9 95
21 165 24 8 0 12 -15 12 -46z"/>
<path d="M5325 5035 c-14 -13 -25 -29 -25 -35 0 -6 -4 -8 -10 -5 -5 3 -10 17
-10 31 0 20 -5 24 -30 24 l-30 0 0 -240 0 -240 34 0 34 0 4 183 c3 207 12 237
68 237 51 0 59 -38 60 -267 l0 -153 33 0 32 0 1 168 c0 92 4 180 7 194 10 37
34 58 66 58 45 0 51 -29 51 -235 l0 -185 35 0 35 0 0 186 c0 114 -5 202 -12
226 -27 92 -125 104 -178 24 -17 -27 -18 -27 -25 -7 -9 30 -53 61 -87 61 -17
0 -39 -10 -53 -25z"/>
<path d="M5960 5047 c-145 -46 -190 -304 -73 -420 39 -40 106 -67 164 -67 54
0 137 19 153 35 19 20 9 68 -13 59 -35 -14 -88 -24 -136 -24 -82 0 -136 44
-150 122 l-7 38 168 2 169 3 3 42 c11 156 -125 259 -278 210z m161 -86 c16
-16 29 -38 29 -49 0 -11 3 -27 6 -36 5 -14 -10 -16 -126 -16 -127 0 -131 1
-126 20 3 11 8 29 12 40 3 10 19 31 35 45 25 20 41 25 86 25 47 0 59 -4 84
-29z"/>
<path d="M4720 5026 c0 -26 21 -36 83 -36 l37 0 0 -180 0 -180 -52 0 c-77 0
-98 -8 -98 -36 l0 -24 190 0 190 0 0 24 c0 28 -21 36 -97 36 l-53 0 0 210 0
210 -100 0 c-99 0 -100 0 -100 -24z"/>
<path d="M3475 4125 c-14 -13 -25 -36 -25 -50 0 -14 11 -37 25 -50 13 -14 36
-25 50 -25 14 0 37 11 50 25 14 13 25 36 25 50 0 14 -11 37 -25 50 -13 14 -36
25 -50 25 -14 0 -37 -11 -50 -25z"/>
<path d="M3725 4125 c-14 -13 -25 -36 -25 -50 0 -14 11 -37 25 -50 13 -14 36
-25 50 -25 14 0 37 11 50 25 14 13 25 36 25 50 0 14 -11 37 -25 50 -13 14 -36
25 -50 25 -14 0 -37 -11 -50 -25z"/>
<path d="M3975 4125 c-14 -13 -25 -36 -25 -50 0 -14 11 -37 25 -50 13 -14 36
-25 50 -25 14 0 37 11 50 25 14 13 25 36 25 50 0 14 -11 37 -25 50 -13 14 -36
25 -50 25 -14 0 -37 -11 -50 -25z"/>
<path d="M4225 4125 c-14 -13 -25 -36 -25 -50 0 -14 11 -37 25 -50 13 -14 36
-25 50 -25 14 0 37 11 50 25 14 13 25 36 25 50 0 14 -11 37 -25 50 -13 14 -36
25 -50 25 -14 0 -37 -11 -50 -25z"/>
<path d="M4475 4125 c-14 -13 -25 -36 -25 -50 0 -14 11 -37 25 -50 13 -14 36
-25 50 -25 14 0 37 11 50 25 14 13 25 36 25 50 0 14 -11 37 -25 50 -13 14 -36
25 -50 25 -14 0 -37 -11 -50 -25z"/>
<path d="M3526 3574 c-25 -26 -26 -30 -26 -155 0 -122 1 -129 20 -129 19 0 20
7 20 115 0 171 -47 155 460 155 407 0 421 -1 440 -20 19 -19 20 -33 20 -205 0
-178 1 -185 20 -185 19 0 20 7 20 199 l0 198 -26 27 -27 26 -447 0 -447 0 -27
-26z"/>
<path d="M3601 3496 c-8 -9 -11 -47 -9 -107 3 -89 4 -94 26 -97 21 -3 22 -1
22 82 l0 86 360 0 360 0 0 -155 0 -155 25 0 25 0 0 168 c0 117 -4 172 -12 180
-19 19 -781 17 -797 -2z"/>
<path d="M3417 3252 c-15 -16 -17 -54 -17 -323 0 -224 3 -308 12 -317 17 -17
509 -17 526 0 9 9 12 94 12 319 0 266 -2 310 -16 323 -13 14 -51 16 -258 16
-223 0 -244 -2 -259 -18z m491 -319 l-3 -288 -227 -3 -228 -2 0 290 0 290 230
0 230 0 -2 -287z"/>
<path d="M3475 3177 c-3 -7 -4 -111 -3 -232 l3 -220 200 0 200 0 0 230 0 230
-198 3 c-154 2 -199 0 -202 -11z m355 -222 l0 -195 -155 0 -155 0 0 195 0 195
155 0 155 0 0 -195z"/>
<path d="M3655 2690 c-4 -7 -3 -16 3 -22 14 -14 45 -2 40 15 -6 16 -34 21 -43
7z"/>
<path d="M4252 3108 c-17 -17 -17 -479 0 -496 17 -17 319 -17 336 0 17 17 17
479 0 496 -8 8 -60 12 -168 12 -108 0 -160 -4 -168 -12z m298 -248 l0 -220
-130 0 -130 0 0 220 0 220 130 0 130 0 0 -220z"/>
<path d="M4315 3037 c-3 -7 -4 -80 -3 -162 l3 -150 105 0 105 0 0 160 0 160
-103 3 c-78 2 -104 0 -107 -11z m165 -152 l0 -125 -60 0 -60 0 0 125 0 125 60
0 60 0 0 -125z"/>
<path d="M4400 2680 c0 -13 7 -20 20 -20 13 0 20 7 20 20 0 13 -7 20 -20 20
-13 0 -20 -7 -20 -20z"/>
<path d="M3980 2910 c0 -19 7 -20 115 -20 108 0 115 1 115 20 0 19 -7 20 -115
20 -108 0 -115 -1 -115 -20z"/>
<path d="M4100 2800 l0 -60 55 0 c52 0 55 1 55 25 0 22 -4 25 -35 25 -19 0
-35 5 -35 10 0 6 16 10 35 10 31 0 35 3 35 25 0 24 -3 25 -55 25 l-55 0 0 -60z"/>
<path d="M3980 2690 c0 -19 7 -20 115 -20 108 0 115 1 115 20 0 19 -7 20 -115
20 -108 0 -115 -1 -115 -20z"/>
</g>
</svg>
