<?xml version="1.0" standalone="no"?>
<!DOCTYPE svg PUBLIC "-//W3C//DTD SVG 1.1//EN" "http://www.w3.org/Graphics/SVG/1.1/DTD/svg11.dtd" >
<svg xmlns="http://www.w3.org/2000/svg" xmlns:xlink="http://www.w3.org/1999/xlink" version="1.1">
<metadata>
Created by FontForge 20190801 at Sun Feb 21 10:41:29 2021
 By root
\(c\) Oleh Lishchuk, 2021
</metadata>
<defs>
<font id="Steclo-ExtraLight" horiz-adv-x="385" >
  <font-face 
    font-family="Steclo"
    font-weight="300"
    font-stretch="normal"
    units-per-em="1000"
    panose-1="0 0 0 0 0 0 0 0 0 0"
    ascent="850"
    descent="-150"
    x-height="500"
    cap-height="700"
    bbox="-128 -235 783 919"
    underline-thickness="50"
    underline-position="-125"
    stemh="32"
    stemv="34"
    unicode-range="U+000D-FB02"
  />
<missing-glyph horiz-adv-x="455" 
d="M54 -150v950h347v-950h-347zM86 -118h283v886z" />
    <glyph glyph-name="fi" unicode="fi" horiz-adv-x="365" 
d="M169 750h38v-32h-38c-50 0 -83 -35 -83 -88v-130h121v-32h-121v-468h-34v630c0 72 47 120 117 120zM251 621c0 18 14 32 32 32c17 0 32 -14 32 -32s-15 -32 -32 -32c-18 0 -32 14 -32 32zM266 0v500h34v-500h-34z" />
    <glyph glyph-name="fl" unicode="fl" 
d="M169 750h38v-32h-38c-50 0 -83 -35 -83 -88v-130h121v-32h-121v-468h-34v630c0 72 47 120 117 120zM286 0v750h34v-750h-34z" />
    <glyph glyph-name="afii10104_afii10104" unicode="&#x457;&#x457;" horiz-adv-x="330" 
d="M3 601c0 15 12 28 28 28s28 -13 28 -28c0 -16 -12 -29 -28 -29s-28 13 -28 29zM138 601c0 15 12 28 28 28s28 -13 28 -28c0 -16 -12 -29 -28 -29s-28 13 -28 29zM271 601c0 15 12 28 29 28c16 0 28 -13 28 -28c0 -16 -12 -29 -28 -29c-17 0 -29 13 -29 29zM66 0v500h34
v-500h-34zM231 0v500h34v-500h-34z" />
    <glyph glyph-name=".notdef" horiz-adv-x="455" 
d="M54 -150v950h347v-950h-347zM86 -118h283v886z" />
    <glyph glyph-name="uni0000" horiz-adv-x="0" 
 />
    <glyph glyph-name="uni0000" horiz-adv-x="0" 
 />
    <glyph glyph-name="uni000D" unicode="&#xd;" horiz-adv-x="250" 
 />
    <glyph glyph-name="space" unicode=" " horiz-adv-x="198" 
 />
    <glyph glyph-name="acute" unicode="&#xb4;" horiz-adv-x="149" 
d="M56 721h-26l55 125h35z" />
    <glyph glyph-name="caron" unicode="&#x2c7;" horiz-adv-x="220" 
d="M96 716l-66 127h25l55 -97l55 97h25l-66 -127h-28z" />
    <glyph glyph-name="cedilla" unicode="&#xb8;" horiz-adv-x="140" 
d="M30 -191l47 143h33l-55 -143h-25z" />
    <glyph glyph-name="circumflex" unicode="&#x2c6;" horiz-adv-x="220" 
d="M55 716h-25l66 127h28l66 -127h-25l-55 97z" />
    <glyph glyph-name="uni0326" unicode="&#x326;" horiz-adv-x="137" 
d="M30 -190l47 143l30 -10l-55 -140z" />
    <glyph glyph-name="dieresis" unicode="&#xa8;" horiz-adv-x="225" 
d="M30 764c0 16 12 29 29 29c15 0 28 -13 28 -29s-13 -28 -28 -28c-17 0 -29 12 -29 28zM140 764c0 16 12 29 28 29s28 -13 28 -29s-12 -28 -28 -28s-28 12 -28 28z" />
    <glyph glyph-name="dotaccent" unicode="&#x2d9;" horiz-adv-x="129" 
d="M31 765c0 18 15 34 34 34c18 0 34 -16 34 -34c0 -19 -16 -34 -34 -34c-19 0 -34 15 -34 34z" />
    <glyph glyph-name="hungarumlaut" unicode="&#x2dd;" horiz-adv-x="234" 
d="M54 721h-24l54 125h33zM140 721h-24l54 125h33z" />
    <glyph glyph-name="grave" unicode="`" horiz-adv-x="149" 
d="M65 846l55 -125h-26l-64 125h35z" />
    <glyph glyph-name="macron" unicode="&#xaf;" horiz-adv-x="222" 
d="M33 745v29h155v-29h-155z" />
    <glyph glyph-name="ogonek" unicode="&#x2db;" horiz-adv-x="166" 
d="M80 0h28s-51 -54 -51 -91c0 -20 16 -32 39 -32c13 0 28 4 40 10v-27c-13 -7 -30 -11 -46 -11c-36 0 -60 22 -60 55c0 50 50 96 50 96z" />
    <glyph glyph-name="ring" unicode="&#x2da;" horiz-adv-x="183" 
d="M30 773c0 35 26 61 61 61s62 -26 62 -61c0 -36 -27 -62 -62 -62s-61 26 -61 62zM56 773c0 -21 14 -36 35 -36c22 0 36 15 36 36s-14 36 -36 36c-21 0 -35 -15 -35 -36z" />
    <glyph glyph-name="tilde" unicode="&#x2dc;" horiz-adv-x="235" 
d="M30 729c0 40 20 65 50 65c36 0 47 -40 71 -40c16 0 26 15 26 37h28c0 -39 -20 -65 -51 -65c-35 0 -47 40 -72 40c-15 0 -24 -15 -24 -37h-28z" />
    <glyph glyph-name="breve" unicode="&#x2d8;" horiz-adv-x="210" 
d="M30 801h28c0 -35 19 -58 47 -58c29 0 47 23 47 58h29c0 -51 -31 -85 -76 -85s-75 34 -75 85z" />
    <glyph glyph-name="A" unicode="A" horiz-adv-x="364" 
d="M195 700l143 -700h-35l-36 182h-170l-35 -182h-35l142 700h26zM104 213h156l-78 398z" />
    <glyph glyph-name="Aacute" unicode="&#xc1;" horiz-adv-x="364" 
d="M188 748h-26l55 125h35zM195 700l143 -700h-35l-36 182h-170l-35 -182h-35l142 700h26zM104 213h156l-78 398z" />
    <glyph glyph-name="Abreve" unicode="&#x102;" horiz-adv-x="364" 
d="M107 829h28c0 -35 19 -58 47 -58c29 0 47 23 47 58h29c0 -51 -31 -85 -76 -85s-75 34 -75 85zM195 700l143 -700h-35l-36 182h-170l-35 -182h-35l142 700h26zM104 213h156l-78 398z" />
    <glyph glyph-name="Acircumflex" unicode="&#xc2;" horiz-adv-x="364" 
d="M127 743h-25l66 127h28l66 -127h-25l-55 97zM195 700l143 -700h-35l-36 182h-170l-35 -182h-35l142 700h26zM104 213h156l-78 398z" />
    <glyph glyph-name="Agrave" unicode="&#xc0;" horiz-adv-x="364" 
d="M150 873l55 -125h-26l-64 125h35zM195 700l143 -700h-35l-36 182h-170l-35 -182h-35l142 700h26zM104 213h156l-78 398z" />
    <glyph glyph-name="Adieresis" unicode="&#xc4;" horiz-adv-x="364" 
d="M99 791c0 16 12 29 29 29c15 0 28 -13 28 -29s-13 -28 -28 -28c-17 0 -29 12 -29 28zM209 791c0 16 12 29 28 29s28 -13 28 -29s-12 -28 -28 -28s-28 12 -28 28zM195 700l143 -700h-35l-36 182h-170l-35 -182h-35l142 700h26zM104 213h156l-78 398z" />
    <glyph glyph-name="Amacron" unicode="&#x100;" horiz-adv-x="364" 
d="M105 772v29h155v-29h-155zM195 700l143 -700h-35l-36 182h-170l-35 -182h-35l142 700h26zM104 213h156l-78 398z" />
    <glyph glyph-name="Aogonek" unicode="&#x104;" horiz-adv-x="364" 
d="M195 700l143 -700h-4s-52 -54 -52 -91c0 -20 16 -32 39 -32c13 0 28 4 39 10v-27c-12 -7 -29 -11 -45 -11c-36 0 -60 22 -60 55c0 50 50 96 50 96h-2l-36 182h-170l-35 -182h-35l142 700h26zM104 213h156l-78 398z" />
    <glyph glyph-name="Aring" unicode="&#xc5;" horiz-adv-x="364" 
d="M121 801c0 35 26 61 61 61s62 -26 62 -61c0 -36 -27 -62 -62 -62s-61 26 -61 62zM147 801c0 -21 14 -36 35 -36c22 0 36 15 36 36s-14 36 -36 36c-21 0 -35 -15 -35 -36zM195 700l143 -700h-35l-36 182h-170l-35 -182h-35l142 700h26zM104 213h156l-78 398z" />
    <glyph glyph-name="Aringacute" unicode="&#x1fa;" horiz-adv-x="364" 
d="M121 752c0 35 26 61 62 61c5 0 11 -1 16 -2l47 108h33l-60 -117c15 -11 25 -29 25 -50c0 -31 -20 -54 -47 -60l141 -692h-35l-36 182h-170l-35 -182h-35l140 692c-27 6 -46 30 -46 60zM147 752c0 -21 14 -36 36 -36c21 0 35 15 35 36s-14 36 -35 36
c-22 0 -36 -15 -36 -36zM104 213h156l-78 398z" />
    <glyph glyph-name="Atilde" unicode="&#xc3;" horiz-adv-x="364" 
d="M91 757c0 40 20 65 50 65c36 0 47 -40 71 -40c16 0 26 15 26 37h28c0 -39 -20 -65 -51 -65c-35 0 -47 40 -72 40c-15 0 -24 -15 -24 -37h-28zM195 700l143 -700h-35l-36 182h-170l-35 -182h-35l142 700h26zM104 213h156l-78 398z" />
    <glyph glyph-name="AE" unicode="&#xc6;" horiz-adv-x="498" 
d="M270 0v182h-148l-60 -182h-35l232 700h200v-32h-156v-302h137v-32h-137v-302h156v-32h-189zM132 213h138v419z" />
    <glyph glyph-name="AEacute" unicode="&#x1fc;" horiz-adv-x="498" 
d="M288 748h-26l55 125h35zM270 0v182h-148l-60 -182h-35l232 700h200v-32h-156v-302h137v-32h-137v-302h156v-32h-189zM132 213h138v419z" />
    <glyph glyph-name="B" unicode="B" horiz-adv-x="356" 
d="M71 0v700h98c76 0 126 -48 126 -120v-111c0 -49 -24 -87 -63 -106c50 -16 81 -58 81 -114v-129c0 -72 -51 -120 -126 -120h-116zM105 375h64c55 0 92 35 92 88v117c0 53 -37 88 -92 88h-64v-293zM105 32h82c55 0 92 35 92 88v135c0 53 -37 88 -92 88h-82v-311z" />
    <glyph glyph-name="C" unicode="C" horiz-adv-x="333" 
d="M262 499v86c0 53 -34 88 -86 88s-86 -35 -86 -88v-450c0 -65 37 -108 96 -108c29 0 62 10 104 33v-34c-40 -21 -74 -31 -106 -31c-80 0 -127 56 -127 140v450c0 72 47 120 119 120s119 -48 119 -120v-86h-33z" />
    <glyph glyph-name="Cacute" unicode="&#x106;" horiz-adv-x="333" 
d="M181 748h-26l55 125h35zM262 499v86c0 53 -34 88 -86 88s-86 -35 -86 -88v-450c0 -65 37 -108 96 -108c29 0 62 10 104 33v-34c-40 -21 -74 -31 -106 -31c-80 0 -127 56 -127 140v450c0 72 47 120 119 120s119 -48 119 -120v-86h-33z" />
    <glyph glyph-name="Ccaron" unicode="&#x10c;" horiz-adv-x="333" 
d="M162 743l-66 127h25l55 -97l55 97h25l-66 -127h-28zM262 499v86c0 53 -34 88 -86 88s-86 -35 -86 -88v-450c0 -65 37 -108 96 -108c29 0 62 10 104 33v-34c-40 -21 -74 -31 -106 -31c-80 0 -127 56 -127 140v450c0 72 47 120 119 120s119 -48 119 -120v-86h-33z" />
    <glyph glyph-name="Ccedilla" unicode="&#xc7;" horiz-adv-x="333" 
d="M262 499v86c0 53 -34 88 -86 88s-86 -35 -86 -88v-450c0 -65 37 -108 96 -108c29 0 62 10 104 33v-34c-40 -21 -74 -31 -106 -31c-80 0 -127 56 -127 140v450c0 72 47 120 119 120s119 -48 119 -120v-86h-33zM118 -191l47 143h33l-55 -143h-25z" />
    <glyph glyph-name="Ccircumflex" unicode="&#x108;" horiz-adv-x="333" 
d="M121 743h-25l66 127h28l66 -127h-25l-55 97zM262 499v86c0 53 -34 88 -86 88s-86 -35 -86 -88v-450c0 -65 37 -108 96 -108c29 0 62 10 104 33v-34c-40 -21 -74 -31 -106 -31c-80 0 -127 56 -127 140v450c0 72 47 120 119 120s119 -48 119 -120v-86h-33z" />
    <glyph glyph-name="Cdotaccent" unicode="&#x10a;" horiz-adv-x="333" 
d="M143 792c0 18 15 34 34 34c18 0 34 -16 34 -34c0 -19 -16 -34 -34 -34c-19 0 -34 15 -34 34zM262 499v86c0 53 -34 88 -86 88s-86 -35 -86 -88v-450c0 -65 37 -108 96 -108c29 0 62 10 104 33v-34c-40 -21 -74 -31 -106 -31c-80 0 -127 56 -127 140v450
c0 72 47 120 119 120s119 -48 119 -120v-86h-33z" />
    <glyph glyph-name="D" unicode="D" 
d="M71 700h131c75 0 126 -48 126 -120v-460c0 -72 -51 -120 -126 -120h-131v700zM105 668v-636h97c55 0 92 35 92 88v460c0 53 -37 88 -92 88h-97z" />
    <glyph glyph-name="Dcaron" unicode="&#x10e;" 
d="M164 743l-66 127h25l55 -97l55 97h25l-66 -127h-28zM71 700h131c75 0 126 -48 126 -120v-460c0 -72 -51 -120 -126 -120h-131v700zM105 668v-636h97c55 0 92 35 92 88v460c0 53 -37 88 -92 88h-97z" />
    <glyph glyph-name="Dcroat" unicode="&#x110;" 
d="M71 700h131c75 0 126 -48 126 -120v-460c0 -72 -51 -120 -126 -120h-131v334h-57v32h57v334zM105 668v-302h104v-32h-104v-302h97c55 0 92 35 92 88v460c0 53 -37 88 -92 88h-97z" />
    <glyph glyph-name="Eth" unicode="&#xd0;" 
d="M71 700h131c75 0 126 -48 126 -120v-460c0 -72 -51 -120 -126 -120h-131v334h-57v32h57v334zM105 668v-302h104v-32h-104v-302h97c55 0 92 35 92 88v460c0 53 -37 88 -92 88h-97z" />
    <glyph glyph-name="Thorn" unicode="&#xde;" horiz-adv-x="364" 
d="M105 700v-152h92c75 0 126 -49 126 -121v-154c0 -72 -51 -120 -126 -120h-92v-153h-34v700h34zM104 186h93c55 0 92 35 92 87v154c0 53 -37 88 -92 88h-92z" />
    <glyph glyph-name="E" unicode="E" horiz-adv-x="318" 
d="M71 0v700h209v-32h-175v-302h156v-32h-156v-302h175v-32h-209z" />
    <glyph glyph-name="Eacute" unicode="&#xc9;" horiz-adv-x="318" 
d="M180 748h-26l55 125h35zM71 0v700h209v-32h-175v-302h156v-32h-156v-302h175v-32h-209z" />
    <glyph glyph-name="Ebreve" unicode="&#x114;" horiz-adv-x="318" 
d="M100 829h28c0 -35 19 -58 47 -58c29 0 47 23 47 58h29c0 -51 -31 -85 -76 -85s-75 34 -75 85zM71 0v700h209v-32h-175v-302h156v-32h-156v-302h175v-32h-209z" />
    <glyph glyph-name="Ecaron" unicode="&#x11a;" horiz-adv-x="318" 
d="M161 743l-66 127h25l55 -97l55 97h25l-66 -127h-28zM71 0v700h209v-32h-175v-302h156v-32h-156v-302h175v-32h-209z" />
    <glyph glyph-name="Ecircumflex" unicode="&#xca;" horiz-adv-x="318" 
d="M120 743h-25l66 127h28l66 -127h-25l-55 97zM71 0v700h209v-32h-175v-302h156v-32h-156v-302h175v-32h-209z" />
    <glyph glyph-name="Edieresis" unicode="&#xcb;" horiz-adv-x="318" 
d="M92 791c0 16 12 29 29 29c15 0 28 -13 28 -29s-13 -28 -28 -28c-17 0 -29 12 -29 28zM202 791c0 16 12 29 28 29s28 -13 28 -29s-12 -28 -28 -28s-28 12 -28 28zM71 0v700h209v-32h-175v-302h156v-32h-156v-302h175v-32h-209z" />
    <glyph glyph-name="Edotaccent" unicode="&#x116;" horiz-adv-x="318" 
d="M142 792c0 18 15 34 34 34c18 0 34 -16 34 -34c0 -19 -16 -34 -34 -34c-19 0 -34 15 -34 34zM71 0v700h209v-32h-175v-302h156v-32h-156v-302h175v-32h-209z" />
    <glyph glyph-name="Egrave" unicode="&#xc8;" horiz-adv-x="318" 
d="M142 873l55 -125h-26l-64 125h35zM71 0v700h209v-32h-175v-302h156v-32h-156v-302h175v-32h-209z" />
    <glyph glyph-name="Emacron" unicode="&#x112;" horiz-adv-x="318" 
d="M98 772v29h155v-29h-155zM71 0v700h209v-32h-175v-302h156v-32h-156v-302h175v-32h-209z" />
    <glyph glyph-name="Eogonek" unicode="&#x118;" horiz-adv-x="318" 
d="M71 0v700h209v-32h-175v-302h156v-32h-156v-302h175v-32h-27c-10 -12 -47 -55 -47 -87c0 -20 16 -32 39 -32c12 0 28 4 39 10v-27c-12 -6 -30 -11 -46 -11c-36 0 -60 22 -60 55c0 43 36 82 47 92h-154z" />
    <glyph glyph-name="F" unicode="F" horiz-adv-x="313" 
d="M71 0v700h209v-32h-175v-302h156v-32h-156v-334h-34z" />
    <glyph glyph-name="G" unicode="G" horiz-adv-x="352" 
d="M267 499v86c0 53 -35 88 -88 88c-54 0 -89 -35 -89 -88v-450c0 -65 38 -108 99 -108c24 0 50 6 79 20v273h-73v32h105v-326c-40 -21 -76 -31 -109 -31c-85 0 -134 56 -134 140v450c0 72 48 120 122 120c73 0 121 -48 121 -120v-86h-33z" />
    <glyph glyph-name="Gbreve" unicode="&#x11e;" horiz-adv-x="352" 
d="M103 829h28c0 -35 19 -58 47 -58c29 0 47 23 47 58h29c0 -51 -31 -85 -76 -85s-75 34 -75 85zM267 499v86c0 53 -35 88 -88 88c-54 0 -89 -35 -89 -88v-450c0 -65 38 -108 99 -108c24 0 50 6 79 20v273h-73v32h105v-326c-40 -21 -76 -31 -109 -31c-85 0 -134 56 -134 140
v450c0 72 48 120 122 120c73 0 121 -48 121 -120v-86h-33z" />
    <glyph glyph-name="Gcircumflex" unicode="&#x11c;" horiz-adv-x="352" 
d="M123 743h-25l66 127h28l66 -127h-25l-55 97zM267 499v86c0 53 -35 88 -88 88c-54 0 -89 -35 -89 -88v-450c0 -65 38 -108 99 -108c24 0 50 6 79 20v273h-73v32h105v-326c-40 -21 -76 -31 -109 -31c-85 0 -134 56 -134 140v450c0 72 48 120 122 120c73 0 121 -48 121 -120
v-86h-33z" />
    <glyph glyph-name="uni0122" unicode="&#x122;" horiz-adv-x="352" 
d="M267 499v86c0 53 -35 88 -88 88c-54 0 -89 -35 -89 -88v-450c0 -65 38 -108 99 -108c24 0 50 6 79 20v273h-73v32h105v-326c-40 -21 -76 -31 -109 -31c-85 0 -134 56 -134 140v450c0 72 48 120 122 120c73 0 121 -48 121 -120v-86h-33zM120 -190l47 143l30 -10l-55 -140z
" />
    <glyph glyph-name="Gdotaccent" unicode="&#x120;" horiz-adv-x="352" 
d="M145 792c0 18 15 34 34 34c18 0 34 -16 34 -34c0 -19 -16 -34 -34 -34c-19 0 -34 15 -34 34zM267 499v86c0 53 -35 88 -88 88c-54 0 -89 -35 -89 -88v-450c0 -65 38 -108 99 -108c24 0 50 6 79 20v273h-73v32h105v-326c-40 -21 -76 -31 -109 -31c-85 0 -134 56 -134 140
v450c0 72 48 120 122 120c73 0 121 -48 121 -120v-86h-33z" />
    <glyph glyph-name="H" unicode="H" horiz-adv-x="393" 
d="M71 0v700h34v-334h184v334h34v-700h-34v334h-184v-334h-34z" />
    <glyph glyph-name="Hbar" unicode="&#x126;" horiz-adv-x="393" 
d="M71 0v567h-57v28h57v105h34v-105h184v105h34v-105h56v-28h-56v-567h-34v334h-184v-334h-34zM105 366h184v201h-184v-201z" />
    <glyph glyph-name="Hcircumflex" unicode="&#x124;" horiz-adv-x="393" 
d="M142 743h-25l66 127h28l66 -127h-25l-55 97zM71 0v700h34v-334h184v334h34v-700h-34v334h-184v-334h-34z" />
    <glyph glyph-name="I" unicode="I" horiz-adv-x="175" 
d="M71 0v700h34v-700h-34z" />
    <glyph glyph-name="Iacute" unicode="&#xcd;" horiz-adv-x="175" 
d="M93 748h-26l55 125h35zM71 0v700h34v-700h-34z" />
    <glyph glyph-name="Ibreve" unicode="&#x12c;" horiz-adv-x="175" 
d="M12 829h28c0 -35 19 -58 47 -58c29 0 47 23 47 58h29c0 -51 -31 -85 -76 -85s-75 34 -75 85zM71 0v700h34v-700h-34z" />
    <glyph glyph-name="Icircumflex" unicode="&#xce;" horiz-adv-x="175" 
d="M32 743h-25l66 127h28l66 -127h-25l-55 97zM71 0v700h34v-700h-34z" />
    <glyph glyph-name="Idieresis" unicode="&#xcf;" horiz-adv-x="175" 
d="M5 791c0 16 12 29 29 29c15 0 28 -13 28 -29s-13 -28 -28 -28c-17 0 -29 12 -29 28zM115 791c0 16 12 29 28 29s28 -13 28 -29s-12 -28 -28 -28s-28 12 -28 28zM71 0v700h34v-700h-34z" />
    <glyph glyph-name="Idotaccent" unicode="&#x130;" horiz-adv-x="175" 
d="M54 792c0 18 15 34 34 34c18 0 34 -16 34 -34c0 -19 -16 -34 -34 -34c-19 0 -34 15 -34 34zM71 0v700h34v-700h-34z" />
    <glyph glyph-name="Igrave" unicode="&#xcc;" horiz-adv-x="175" 
d="M55 873l55 -125h-26l-64 125h35zM71 0v700h34v-700h-34z" />
    <glyph glyph-name="Imacron" unicode="&#x12a;" horiz-adv-x="175" 
d="M10 772v29h155v-29h-155zM71 0v700h34v-700h-34z" />
    <glyph glyph-name="Iogonek" unicode="&#x12e;" horiz-adv-x="175" 
d="M71 0v700h34v-700h-3s-51 -54 -51 -91c0 -20 16 -32 39 -32c13 0 28 4 40 10v-27c-13 -7 -30 -11 -46 -11c-36 0 -60 22 -60 55c0 50 50 96 50 96h-3z" />
    <glyph glyph-name="Itilde" unicode="&#x128;" horiz-adv-x="175" 
d="M-4 757c0 40 20 65 50 65c36 0 47 -40 71 -40c16 0 26 15 26 37h28c0 -39 -20 -65 -51 -65c-35 0 -47 40 -72 40c-15 0 -24 -15 -24 -37h-28zM71 0v700h34v-700h-34z" />
    <glyph glyph-name="IJ" unicode="&#x132;" horiz-adv-x="500" 
d="M71 0v700h34v-700h-34zM202 171h34v-56c0 -53 35 -88 87 -88c51 0 85 35 85 88v585h34v-585c0 -72 -48 -120 -119 -120c-73 0 -121 48 -121 120v56z" />
    <glyph glyph-name="J" unicode="J" horiz-adv-x="325" 
d="M27 171h34v-56c0 -53 35 -88 87 -88c51 0 85 35 85 88v585h34v-585c0 -72 -48 -120 -119 -120c-73 0 -121 48 -121 120v56z" />
    <glyph glyph-name="Jcircumflex" unicode="&#x134;" horiz-adv-x="325" 
d="M195 743h-25l66 127h28l66 -127h-25l-55 97zM27 171h34v-56c0 -53 35 -88 87 -88c51 0 85 35 85 88v585h34v-585c0 -72 -48 -120 -119 -120c-73 0 -121 48 -121 120v56z" />
    <glyph glyph-name="Jacute" horiz-adv-x="325" 
d="M255 748h-26l55 125h35zM27 171h34v-56c0 -53 35 -88 87 -88c51 0 85 35 85 88v585h34v-585c0 -72 -48 -120 -119 -120c-73 0 -121 48 -121 120v56z" />
    <glyph glyph-name="K" unicode="K" horiz-adv-x="333" 
d="M66 0v700h34v-325l154 325h38l-163 -337l181 -363h-38l-172 351v-351h-34z" />
    <glyph glyph-name="uni0136" unicode="&#x136;" horiz-adv-x="333" 
d="M66 0v700h34v-325l154 325h38l-163 -337l181 -363h-38l-172 351v-351h-34zM122 -190l47 143l30 -10l-55 -140z" />
    <glyph glyph-name="L" unicode="L" horiz-adv-x="313" 
d="M71 0v700h34v-668h184v-32h-218z" />
    <glyph glyph-name="Lacute" unicode="&#x139;" horiz-adv-x="313" 
d="M93 748h-26l55 125h35zM71 0v700h34v-668h184v-32h-218z" />
    <glyph glyph-name="Lcaron" unicode="&#x13d;" horiz-adv-x="313" 
d="M71 0v700h34v-668h184v-32h-218zM215 497v203h34l-9 -203h-25z" />
    <glyph glyph-name="uni013B" unicode="&#x13b;" horiz-adv-x="313" 
d="M71 0v700h34v-668h184v-32h-218zM122 -190l47 143l30 -10l-55 -140z" />
    <glyph glyph-name="Ldot" unicode="&#x13f;" horiz-adv-x="313" 
d="M71 0v700h34v-668h184v-32h-218zM203 350c0 20 16 36 37 36c20 0 36 -16 36 -36s-16 -36 -36 -36c-21 0 -37 16 -37 36z" />
    <glyph glyph-name="Lslash" unicode="&#x141;" horiz-adv-x="325" 
d="M83 0v299l-53 -37l-18 25l71 49v364h34v-340l112 79l18 -25l-130 -91v-291h185v-32h-219z" />
    <glyph glyph-name="M" unicode="M" horiz-adv-x="508" 
d="M122 700l132 -521l132 521h52v-700h-33v648l-135 -528h-31l-135 528v-648h-33v700h51z" />
    <glyph glyph-name="N" unicode="N" horiz-adv-x="393" 
d="M71 0v700h29l190 -592v592h33v-700h-30l-189 592v-592h-33z" />
    <glyph glyph-name="Nacute" unicode="&#x143;" horiz-adv-x="393" 
d="M202 748h-26l55 125h35zM71 0v700h29l190 -592v592h33v-700h-30l-189 592v-592h-33z" />
    <glyph glyph-name="Ncaron" unicode="&#x147;" horiz-adv-x="393" 
d="M183 743l-66 127h25l55 -97l55 97h25l-66 -127h-28zM71 0v700h29l190 -592v592h33v-700h-30l-189 592v-592h-33z" />
    <glyph glyph-name="uni0145" unicode="&#x145;" horiz-adv-x="393" 
d="M71 0v700h29l190 -592v592h33v-700h-30l-189 592v-592h-33zM139 -190l47 143l30 -10l-55 -140z" />
    <glyph glyph-name="Ntilde" unicode="&#xd1;" horiz-adv-x="393" 
d="M105 757c0 40 20 65 50 65c36 0 47 -40 71 -40c16 0 26 15 26 37h28c0 -39 -20 -65 -51 -65c-35 0 -47 40 -72 40c-15 0 -24 -15 -24 -37h-28zM71 0v700h29l190 -592v592h33v-700h-30l-189 592v-592h-33z" />
    <glyph glyph-name="Eng" unicode="&#x14a;" horiz-adv-x="393" 
d="M71 0v700h29l190 -592v592h33v-815c0 -72 -48 -120 -120 -120v32c52 0 87 35 87 88v125l-186 582v-592h-33z" />
    <glyph glyph-name="O" unicode="O" horiz-adv-x="367" 
d="M57 585c0 72 51 120 127 120c75 0 126 -48 126 -120v-470c0 -72 -51 -120 -126 -120c-76 0 -127 48 -127 120v470zM91 585v-470c0 -53 37 -88 93 -88c55 0 92 35 92 88v470c0 53 -37 88 -92 88c-56 0 -93 -35 -93 -88z" />
    <glyph glyph-name="Oacute" unicode="&#xd3;" horiz-adv-x="367" 
d="M188 748h-26l55 125h35zM57 585c0 72 51 120 127 120c75 0 126 -48 126 -120v-470c0 -72 -51 -120 -126 -120c-76 0 -127 48 -127 120v470zM91 585v-470c0 -53 37 -88 93 -88c55 0 92 35 92 88v470c0 53 -37 88 -92 88c-56 0 -93 -35 -93 -88z" />
    <glyph glyph-name="Obreve" unicode="&#x14e;" horiz-adv-x="367" 
d="M108 829h28c0 -35 19 -58 47 -58c29 0 47 23 47 58h29c0 -51 -31 -85 -76 -85s-75 34 -75 85zM57 585c0 72 51 120 127 120c75 0 126 -48 126 -120v-470c0 -72 -51 -120 -126 -120c-76 0 -127 48 -127 120v470zM91 585v-470c0 -53 37 -88 93 -88c55 0 92 35 92 88v470
c0 53 -37 88 -92 88c-56 0 -93 -35 -93 -88z" />
    <glyph glyph-name="Ocircumflex" unicode="&#xd4;" horiz-adv-x="367" 
d="M128 743h-25l66 127h28l66 -127h-25l-55 97zM57 585c0 72 51 120 127 120c75 0 126 -48 126 -120v-470c0 -72 -51 -120 -126 -120c-76 0 -127 48 -127 120v470zM91 585v-470c0 -53 37 -88 93 -88c55 0 92 35 92 88v470c0 53 -37 88 -92 88c-56 0 -93 -35 -93 -88z" />
    <glyph glyph-name="Odieresis" unicode="&#xd6;" horiz-adv-x="367" 
d="M100 791c0 16 12 29 29 29c15 0 28 -13 28 -29s-13 -28 -28 -28c-17 0 -29 12 -29 28zM210 791c0 16 12 29 28 29s28 -13 28 -29s-12 -28 -28 -28s-28 12 -28 28zM57 585c0 72 51 120 127 120c75 0 126 -48 126 -120v-470c0 -72 -51 -120 -126 -120
c-76 0 -127 48 -127 120v470zM91 585v-470c0 -53 37 -88 93 -88c55 0 92 35 92 88v470c0 53 -37 88 -92 88c-56 0 -93 -35 -93 -88z" />
    <glyph glyph-name="Ograve" unicode="&#xd2;" horiz-adv-x="367" 
d="M150 873l55 -125h-26l-64 125h35zM57 585c0 72 51 120 127 120c75 0 126 -48 126 -120v-470c0 -72 -51 -120 -126 -120c-76 0 -127 48 -127 120v470zM91 585v-470c0 -53 37 -88 93 -88c55 0 92 35 92 88v470c0 53 -37 88 -92 88c-56 0 -93 -35 -93 -88z" />
    <glyph glyph-name="Ohungarumlaut" unicode="&#x150;" horiz-adv-x="367" 
d="M147 748h-24l54 125h33zM233 748h-24l54 125h33zM57 585c0 72 51 120 127 120c75 0 126 -48 126 -120v-470c0 -72 -51 -120 -126 -120c-76 0 -127 48 -127 120v470zM91 585v-470c0 -53 37 -88 93 -88c55 0 92 35 92 88v470c0 53 -37 88 -92 88c-56 0 -93 -35 -93 -88z
" />
    <glyph glyph-name="Omacron" unicode="&#x14c;" horiz-adv-x="367" 
d="M106 772v29h155v-29h-155zM57 585c0 72 51 120 127 120c75 0 126 -48 126 -120v-470c0 -72 -51 -120 -126 -120c-76 0 -127 48 -127 120v470zM91 585v-470c0 -53 37 -88 93 -88c55 0 92 35 92 88v470c0 53 -37 88 -92 88c-56 0 -93 -35 -93 -88z" />
    <glyph glyph-name="Oslash" unicode="&#xd8;" horiz-adv-x="367" 
d="M57 585c0 72 51 120 127 120c34 0 64 -10 85 -28l10 30l25 1l-16 -51c14 -20 22 -44 22 -72v-470c0 -72 -51 -120 -126 -120c-35 0 -64 10 -86 28l-9 -32l-25 -1l15 53c-14 19 -22 44 -22 72v470zM91 585v-470c0 -8 1 -16 3 -23l164 548c-16 21 -42 33 -74 33
c-56 0 -93 -35 -93 -88zM273 607l-164 -547c16 -21 42 -33 75 -33c55 0 92 35 92 88v470c0 8 -1 15 -3 22z" />
    <glyph glyph-name="Oslashacute" unicode="&#x1fe;" horiz-adv-x="367" 
d="M188 748h-26l55 125h35zM57 585c0 72 51 120 127 120c34 0 64 -10 85 -28l10 30l25 1l-16 -51c14 -20 22 -44 22 -72v-470c0 -72 -51 -120 -126 -120c-35 0 -64 10 -86 28l-9 -32l-25 -1l15 53c-14 19 -22 44 -22 72v470zM91 585v-470c0 -8 1 -16 3 -23l164 548
c-16 21 -42 33 -74 33c-56 0 -93 -35 -93 -88zM273 607l-164 -547c16 -21 42 -33 75 -33c55 0 92 35 92 88v470c0 8 -1 15 -3 22z" />
    <glyph glyph-name="Otilde" unicode="&#xd5;" horiz-adv-x="367" 
d="M91 757c0 40 20 65 50 65c36 0 47 -40 71 -40c16 0 26 15 26 37h28c0 -39 -20 -65 -51 -65c-35 0 -47 40 -72 40c-15 0 -24 -15 -24 -37h-28zM57 585c0 72 51 120 127 120c75 0 126 -48 126 -120v-470c0 -72 -51 -120 -126 -120c-76 0 -127 48 -127 120v470zM91 585v-470
c0 -53 37 -88 93 -88c55 0 92 35 92 88v470c0 53 -37 88 -92 88c-56 0 -93 -35 -93 -88z" />
    <glyph glyph-name="OE" unicode="&#x152;" horiz-adv-x="523" 
d="M57 585c0 72 49 120 121 120c42 0 77 -16 98 -44v39h208v-32h-176v-302h156v-32h-156v-302h176v-32h-208v39c-21 -28 -56 -44 -98 -44c-72 0 -121 48 -121 120v470zM91 585v-470c0 -53 37 -88 93 -88c55 0 92 35 92 88v470c0 53 -37 88 -92 88c-56 0 -93 -35 -93 -88z
" />
    <glyph glyph-name="P" unicode="P" horiz-adv-x="365" 
d="M71 0v700h126c75 0 126 -48 126 -120v-154c0 -72 -51 -120 -126 -120h-92v-306h-34zM104 338h93c55 0 92 35 92 88v154c0 53 -37 88 -92 88h-92z" />
    <glyph glyph-name="Q" unicode="Q" horiz-adv-x="367" 
d="M57 585c0 72 51 120 127 120c75 0 126 -48 126 -120v-470c0 -59 -35 -102 -89 -116l47 -128l-32 -12l-50 136c-74 0 -129 43 -129 120v470zM91 585v-470c0 -53 37 -88 93 -88c55 0 92 35 92 88v470c0 53 -37 88 -92 88c-56 0 -93 -35 -93 -88z" />
    <glyph glyph-name="R" unicode="R" horiz-adv-x="384" 
d="M308 0l-117 316h-86v-316h-34v700h121c75 0 126 -48 126 -120v-144c0 -61 -37 -106 -95 -117l121 -319h-36zM105 348h87c55 0 92 35 92 88v144c0 53 -37 88 -92 88h-87v-320z" />
    <glyph glyph-name="Racute" unicode="&#x154;" horiz-adv-x="384" 
d="M175 748h-26l55 125h35zM308 0l-117 316h-86v-316h-34v700h121c75 0 126 -48 126 -120v-144c0 -61 -37 -106 -95 -117l121 -319h-36zM105 348h87c55 0 92 35 92 88v144c0 53 -37 88 -92 88h-87v-320z" />
    <glyph glyph-name="Rcaron" unicode="&#x158;" horiz-adv-x="384" 
d="M156 743l-66 127h25l55 -97l55 97h25l-66 -127h-28zM308 0l-117 316h-86v-316h-34v700h121c75 0 126 -48 126 -120v-144c0 -61 -37 -106 -95 -117l121 -319h-36zM105 348h87c55 0 92 35 92 88v144c0 53 -37 88 -92 88h-87v-320z" />
    <glyph glyph-name="uni0156" unicode="&#x156;" horiz-adv-x="384" 
d="M308 0l-117 316h-86v-316h-34v700h121c75 0 126 -48 126 -120v-144c0 -61 -37 -106 -95 -117l121 -319h-36zM105 348h87c55 0 92 35 92 88v144c0 53 -37 88 -92 88h-87v-320zM149 -190l47 143l30 -10l-55 -140z" />
    <glyph glyph-name="S" unicode="S" horiz-adv-x="327" 
d="M81 493c0 -51 50 -86 97 -125c53 -41 107 -85 107 -151v-102c0 -72 -47 -120 -120 -120c-71 0 -118 48 -118 120v87h33v-87c0 -53 34 -88 85 -88c53 0 87 35 87 88v102c0 50 -46 86 -93 124c-53 41 -111 85 -111 152v92c0 72 45 120 114 120s114 -48 114 -120v-86h-33v86
c0 53 -32 88 -81 88s-81 -35 -81 -88v-92z" />
    <glyph glyph-name="Sacute" unicode="&#x15a;" horiz-adv-x="327" 
d="M171 748h-26l55 125h35zM81 493c0 -51 50 -86 97 -125c53 -41 107 -85 107 -151v-102c0 -72 -47 -120 -120 -120c-71 0 -118 48 -118 120v87h33v-87c0 -53 34 -88 85 -88c53 0 87 35 87 88v102c0 50 -46 86 -93 124c-53 41 -111 85 -111 152v92c0 72 45 120 114 120
s114 -48 114 -120v-86h-33v86c0 53 -32 88 -81 88s-81 -35 -81 -88v-92z" />
    <glyph glyph-name="Scaron" unicode="&#x160;" horiz-adv-x="327" 
d="M152 743l-66 127h25l55 -97l55 97h25l-66 -127h-28zM81 493c0 -51 50 -86 97 -125c53 -41 107 -85 107 -151v-102c0 -72 -47 -120 -120 -120c-71 0 -118 48 -118 120v87h33v-87c0 -53 34 -88 85 -88c53 0 87 35 87 88v102c0 50 -46 86 -93 124c-53 41 -111 85 -111 152
v92c0 72 45 120 114 120s114 -48 114 -120v-86h-33v86c0 53 -32 88 -81 88s-81 -35 -81 -88v-92z" />
    <glyph glyph-name="Scedilla" unicode="&#x15e;" horiz-adv-x="327" 
d="M81 493c0 -51 50 -86 97 -125c53 -41 107 -85 107 -151v-102c0 -72 -47 -120 -120 -120c-71 0 -118 48 -118 120v87h33v-87c0 -53 34 -88 85 -88c53 0 87 35 87 88v102c0 50 -46 86 -93 124c-53 41 -111 85 -111 152v92c0 72 45 120 114 120s114 -48 114 -120v-86h-33v86
c0 53 -32 88 -81 88s-81 -35 -81 -88v-92zM108 -191l47 143h33l-55 -143h-25z" />
    <glyph glyph-name="Scircumflex" unicode="&#x15c;" horiz-adv-x="327" 
d="M111 743h-25l66 127h28l66 -127h-25l-55 97zM81 493c0 -51 50 -86 97 -125c53 -41 107 -85 107 -151v-102c0 -72 -47 -120 -120 -120c-71 0 -118 48 -118 120v87h33v-87c0 -53 34 -88 85 -88c53 0 87 35 87 88v102c0 50 -46 86 -93 124c-53 41 -111 85 -111 152v92
c0 72 45 120 114 120s114 -48 114 -120v-86h-33v86c0 53 -32 88 -81 88s-81 -35 -81 -88v-92z" />
    <glyph glyph-name="uni0218" unicode="&#x218;" horiz-adv-x="327" 
d="M81 493c0 -51 50 -86 97 -125c53 -41 107 -85 107 -151v-102c0 -72 -47 -120 -120 -120c-71 0 -118 48 -118 120v87h33v-87c0 -53 34 -88 85 -88c53 0 87 35 87 88v102c0 50 -46 86 -93 124c-53 41 -111 85 -111 152v92c0 72 45 120 114 120s114 -48 114 -120v-86h-33v86
c0 53 -32 88 -81 88s-81 -35 -81 -88v-92zM108 -190l47 143l30 -10l-55 -140z" />
    <glyph glyph-name="T" unicode="T" horiz-adv-x="342" 
d="M154 -1v669h-132v32h297v-32h-131v-669h-34z" />
    <glyph glyph-name="Tbar" unicode="&#x166;" horiz-adv-x="342" 
d="M154 -1v360h-102v28h102v281h-132v32h297v-32h-131v-281h101v-28h-101v-360h-34z" />
    <glyph glyph-name="Tcaron" unicode="&#x164;" horiz-adv-x="342" 
d="M157 743l-66 127h25l55 -97l55 97h25l-66 -127h-28zM154 -1v669h-132v32h297v-32h-131v-669h-34z" />
    <glyph glyph-name="uni0162" unicode="&#x162;" horiz-adv-x="342" 
d="M154 -1v669h-132v32h297v-32h-131v-669h-34zM113 -190l47 143l30 -10l-55 -140z" />
    <glyph glyph-name="uni021A" unicode="&#x21a;" horiz-adv-x="342" 
d="M154 -1v669h-132v32h297v-32h-131v-669h-34zM113 -190l47 143l30 -10l-55 -140z" />
    <glyph glyph-name="U" unicode="U" horiz-adv-x="375" 
d="M62 700h33v-585c0 -53 37 -88 93 -88c55 0 92 35 92 88v585h34v-585c0 -72 -51 -120 -126 -120c-76 0 -126 48 -126 120v585z" />
    <glyph glyph-name="Uacute" unicode="&#xda;" horiz-adv-x="375" 
d="M193 748h-26l55 125h35zM62 700h33v-585c0 -53 37 -88 93 -88c55 0 92 35 92 88v585h34v-585c0 -72 -51 -120 -126 -120c-76 0 -126 48 -126 120v585z" />
    <glyph glyph-name="Ubreve" unicode="&#x16c;" horiz-adv-x="375" 
d="M112 829h28c0 -35 19 -58 47 -58c29 0 47 23 47 58h29c0 -51 -31 -85 -76 -85s-75 34 -75 85zM62 700h33v-585c0 -53 37 -88 93 -88c55 0 92 35 92 88v585h34v-585c0 -72 -51 -120 -126 -120c-76 0 -126 48 -126 120v585z" />
    <glyph glyph-name="Ucircumflex" unicode="&#xdb;" horiz-adv-x="375" 
d="M132 743h-25l66 127h28l66 -127h-25l-55 97zM62 700h33v-585c0 -53 37 -88 93 -88c55 0 92 35 92 88v585h34v-585c0 -72 -51 -120 -126 -120c-76 0 -126 48 -126 120v585z" />
    <glyph glyph-name="Udieresis" unicode="&#xdc;" horiz-adv-x="375" 
d="M105 791c0 16 12 29 29 29c15 0 28 -13 28 -29s-13 -28 -28 -28c-17 0 -29 12 -29 28zM215 791c0 16 12 29 28 29s28 -13 28 -29s-12 -28 -28 -28s-28 12 -28 28zM62 700h33v-585c0 -53 37 -88 93 -88c55 0 92 35 92 88v585h34v-585c0 -72 -51 -120 -126 -120
c-76 0 -126 48 -126 120v585z" />
    <glyph glyph-name="Ugrave" unicode="&#xd9;" horiz-adv-x="375" 
d="M155 873l55 -125h-26l-64 125h35zM62 700h33v-585c0 -53 37 -88 93 -88c55 0 92 35 92 88v585h34v-585c0 -72 -51 -120 -126 -120c-76 0 -126 48 -126 120v585z" />
    <glyph glyph-name="Uhungarumlaut" unicode="&#x170;" horiz-adv-x="375" 
d="M152 748h-24l54 125h33zM238 748h-24l54 125h33zM62 700h33v-585c0 -53 37 -88 93 -88c55 0 92 35 92 88v585h34v-585c0 -72 -51 -120 -126 -120c-76 0 -126 48 -126 120v585z" />
    <glyph glyph-name="Umacron" unicode="&#x16a;" horiz-adv-x="375" 
d="M110 772v29h155v-29h-155zM62 700h33v-585c0 -53 37 -88 93 -88c55 0 92 35 92 88v585h34v-585c0 -72 -51 -120 -126 -120c-76 0 -126 48 -126 120v585z" />
    <glyph glyph-name="Uogonek" unicode="&#x172;" horiz-adv-x="375" 
d="M62 700h33v-585c0 -53 37 -88 93 -88c55 0 92 35 92 88v585h34v-585c0 -61 -37 -105 -95 -117c-13 -15 -45 -55 -45 -84c0 -20 16 -32 39 -32c13 0 28 4 40 10v-27c-13 -7 -30 -11 -46 -11c-36 0 -60 22 -60 55c0 36 26 70 41 86c-76 0 -126 48 -126 120v585z" />
    <glyph glyph-name="Uring" unicode="&#x16e;" horiz-adv-x="375" 
d="M126 801c0 35 26 61 61 61s62 -26 62 -61c0 -36 -27 -62 -62 -62s-61 26 -61 62zM152 801c0 -21 14 -36 35 -36c22 0 36 15 36 36s-14 36 -36 36c-21 0 -35 -15 -35 -36zM62 700h33v-585c0 -53 37 -88 93 -88c55 0 92 35 92 88v585h34v-585c0 -72 -51 -120 -126 -120
c-76 0 -126 48 -126 120v585z" />
    <glyph glyph-name="Utilde" unicode="&#x168;" horiz-adv-x="375" 
d="M96 757c0 40 20 65 50 65c36 0 47 -40 71 -40c16 0 26 15 26 37h28c0 -39 -20 -65 -51 -65c-35 0 -47 40 -72 40c-15 0 -24 -15 -24 -37h-28zM62 700h33v-585c0 -53 37 -88 93 -88c55 0 92 35 92 88v585h34v-585c0 -72 -51 -120 -126 -120c-76 0 -126 48 -126 120v585z
" />
    <glyph glyph-name="V" unicode="V" horiz-adv-x="342" 
d="M184 0h-26l-131 700h35l108 -605l110 605h35z" />
    <glyph glyph-name="W" unicode="W" horiz-adv-x="487" 
d="M155 0h-25l-103 700h35l81 -590l86 590h30l84 -593l83 593h35l-104 -700h-25l-88 603z" />
    <glyph glyph-name="Wacute" unicode="&#x1e82;" horiz-adv-x="487" 
d="M249 748h-26l55 125h35zM155 0h-25l-103 700h35l81 -590l86 590h30l84 -593l83 593h35l-104 -700h-25l-88 603z" />
    <glyph glyph-name="Wcircumflex" unicode="&#x174;" horiz-adv-x="487" 
d="M189 743h-25l66 127h28l66 -127h-25l-55 97zM155 0h-25l-103 700h35l81 -590l86 590h30l84 -593l83 593h35l-104 -700h-25l-88 603z" />
    <glyph glyph-name="Wdieresis" unicode="&#x1e84;" horiz-adv-x="487" 
d="M161 791c0 16 12 29 29 29c15 0 28 -13 28 -29s-13 -28 -28 -28c-17 0 -29 12 -29 28zM271 791c0 16 12 29 28 29s28 -13 28 -29s-12 -28 -28 -28s-28 12 -28 28zM155 0h-25l-103 700h35l81 -590l86 590h30l84 -593l83 593h35l-104 -700h-25l-88 603z" />
    <glyph glyph-name="Wgrave" unicode="&#x1e80;" horiz-adv-x="487" 
d="M211 873l55 -125h-26l-64 125h35zM155 0h-25l-103 700h35l81 -590l86 590h30l84 -593l83 593h35l-104 -700h-25l-88 603z" />
    <glyph glyph-name="X" unicode="X" horiz-adv-x="339" 
d="M32 0l119 360l-112 340h36l95 -300l94 300h36l-112 -340l120 -360h-36l-102 320l-103 -320h-35z" />
    <glyph glyph-name="Y" unicode="Y" horiz-adv-x="348" 
d="M158 0v293l-136 407h36l116 -355l116 355h36l-135 -404v-296h-33z" />
    <glyph glyph-name="Yacute" unicode="&#xdd;" horiz-adv-x="348" 
d="M179 731h-26l55 125h35zM158 0v293l-136 407h36l116 -355l116 355h36l-135 -404v-296h-33z" />
    <glyph glyph-name="Ycircumflex" unicode="&#x176;" horiz-adv-x="348" 
d="M119 726h-25l66 127h28l66 -127h-25l-55 97zM158 0v293l-136 407h36l116 -355l116 355h36l-135 -404v-296h-33z" />
    <glyph glyph-name="Ydieresis" unicode="&#x178;" horiz-adv-x="348" 
d="M91 774c0 16 12 29 29 29c15 0 28 -13 28 -29s-13 -28 -28 -28c-17 0 -29 12 -29 28zM201 774c0 16 12 29 28 29s28 -13 28 -29s-12 -28 -28 -28s-28 12 -28 28zM158 0v293l-136 407h36l116 -355l116 355h36l-135 -404v-296h-33z" />
    <glyph glyph-name="Ygrave" unicode="&#x1ef2;" horiz-adv-x="348" 
d="M141 856l55 -125h-26l-64 125h35zM158 0v293l-136 407h36l116 -355l116 355h36l-135 -404v-296h-33z" />
    <glyph glyph-name="Z" unicode="Z" horiz-adv-x="277" 
d="M44 668v32h200v-32l-167 -636h161v-32h-196v32l166 636h-164z" />
    <glyph glyph-name="Zacute" unicode="&#x179;" horiz-adv-x="277" 
d="M148 748h-26l55 125h35zM44 668v32h200v-32l-167 -636h161v-32h-196v32l166 636h-164z" />
    <glyph glyph-name="Zcaron" unicode="&#x17d;" horiz-adv-x="277" 
d="M129 743l-66 127h25l55 -97l55 97h25l-66 -127h-28zM44 668v32h200v-32l-167 -636h161v-32h-196v32l166 636h-164z" />
    <glyph glyph-name="Zdotaccent" unicode="&#x17b;" horiz-adv-x="277" 
d="M109 792c0 18 15 34 34 34c18 0 34 -16 34 -34c0 -19 -16 -34 -34 -34c-19 0 -34 15 -34 34zM44 668v32h200v-32l-167 -636h161v-32h-196v32l166 636h-164z" />
    <glyph glyph-name="Germandbls" unicode="&#x1e9e;" 
d="M105 580v-580h-34v580c0 72 51 120 127 120h133v-32l-109 -276c73 -3 121 -51 121 -122v-155c0 -72 -54 -120 -135 -120h-37v32h39c59 0 99 35 99 88v155c0 53 -37 90 -92 90h-30v32l108 276h-97c-56 0 -93 -35 -93 -88z" />
    <glyph glyph-name="uni018F" unicode="&#x18f;" horiz-adv-x="367" 
d="M57 499v86c0 72 51 120 127 120c75 0 126 -48 126 -120v-470c0 -72 -51 -120 -126 -120c-76 0 -127 48 -127 120v240h219v230c0 53 -37 88 -92 88c-56 0 -93 -35 -93 -88v-86h-34zM91 323v-208c0 -53 37 -88 93 -88c55 0 92 35 92 88v208h-185z" />
    <glyph glyph-name="a" unicode="a" horiz-adv-x="369" 
d="M304 385v-385h-34v48c-20 -33 -55 -53 -102 -53c-66 0 -112 42 -112 104v47c0 67 47 112 117 122l97 14v103c0 53 -33 88 -84 88s-84 -35 -84 -88v-36h-34v36c0 72 47 120 118 120s118 -48 118 -120zM270 251l-91 -13c-53 -8 -89 -41 -89 -91v-47c0 -43 36 -73 87 -73
c57 0 93 35 93 88v136z" />
    <glyph glyph-name="aacute" unicode="&#xe1;" horiz-adv-x="369" 
d="M190 558h-26l55 125h35zM304 385v-385h-34v48c-20 -33 -55 -53 -102 -53c-66 0 -112 42 -112 104v47c0 67 47 112 117 122l97 14v103c0 53 -33 88 -84 88s-84 -35 -84 -88v-36h-34v36c0 72 47 120 118 120s118 -48 118 -120zM270 251l-91 -13c-53 -8 -89 -41 -89 -91v-47
c0 -43 36 -73 87 -73c57 0 93 35 93 88v136z" />
    <glyph glyph-name="abreve" unicode="&#x103;" horiz-adv-x="369" 
d="M110 639h28c0 -35 19 -58 47 -58c29 0 47 23 47 58h29c0 -51 -31 -85 -76 -85s-75 34 -75 85zM304 385v-385h-34v48c-20 -33 -55 -53 -102 -53c-66 0 -112 42 -112 104v47c0 67 47 112 117 122l97 14v103c0 53 -33 88 -84 88s-84 -35 -84 -88v-36h-34v36
c0 72 47 120 118 120s118 -48 118 -120zM270 251l-91 -13c-53 -8 -89 -41 -89 -91v-47c0 -43 36 -73 87 -73c57 0 93 35 93 88v136z" />
    <glyph glyph-name="acircumflex" unicode="&#xe2;" horiz-adv-x="369" 
d="M130 553h-25l66 127h28l66 -127h-25l-55 97zM304 385v-385h-34v48c-20 -33 -55 -53 -102 -53c-66 0 -112 42 -112 104v47c0 67 47 112 117 122l97 14v103c0 53 -33 88 -84 88s-84 -35 -84 -88v-36h-34v36c0 72 47 120 118 120s118 -48 118 -120zM270 251l-91 -13
c-53 -8 -89 -41 -89 -91v-47c0 -43 36 -73 87 -73c57 0 93 35 93 88v136z" />
    <glyph glyph-name="agrave" unicode="&#xe0;" horiz-adv-x="369" 
d="M152 683l55 -125h-26l-64 125h35zM304 385v-385h-34v48c-20 -33 -55 -53 -102 -53c-66 0 -112 42 -112 104v47c0 67 47 112 117 122l97 14v103c0 53 -33 88 -84 88s-84 -35 -84 -88v-36h-34v36c0 72 47 120 118 120s118 -48 118 -120zM270 251l-91 -13
c-53 -8 -89 -41 -89 -91v-47c0 -43 36 -73 87 -73c57 0 93 35 93 88v136z" />
    <glyph glyph-name="adieresis" unicode="&#xe4;" horiz-adv-x="369" 
d="M102 601c0 16 12 29 29 29c15 0 28 -13 28 -29s-13 -28 -28 -28c-17 0 -29 12 -29 28zM212 601c0 16 12 29 28 29s28 -13 28 -29s-12 -28 -28 -28s-28 12 -28 28zM304 385v-385h-34v48c-20 -33 -55 -53 -102 -53c-66 0 -112 42 -112 104v47c0 67 47 112 117 122l97 14
v103c0 53 -33 88 -84 88s-84 -35 -84 -88v-36h-34v36c0 72 47 120 118 120s118 -48 118 -120zM270 251l-91 -13c-53 -8 -89 -41 -89 -91v-47c0 -43 36 -73 87 -73c57 0 93 35 93 88v136z" />
    <glyph glyph-name="amacron" unicode="&#x101;" horiz-adv-x="369" 
d="M108 582v29h155v-29h-155zM304 385v-385h-34v48c-20 -33 -55 -53 -102 -53c-66 0 -112 42 -112 104v47c0 67 47 112 117 122l97 14v103c0 53 -33 88 -84 88s-84 -35 -84 -88v-36h-34v36c0 72 47 120 118 120s118 -48 118 -120zM270 251l-91 -13c-53 -8 -89 -41 -89 -91
v-47c0 -43 36 -73 87 -73c57 0 93 35 93 88v136z" />
    <glyph glyph-name="aogonek" unicode="&#x105;" horiz-adv-x="369" 
d="M304 385v-385h-4s-51 -54 -51 -91c0 -20 16 -32 39 -32c13 0 28 4 40 10v-27c-13 -7 -30 -11 -46 -11c-36 0 -60 22 -60 55c0 50 50 96 50 96h-2v48c-20 -33 -55 -53 -102 -53c-66 0 -112 42 -112 104v47c0 67 47 112 117 122l97 14v103c0 53 -33 88 -84 88
s-84 -35 -84 -88v-36h-34v36c0 72 47 120 118 120s118 -48 118 -120zM270 251l-91 -13c-53 -8 -89 -41 -89 -91v-47c0 -43 36 -73 87 -73c57 0 93 35 93 88v136z" />
    <glyph glyph-name="aring" unicode="&#xe5;" horiz-adv-x="369" 
d="M124 611c0 35 26 61 61 61s62 -26 62 -61c0 -36 -27 -62 -62 -62s-61 26 -61 62zM150 611c0 -21 14 -36 35 -36c22 0 36 15 36 36s-14 36 -36 36c-21 0 -35 -15 -35 -36zM304 385v-385h-34v48c-20 -33 -55 -53 -102 -53c-66 0 -112 42 -112 104v47c0 67 47 112 117 122
l97 14v103c0 53 -33 88 -84 88s-84 -35 -84 -88v-36h-34v36c0 72 47 120 118 120s118 -48 118 -120zM270 251l-91 -13c-53 -8 -89 -41 -89 -91v-47c0 -43 36 -73 87 -73c57 0 93 35 93 88v136z" />
    <glyph glyph-name="aringacute" unicode="&#x1fb;" horiz-adv-x="369" 
d="M124 611c0 35 26 61 61 61c6 0 12 -1 18 -2l47 107h33l-60 -117c14 -11 23 -28 23 -49c0 -35 -27 -61 -61 -61c-35 0 -61 26 -61 61zM149 611c0 -21 15 -36 36 -36s36 15 36 36s-15 36 -36 36s-36 -15 -36 -36zM304 385v-385h-34v48c-20 -33 -55 -53 -102 -53
c-66 0 -112 42 -112 104v47c0 67 47 112 117 122l97 14v103c0 53 -33 88 -84 88s-84 -35 -84 -88v-36h-34v36c0 72 47 120 118 120s118 -48 118 -120zM270 251l-91 -13c-53 -8 -89 -41 -89 -91v-47c0 -43 36 -73 87 -73c57 0 93 35 93 88v136z" />
    <glyph glyph-name="atilde" unicode="&#xe3;" horiz-adv-x="369" 
d="M93 567c0 40 20 65 50 65c36 0 47 -40 71 -40c16 0 26 15 26 37h28c0 -39 -20 -65 -51 -65c-35 0 -47 40 -72 40c-15 0 -24 -15 -24 -37h-28zM304 385v-385h-34v48c-20 -33 -55 -53 -102 -53c-66 0 -112 42 -112 104v47c0 67 47 112 117 122l97 14v103
c0 53 -33 88 -84 88s-84 -35 -84 -88v-36h-34v36c0 72 47 120 118 120s118 -48 118 -120zM270 251l-91 -13c-53 -8 -89 -41 -89 -91v-47c0 -43 36 -73 87 -73c57 0 93 35 93 88v136z" />
    <glyph glyph-name="ae" unicode="&#xe6;" horiz-adv-x="553" 
d="M302 237v-102c0 -65 37 -108 98 -108c29 0 63 10 105 33v-34c-40 -21 -74 -31 -108 -31c-54 0 -92 26 -112 69c-17 -42 -58 -69 -113 -69c-68 0 -116 42 -116 104v33c0 67 47 112 117 122l97 14v117c0 53 -33 88 -84 88s-84 -35 -84 -88v-36h-34v36c0 72 47 120 117 120
c47 0 83 -22 101 -58c18 36 56 58 104 58c72 0 120 -48 120 -120v-131zM302 385v-117l174 14v103c0 53 -34 88 -87 88c-52 0 -87 -35 -87 -88zM270 237l-91 -13c-53 -9 -89 -42 -89 -91v-33c0 -43 37 -73 88 -73c54 0 89 30 94 76z" />
    <glyph glyph-name="aeacute" unicode="&#x1fd;" horiz-adv-x="553" 
d="M288 558h-26l55 125h35zM302 237v-102c0 -65 37 -108 98 -108c29 0 63 10 105 33v-34c-40 -21 -74 -31 -108 -31c-54 0 -92 26 -112 69c-17 -42 -58 -69 -113 -69c-68 0 -116 42 -116 104v33c0 67 47 112 117 122l97 14v117c0 53 -33 88 -84 88s-84 -35 -84 -88v-36h-34
v36c0 72 47 120 117 120c47 0 83 -22 101 -58c18 36 56 58 104 58c72 0 120 -48 120 -120v-131zM302 385v-117l174 14v103c0 53 -34 88 -87 88c-52 0 -87 -35 -87 -88zM270 237l-91 -13c-53 -9 -89 -42 -89 -91v-33c0 -43 37 -73 88 -73c54 0 89 30 94 76z" />
    <glyph glyph-name="b" unicode="b" horiz-adv-x="360" 
d="M308 385v-270c0 -72 -45 -120 -113 -120c-43 0 -77 19 -95 52v-47h-34v750h34v-297c18 33 52 52 95 52c68 0 113 -48 113 -120zM274 385c0 53 -35 88 -87 88c-53 0 -87 -35 -87 -88v-270c0 -53 34 -88 87 -88c52 0 87 35 87 88v270z" />
    <glyph glyph-name="c" unicode="c" horiz-adv-x="328" 
d="M252 329v56c0 53 -33 88 -83 88s-83 -35 -83 -88v-250c0 -65 35 -108 93 -108c28 0 60 10 102 33v-34c-41 -21 -73 -31 -105 -31c-77 0 -124 56 -124 140v250c0 72 47 120 117 120c71 0 117 -48 117 -120v-56h-34z" />
    <glyph glyph-name="cacute" unicode="&#x107;" horiz-adv-x="328" 
d="M172 558h-26l55 125h35zM252 329v56c0 53 -33 88 -83 88s-83 -35 -83 -88v-250c0 -65 35 -108 93 -108c28 0 60 10 102 33v-34c-41 -21 -73 -31 -105 -31c-77 0 -124 56 -124 140v250c0 72 47 120 117 120c71 0 117 -48 117 -120v-56h-34z" />
    <glyph glyph-name="ccaron" unicode="&#x10d;" horiz-adv-x="328" 
d="M153 553l-66 127h25l55 -97l55 97h25l-66 -127h-28zM252 329v56c0 53 -33 88 -83 88s-83 -35 -83 -88v-250c0 -65 35 -108 93 -108c28 0 60 10 102 33v-34c-41 -21 -73 -31 -105 -31c-77 0 -124 56 -124 140v250c0 72 47 120 117 120c71 0 117 -48 117 -120v-56h-34z" />
    <glyph glyph-name="ccedilla" unicode="&#xe7;" horiz-adv-x="328" 
d="M252 329v56c0 53 -33 88 -83 88s-83 -35 -83 -88v-250c0 -65 35 -108 93 -108c28 0 60 10 102 33v-34c-41 -21 -73 -31 -105 -31c-77 0 -124 56 -124 140v250c0 72 47 120 117 120c71 0 117 -48 117 -120v-56h-34zM116 -191l47 143h33l-55 -143h-25z" />
    <glyph glyph-name="ccircumflex" unicode="&#x109;" horiz-adv-x="328" 
d="M112 553h-25l66 127h28l66 -127h-25l-55 97zM252 329v56c0 53 -33 88 -83 88s-83 -35 -83 -88v-250c0 -65 35 -108 93 -108c28 0 60 10 102 33v-34c-41 -21 -73 -31 -105 -31c-77 0 -124 56 -124 140v250c0 72 47 120 117 120c71 0 117 -48 117 -120v-56h-34z" />
    <glyph glyph-name="cdotaccent" unicode="&#x10b;" horiz-adv-x="328" 
d="M133 602c0 18 15 34 34 34c18 0 34 -16 34 -34c0 -19 -16 -34 -34 -34c-19 0 -34 15 -34 34zM252 329v56c0 53 -33 88 -83 88s-83 -35 -83 -88v-250c0 -65 35 -108 93 -108c28 0 60 10 102 33v-34c-41 -21 -73 -31 -105 -31c-77 0 -124 56 -124 140v250
c0 72 47 120 117 120c71 0 117 -48 117 -120v-56h-34z" />
    <glyph glyph-name="d" unicode="d" horiz-adv-x="360" 
d="M52 385c0 72 45 120 113 120c43 0 77 -19 96 -52v297h34v-750h-34v47c-19 -33 -53 -52 -96 -52c-68 0 -113 48 -113 120v270zM86 385v-270c0 -53 35 -88 88 -88c52 0 87 35 87 88v270c0 53 -35 88 -87 88c-53 0 -88 -35 -88 -88z" />
    <glyph glyph-name="dcaron" unicode="&#x10f;" horiz-adv-x="433" 
d="M52 385c0 72 45 120 113 120c43 0 77 -19 96 -52v297h34v-750h-34v47c-19 -33 -53 -52 -96 -52c-68 0 -113 48 -113 120v270zM382 547v203h33l-8 -203h-25zM86 385v-270c0 -53 35 -88 88 -88c52 0 87 35 87 88v270c0 53 -35 88 -87 88c-53 0 -88 -35 -88 -88z" />
    <glyph glyph-name="dcroat" unicode="&#x111;" horiz-adv-x="361" 
d="M52 385c0 72 45 120 113 120c43 0 77 -19 96 -52v155h-147v31h147v111h34v-111h61v-31h-61v-608h-34v47c-19 -33 -53 -52 -96 -52c-68 0 -113 48 -113 120v270zM86 385v-270c0 -53 35 -88 88 -88c52 0 87 35 87 88v270c0 53 -35 88 -87 88c-53 0 -88 -35 -88 -88z" />
    <glyph glyph-name="eth" unicode="&#xf0;" horiz-adv-x="356" 
d="M304 588v-473c0 -72 -49 -120 -121 -120c-73 0 -121 48 -121 120v270c0 72 46 120 115 120c40 0 73 -16 93 -43v126c0 62 -47 85 -98 103l-43 -77l-24 13l40 73c-22 6 -49 13 -86 22v33c42 -11 74 -18 102 -26l38 70l24 -13l-36 -66c64 -23 117 -57 117 -132zM270 385
c0 53 -35 88 -87 88c-53 0 -88 -35 -88 -88v-270c0 -53 35 -88 88 -88c52 0 87 35 87 88v270z" />
    <glyph glyph-name="thorn" unicode="&#xfe;" horiz-adv-x="360" 
d="M308 115c0 -72 -45 -120 -113 -120c-43 0 -77 19 -95 52v-277h-34v980h34v-297c18 33 52 52 95 52c68 0 113 -48 113 -120v-270zM274 115v270c0 53 -35 88 -87 88c-53 0 -87 -35 -87 -88v-270c0 -53 34 -88 87 -88c52 0 87 35 87 88z" />
    <glyph glyph-name="e" unicode="e" horiz-adv-x="337" 
d="M86 223v-88c0 -65 37 -108 98 -108c30 0 63 10 105 33v-34c-40 -21 -74 -31 -108 -31c-80 0 -129 56 -129 140v250c0 72 49 120 122 120c72 0 121 -48 121 -120v-145zM86 254l175 14v117c0 53 -35 88 -87 88c-53 0 -88 -35 -88 -88v-131z" />
    <glyph glyph-name="eacute" unicode="&#xe9;" horiz-adv-x="337" 
d="M178 558h-26l55 125h35zM86 223v-88c0 -65 37 -108 98 -108c30 0 63 10 105 33v-34c-40 -21 -74 -31 -108 -31c-80 0 -129 56 -129 140v250c0 72 49 120 122 120c72 0 121 -48 121 -120v-145zM86 254l175 14v117c0 53 -35 88 -87 88c-53 0 -88 -35 -88 -88v-131z" />
    <glyph glyph-name="ebreve" unicode="&#x115;" horiz-adv-x="337" 
d="M98 639h28c0 -35 19 -58 47 -58c29 0 47 23 47 58h29c0 -51 -31 -85 -76 -85s-75 34 -75 85zM86 223v-88c0 -65 37 -108 98 -108c30 0 63 10 105 33v-34c-40 -21 -74 -31 -108 -31c-80 0 -129 56 -129 140v250c0 72 49 120 122 120c72 0 121 -48 121 -120v-145zM86 254
l175 14v117c0 53 -35 88 -87 88c-53 0 -88 -35 -88 -88v-131z" />
    <glyph glyph-name="ecaron" unicode="&#x11b;" horiz-adv-x="337" 
d="M159 553l-66 127h25l55 -97l55 97h25l-66 -127h-28zM86 223v-88c0 -65 37 -108 98 -108c30 0 63 10 105 33v-34c-40 -21 -74 -31 -108 -31c-80 0 -129 56 -129 140v250c0 72 49 120 122 120c72 0 121 -48 121 -120v-145zM86 254l175 14v117c0 53 -35 88 -87 88
c-53 0 -88 -35 -88 -88v-131z" />
    <glyph glyph-name="ecircumflex" unicode="&#xea;" horiz-adv-x="337" 
d="M118 553h-25l66 127h28l66 -127h-25l-55 97zM86 223v-88c0 -65 37 -108 98 -108c30 0 63 10 105 33v-34c-40 -21 -74 -31 -108 -31c-80 0 -129 56 -129 140v250c0 72 49 120 122 120c72 0 121 -48 121 -120v-145zM86 254l175 14v117c0 53 -35 88 -87 88
c-53 0 -88 -35 -88 -88v-131z" />
    <glyph glyph-name="edieresis" unicode="&#xeb;" horiz-adv-x="337" 
d="M90 601c0 16 12 29 29 29c15 0 28 -13 28 -29s-13 -28 -28 -28c-17 0 -29 12 -29 28zM200 601c0 16 12 29 28 29s28 -13 28 -29s-12 -28 -28 -28s-28 12 -28 28zM86 223v-88c0 -65 37 -108 98 -108c30 0 63 10 105 33v-34c-40 -21 -74 -31 -108 -31
c-80 0 -129 56 -129 140v250c0 72 49 120 122 120c72 0 121 -48 121 -120v-145zM86 254l175 14v117c0 53 -35 88 -87 88c-53 0 -88 -35 -88 -88v-131z" />
    <glyph glyph-name="edotaccent" unicode="&#x117;" horiz-adv-x="337" 
d="M140 602c0 18 15 34 34 34c18 0 34 -16 34 -34c0 -19 -16 -34 -34 -34c-19 0 -34 15 -34 34zM86 223v-88c0 -65 37 -108 98 -108c30 0 63 10 105 33v-34c-40 -21 -74 -31 -108 -31c-80 0 -129 56 -129 140v250c0 72 49 120 122 120c72 0 121 -48 121 -120v-145zM86 254
l175 14v117c0 53 -35 88 -87 88c-53 0 -88 -35 -88 -88v-131z" />
    <glyph glyph-name="egrave" unicode="&#xe8;" horiz-adv-x="337" 
d="M140 683l55 -125h-26l-64 125h35zM86 223v-88c0 -65 37 -108 98 -108c30 0 63 10 105 33v-34c-40 -21 -74 -31 -108 -31c-80 0 -129 56 -129 140v250c0 72 49 120 122 120c72 0 121 -48 121 -120v-145zM86 254l175 14v117c0 53 -35 88 -87 88c-53 0 -88 -35 -88 -88v-131
z" />
    <glyph glyph-name="emacron" unicode="&#x113;" horiz-adv-x="337" 
d="M96 582v29h155v-29h-155zM86 223v-88c0 -65 37 -108 98 -108c30 0 63 10 105 33v-34c-40 -21 -74 -31 -108 -31c-80 0 -129 56 -129 140v250c0 72 49 120 122 120c72 0 121 -48 121 -120v-145zM86 254l175 14v117c0 53 -35 88 -87 88c-53 0 -88 -35 -88 -88v-131z" />
    <glyph glyph-name="eogonek" unicode="&#x119;" horiz-adv-x="337" 
d="M254 -108v-27c-13 -7 -30 -11 -46 -11c-36 0 -60 22 -60 55c0 36 26 70 41 86c-88 0 -137 52 -137 140v250c0 72 49 120 122 120c72 0 121 -48 121 -120v-145l-209 -17v-88c0 -65 37 -108 98 -108c30 0 63 10 105 33v-34c-24 -13 -46 -22 -67 -26
c-13 -14 -47 -56 -47 -86c0 -20 16 -32 39 -32c13 0 28 4 40 10zM86 254l175 14v117c0 53 -35 88 -87 88c-53 0 -88 -35 -88 -88v-131z" />
    <glyph glyph-name="f" unicode="f" horiz-adv-x="220" 
d="M169 750h38v-32h-38c-50 0 -83 -35 -83 -88v-130h121v-32h-121v-468h-34v630c0 72 47 120 117 120z" />
    <glyph glyph-name="g" unicode="g" horiz-adv-x="360" 
d="M52 115v270c0 72 45 120 113 120c43 0 77 -19 96 -52v47h34v-615c0 -72 -48 -120 -119 -120c-73 0 -120 48 -120 120v19h34v-19c0 -53 34 -88 86 -88c51 0 85 35 85 88v162c-19 -33 -53 -52 -96 -52c-68 0 -113 48 -113 120zM86 115c0 -53 35 -88 88 -88
c52 0 87 35 87 88v270c0 53 -35 88 -87 88c-53 0 -88 -35 -88 -88v-270z" />
    <glyph glyph-name="gbreve" unicode="&#x11f;" horiz-adv-x="360" 
d="M98 639h28c0 -35 19 -58 47 -58c29 0 47 23 47 58h29c0 -51 -31 -85 -76 -85s-75 34 -75 85zM52 115v270c0 72 45 120 113 120c43 0 77 -19 96 -52v47h34v-615c0 -72 -48 -120 -119 -120c-73 0 -120 48 -120 120v19h34v-19c0 -53 34 -88 86 -88c51 0 85 35 85 88v162
c-19 -33 -53 -52 -96 -52c-68 0 -113 48 -113 120zM86 115c0 -53 35 -88 88 -88c52 0 87 35 87 88v270c0 53 -35 88 -87 88c-53 0 -88 -35 -88 -88v-270z" />
    <glyph glyph-name="gcircumflex" unicode="&#x11d;" horiz-adv-x="360" 
d="M118 553h-25l66 127h28l66 -127h-25l-55 97zM52 115v270c0 72 45 120 113 120c43 0 77 -19 96 -52v47h34v-615c0 -72 -48 -120 -119 -120c-73 0 -120 48 -120 120v19h34v-19c0 -53 34 -88 86 -88c51 0 85 35 85 88v162c-19 -33 -53 -52 -96 -52c-68 0 -113 48 -113 120z
M86 115c0 -53 35 -88 88 -88c52 0 87 35 87 88v270c0 53 -35 88 -87 88c-53 0 -88 -35 -88 -88v-270z" />
    <glyph glyph-name="uni0123" unicode="&#x123;" horiz-adv-x="360" 
d="M238 746l-64 -190l-34 12l74 186zM52 115v270c0 72 45 120 113 120c43 0 77 -19 96 -52v47h34v-615c0 -72 -48 -120 -119 -120c-73 0 -120 48 -120 120v19h34v-19c0 -53 34 -88 86 -88c51 0 85 35 85 88v162c-19 -33 -53 -52 -96 -52c-68 0 -113 48 -113 120zM86 115
c0 -53 35 -88 88 -88c52 0 87 35 87 88v270c0 53 -35 88 -87 88c-53 0 -88 -35 -88 -88v-270z" />
    <glyph glyph-name="gdotaccent" unicode="&#x121;" horiz-adv-x="360" 
d="M140 602c0 18 15 34 34 34c18 0 34 -16 34 -34c0 -19 -16 -34 -34 -34c-19 0 -34 15 -34 34zM52 115v270c0 72 45 120 113 120c43 0 77 -19 96 -52v47h34v-615c0 -72 -48 -120 -119 -120c-73 0 -120 48 -120 120v19h34v-19c0 -53 34 -88 86 -88c51 0 85 35 85 88v162
c-19 -33 -53 -52 -96 -52c-68 0 -113 48 -113 120zM86 115c0 -53 35 -88 88 -88c52 0 87 35 87 88v270c0 53 -35 88 -87 88c-53 0 -88 -35 -88 -88v-270z" />
    <glyph glyph-name="h" unicode="h" horiz-adv-x="373" 
d="M308 0h-34v385c0 53 -35 88 -87 88c-53 0 -87 -35 -87 -88v-385h-34v750h34v-297c18 33 52 52 95 52c68 0 113 -48 113 -120v-385z" />
    <glyph glyph-name="hbar" unicode="&#x127;" horiz-adv-x="374" 
d="M309 0h-34v385c0 53 -35 88 -87 88c-53 0 -88 -35 -88 -88v-385h-33v608h-62v31h62v111h33v-111h147v-31h-147v-155c19 33 53 52 96 52c68 0 113 -48 113 -120v-385z" />
    <glyph glyph-name="hcircumflex" unicode="&#x125;" horiz-adv-x="373" 
d="M27 764h-25l66 127h28l66 -127h-25l-55 97zM308 0h-34v385c0 53 -35 88 -87 88c-53 0 -87 -35 -87 -88v-385h-34v750h34v-297c18 33 52 52 95 52c68 0 113 -48 113 -120v-385z" />
    <glyph glyph-name="i" unicode="i" horiz-adv-x="165" 
d="M51 621c0 18 14 32 32 32c17 0 32 -14 32 -32s-15 -32 -32 -32c-18 0 -32 14 -32 32zM66 0v500h34v-500h-34z" />
    <glyph glyph-name="iacute" unicode="&#xed;" horiz-adv-x="165" 
d="M88 558h-26l55 125h35zM66 0v500h34v-500h-34z" />
    <glyph glyph-name="ibreve" unicode="&#x12d;" horiz-adv-x="165" 
d="M7 639h28c0 -35 19 -58 47 -58c29 0 47 23 47 58h29c0 -51 -31 -85 -76 -85s-75 34 -75 85zM66 0v500h34v-500h-34z" />
    <glyph glyph-name="icircumflex" unicode="&#xee;" horiz-adv-x="165" 
d="M27 553h-25l66 127h28l66 -127h-25l-55 97zM66 0v500h34v-500h-34z" />
    <glyph glyph-name="idieresis" unicode="&#xef;" horiz-adv-x="165" 
d="M3 601c0 15 12 28 28 28s28 -13 28 -28c0 -16 -12 -29 -28 -29s-28 13 -28 29zM106 601c0 15 12 28 29 28c15 0 27 -13 27 -28c0 -16 -12 -29 -27 -29c-17 0 -29 13 -29 29zM66 0v500h34v-500h-34z" />
    <glyph glyph-name="igrave" unicode="&#xec;" horiz-adv-x="165" 
d="M50 683l55 -125h-26l-64 125h35zM66 0v500h34v-500h-34z" />
    <glyph glyph-name="imacron" unicode="&#x12b;" horiz-adv-x="165" 
d="M5 582v29h155v-29h-155zM66 0v500h34v-500h-34z" />
    <glyph glyph-name="iogonek" unicode="&#x12f;" horiz-adv-x="165" 
d="M51 621c0 18 14 32 32 32c17 0 32 -14 32 -32s-15 -32 -32 -32c-18 0 -32 14 -32 32zM66 0v500h34v-500h-3s-51 -54 -51 -91c0 -20 16 -32 39 -32c13 0 28 4 40 10v-27c-13 -7 -30 -11 -46 -11c-36 0 -60 22 -60 55c0 50 50 96 50 96h-3z" />
    <glyph glyph-name="itilde" unicode="&#x129;" horiz-adv-x="165" 
d="M-9 567c0 40 20 65 50 65c36 0 47 -40 71 -40c16 0 26 15 26 37h28c0 -39 -20 -65 -51 -65c-35 0 -47 40 -72 40c-15 0 -24 -15 -24 -37h-28zM66 0v500h34v-500h-34z" />
    <glyph glyph-name="ij" unicode="&#x133;" horiz-adv-x="330" 
d="M51 621c0 18 14 32 32 32c17 0 32 -14 32 -32s-15 -32 -32 -32c-18 0 -32 14 -32 32zM216 621c0 18 14 32 32 32c17 0 32 -14 32 -32s-15 -32 -32 -32c-18 0 -32 14 -32 32zM66 0v500h34v-500h-34zM156 -230h-26v32h26c45 0 75 32 75 80v618h34v-618
c0 -67 -44 -112 -109 -112z" />
    <glyph glyph-name="dotlessi" unicode="&#x131;" horiz-adv-x="165" 
d="M66 0v500h34v-500h-34z" />
    <glyph glyph-name="j" unicode="j" horiz-adv-x="165" 
d="M51 621c0 18 14 32 32 32c17 0 32 -14 32 -32s-15 -32 -32 -32c-18 0 -32 14 -32 32zM-9 -230h-26v32h26c45 0 75 32 75 80v618h34v-618c0 -67 -44 -112 -109 -112z" />
    <glyph glyph-name="jcircumflex" unicode="&#x135;" horiz-adv-x="165" 
d="M27 528h-25l66 127h28l66 -127h-25l-55 97zM-9 -230h-26v32h26c45 0 75 32 75 80v618h34v-618c0 -67 -44 -112 -109 -112z" />
    <glyph glyph-name="uni0237" unicode="&#x237;" horiz-adv-x="165" 
d="M-9 -230h-26v32h26c45 0 75 32 75 80v618h34v-618c0 -67 -44 -112 -109 -112z" />
    <glyph glyph-name="jacute" horiz-adv-x="165" 
d="M88 533h-26l55 125h35zM-9 -230h-26v32h26c45 0 75 32 75 80v618h34v-618c0 -67 -44 -112 -109 -112z" />
    <glyph glyph-name="k" unicode="k" horiz-adv-x="321" 
d="M66 0v750h34v-485l147 235h39l-154 -242l172 -258h-39l-165 251v-251h-34z" />
    <glyph glyph-name="uni0137" unicode="&#x137;" horiz-adv-x="321" 
d="M66 0v750h34v-485l147 235h39l-154 -242l172 -258h-39l-165 251v-251h-34zM117 -190l47 143l30 -10l-55 -140z" />
    <glyph glyph-name="l" unicode="l" horiz-adv-x="165" 
d="M66 0v750h34v-750h-34z" />
    <glyph glyph-name="lacute" unicode="&#x13a;" horiz-adv-x="165" 
d="M88 768h-26l55 125h35zM66 0v750h34v-750h-34z" />
    <glyph glyph-name="lcaron" unicode="&#x13e;" horiz-adv-x="238" 
d="M66 0v750h34v-750h-34zM187 547v203h33l-8 -203h-25z" />
    <glyph glyph-name="uni013C" unicode="&#x13c;" horiz-adv-x="165" 
d="M66 0v750h34v-750h-34zM24 -190l47 143l30 -10l-55 -140z" />
    <glyph glyph-name="ldot" unicode="&#x140;" horiz-adv-x="287" 
d="M66 0v750h34v-750h-34zM186 353c0 20 16 36 36 36s36 -16 36 -36c0 -21 -16 -37 -36 -37s-36 16 -36 37z" />
    <glyph glyph-name="lslash" unicode="&#x142;" horiz-adv-x="223" 
d="M95 0v346l-69 -48l-18 25l87 60v367h34v-343l68 48l18 -25l-86 -60v-370h-34z" />
    <glyph glyph-name="m" unicode="m" horiz-adv-x="573" 
d="M304 0h-34v385c0 53 -34 88 -85 88s-85 -35 -85 -88v-385h-34v500h34v-47c18 33 51 52 94 52c46 0 81 -24 98 -63c18 39 55 63 103 63c67 0 113 -48 113 -120v-385h-34v385c0 53 -34 88 -85 88s-85 -35 -85 -88v-385z" />
    <glyph glyph-name="n" unicode="n" horiz-adv-x="373" 
d="M308 0h-34v385c0 53 -35 88 -87 88c-53 0 -87 -35 -87 -88v-385h-34v500h34v-47c18 33 52 52 95 52c68 0 113 -48 113 -120v-385z" />
    <glyph glyph-name="nacute" unicode="&#x144;" horiz-adv-x="373" 
d="M192 558h-26l55 125h35zM308 0h-34v385c0 53 -35 88 -87 88c-53 0 -87 -35 -87 -88v-385h-34v500h34v-47c18 33 52 52 95 52c68 0 113 -48 113 -120v-385z" />
    <glyph glyph-name="ncaron" unicode="&#x148;" horiz-adv-x="373" 
d="M173 553l-66 127h25l55 -97l55 97h25l-66 -127h-28zM308 0h-34v385c0 53 -35 88 -87 88c-53 0 -87 -35 -87 -88v-385h-34v500h34v-47c18 33 52 52 95 52c68 0 113 -48 113 -120v-385z" />
    <glyph glyph-name="uni0146" unicode="&#x146;" horiz-adv-x="373" 
d="M308 0h-34v385c0 53 -35 88 -87 88c-53 0 -87 -35 -87 -88v-385h-34v500h34v-47c18 33 52 52 95 52c68 0 113 -48 113 -120v-385zM129 -190l47 143l30 -10l-55 -140z" />
    <glyph glyph-name="ntilde" unicode="&#xf1;" horiz-adv-x="373" 
d="M95 567c0 40 20 65 50 65c36 0 47 -40 71 -40c16 0 26 15 26 37h28c0 -39 -20 -65 -51 -65c-35 0 -47 40 -72 40c-15 0 -24 -15 -24 -37h-28zM308 0h-34v385c0 53 -35 88 -87 88c-53 0 -87 -35 -87 -88v-385h-34v500h34v-47c18 33 52 52 95 52c68 0 113 -48 113 -120
v-385z" />
    <glyph glyph-name="eng" unicode="&#x14b;" horiz-adv-x="373" 
d="M100 500v-47c18 33 52 52 95 52c68 0 113 -48 113 -120v-503c0 -67 -43 -112 -109 -112h-26v32h26c45 0 75 32 75 80v503c0 53 -35 88 -87 88c-53 0 -87 -35 -87 -88v-385h-34v500h34z" />
    <glyph glyph-name="o" unicode="o" horiz-adv-x="347" 
d="M52 385c0 72 49 120 122 120c72 0 121 -48 121 -120v-270c0 -72 -49 -120 -121 -120c-73 0 -122 48 -122 120v270zM86 385v-270c0 -53 35 -88 88 -88c52 0 87 35 87 88v270c0 53 -35 88 -87 88c-53 0 -88 -35 -88 -88z" />
    <glyph glyph-name="oacute" unicode="&#xf3;" horiz-adv-x="347" 
d="M178 558h-26l55 125h35zM52 385c0 72 49 120 122 120c72 0 121 -48 121 -120v-270c0 -72 -49 -120 -121 -120c-73 0 -122 48 -122 120v270zM86 385v-270c0 -53 35 -88 88 -88c52 0 87 35 87 88v270c0 53 -35 88 -87 88c-53 0 -88 -35 -88 -88z" />
    <glyph glyph-name="obreve" unicode="&#x14f;" horiz-adv-x="347" 
d="M98 639h28c0 -35 19 -58 47 -58c29 0 47 23 47 58h29c0 -51 -31 -85 -76 -85s-75 34 -75 85zM52 385c0 72 49 120 122 120c72 0 121 -48 121 -120v-270c0 -72 -49 -120 -121 -120c-73 0 -122 48 -122 120v270zM86 385v-270c0 -53 35 -88 88 -88c52 0 87 35 87 88v270
c0 53 -35 88 -87 88c-53 0 -88 -35 -88 -88z" />
    <glyph glyph-name="ocircumflex" unicode="&#xf4;" horiz-adv-x="347" 
d="M118 553h-25l66 127h28l66 -127h-25l-55 97zM52 385c0 72 49 120 122 120c72 0 121 -48 121 -120v-270c0 -72 -49 -120 -121 -120c-73 0 -122 48 -122 120v270zM86 385v-270c0 -53 35 -88 88 -88c52 0 87 35 87 88v270c0 53 -35 88 -87 88c-53 0 -88 -35 -88 -88z" />
    <glyph glyph-name="odieresis" unicode="&#xf6;" horiz-adv-x="347" 
d="M90 601c0 16 12 29 29 29c15 0 28 -13 28 -29s-13 -28 -28 -28c-17 0 -29 12 -29 28zM200 601c0 16 12 29 28 29s28 -13 28 -29s-12 -28 -28 -28s-28 12 -28 28zM52 385c0 72 49 120 122 120c72 0 121 -48 121 -120v-270c0 -72 -49 -120 -121 -120
c-73 0 -122 48 -122 120v270zM86 385v-270c0 -53 35 -88 88 -88c52 0 87 35 87 88v270c0 53 -35 88 -87 88c-53 0 -88 -35 -88 -88z" />
    <glyph glyph-name="ograve" unicode="&#xf2;" horiz-adv-x="347" 
d="M140 683l55 -125h-26l-64 125h35zM52 385c0 72 49 120 122 120c72 0 121 -48 121 -120v-270c0 -72 -49 -120 -121 -120c-73 0 -122 48 -122 120v270zM86 385v-270c0 -53 35 -88 88 -88c52 0 87 35 87 88v270c0 53 -35 88 -87 88c-53 0 -88 -35 -88 -88z" />
    <glyph glyph-name="ohungarumlaut" unicode="&#x151;" horiz-adv-x="347" 
d="M137 558h-24l54 125h33zM223 558h-24l54 125h33zM52 385c0 72 49 120 122 120c72 0 121 -48 121 -120v-270c0 -72 -49 -120 -121 -120c-73 0 -122 48 -122 120v270zM86 385v-270c0 -53 35 -88 88 -88c52 0 87 35 87 88v270c0 53 -35 88 -87 88c-53 0 -88 -35 -88 -88z
" />
    <glyph glyph-name="omacron" unicode="&#x14d;" horiz-adv-x="347" 
d="M96 582v29h155v-29h-155zM52 385c0 72 49 120 122 120c72 0 121 -48 121 -120v-270c0 -72 -49 -120 -121 -120c-73 0 -122 48 -122 120v270zM86 385v-270c0 -53 35 -88 88 -88c52 0 87 35 87 88v270c0 53 -35 88 -87 88c-53 0 -88 -35 -88 -88z" />
    <glyph glyph-name="oslash" unicode="&#xf8;" horiz-adv-x="347" 
d="M52 385c0 72 49 120 122 120c28 0 53 -8 73 -21l10 26h23l-15 -42c19 -21 30 -49 30 -83v-270c0 -72 -49 -120 -121 -120c-29 0 -54 8 -74 21l-10 -26h-23l15 42c-19 21 -30 49 -30 83v270zM86 385v-270c0 -17 4 -32 10 -44l139 379c-15 15 -36 23 -61 23
c-53 0 -88 -35 -88 -88zM251 429l-139 -379c15 -15 36 -23 62 -23c52 0 87 35 87 88v270c0 17 -4 32 -10 44z" />
    <glyph glyph-name="oslashacute" unicode="&#x1ff;" horiz-adv-x="347" 
d="M179 556h-26l55 125h35zM52 385c0 72 49 120 122 120c28 0 53 -8 73 -21l10 26h23l-15 -42c19 -21 30 -49 30 -83v-270c0 -72 -49 -120 -121 -120c-29 0 -54 8 -74 21l-10 -26h-23l15 42c-19 21 -30 49 -30 83v270zM86 385v-270c0 -17 4 -32 10 -44l139 379
c-15 15 -36 23 -61 23c-53 0 -88 -35 -88 -88zM251 429l-139 -379c15 -15 36 -23 62 -23c52 0 87 35 87 88v270c0 17 -4 32 -10 44z" />
    <glyph glyph-name="otilde" unicode="&#xf5;" horiz-adv-x="347" 
d="M81 567c0 40 20 65 50 65c36 0 47 -40 71 -40c16 0 26 15 26 37h28c0 -39 -20 -65 -51 -65c-35 0 -47 40 -72 40c-15 0 -24 -15 -24 -37h-28zM52 385c0 72 49 120 122 120c72 0 121 -48 121 -120v-270c0 -72 -49 -120 -121 -120c-73 0 -122 48 -122 120v270zM86 385v-270
c0 -53 35 -88 88 -88c52 0 87 35 87 88v270c0 53 -35 88 -87 88c-53 0 -88 -35 -88 -88z" />
    <glyph glyph-name="oe" unicode="&#x153;" horiz-adv-x="550" 
d="M52 385c0 72 47 120 118 120c52 0 91 -26 108 -69c17 43 56 69 108 69c70 0 117 -48 117 -120v-145l-208 -17v-88c0 -65 37 -108 97 -108c30 0 63 10 106 33v-34c-40 -21 -72 -31 -105 -31c-55 0 -95 28 -113 75c-16 -46 -56 -75 -110 -75c-71 0 -118 48 -118 120v270z
M86 385v-270c0 -53 35 -88 88 -88c52 0 87 35 87 88v270c0 53 -35 88 -87 88c-53 0 -88 -35 -88 -88zM295 254l174 14v117c0 53 -35 88 -87 88c-53 0 -87 -35 -87 -88v-131z" />
    <glyph glyph-name="p" unicode="p" horiz-adv-x="360" 
d="M308 115c0 -72 -45 -120 -113 -120c-43 0 -77 19 -95 52v-277h-34v730h34v-47c18 33 52 52 95 52c68 0 113 -48 113 -120v-270zM274 115v270c0 53 -35 88 -87 88c-53 0 -87 -35 -87 -88v-270c0 -53 34 -88 87 -88c52 0 87 35 87 88z" />
    <glyph glyph-name="q" unicode="q" horiz-adv-x="360" 
d="M52 115v270c0 72 45 120 113 120c43 0 77 -19 96 -52v47h34v-730h-34v277c-19 -33 -53 -52 -96 -52c-68 0 -113 48 -113 120zM86 115c0 -53 35 -88 88 -88c52 0 87 35 87 88v270c0 53 -35 88 -87 88c-53 0 -88 -35 -88 -88v-270z" />
    <glyph glyph-name="r" unicode="r" horiz-adv-x="256" 
d="M194 500h34v-32h-42c-53 0 -86 -35 -86 -88v-380h-34v500h34v-51c18 32 51 51 94 51z" />
    <glyph glyph-name="racute" unicode="&#x155;" horiz-adv-x="256" 
d="M152 558h-26l55 125h35zM194 500h34v-32h-42c-53 0 -86 -35 -86 -88v-380h-34v500h34v-51c18 32 51 51 94 51z" />
    <glyph glyph-name="rcaron" unicode="&#x159;" horiz-adv-x="256" 
d="M133 553l-66 127h25l55 -97l55 97h25l-66 -127h-28zM194 500h34v-32h-42c-53 0 -86 -35 -86 -88v-380h-34v500h34v-51c18 32 51 51 94 51z" />
    <glyph glyph-name="uni0157" unicode="&#x157;" horiz-adv-x="256" 
d="M194 500h34v-32h-42c-53 0 -86 -35 -86 -88v-380h-34v500h34v-51c18 32 51 51 94 51zM30 -190l47 143l30 -10l-55 -140z" />
    <glyph glyph-name="s" unicode="s" horiz-adv-x="317" 
d="M240 357v28c0 53 -32 88 -80 88c-49 0 -81 -35 -81 -92c0 -60 44 -85 91 -112c53 -31 110 -63 110 -150c0 -77 -47 -124 -119 -124s-119 48 -119 120v28h33v-28c0 -53 34 -88 86 -88s86 35 86 92c0 66 -48 94 -96 122c-53 30 -106 61 -106 140c0 77 46 124 115 124
s114 -48 114 -120v-28h-34z" />
    <glyph glyph-name="sacute" unicode="&#x15b;" horiz-adv-x="317" 
d="M165 558h-26l55 125h35zM240 357v28c0 53 -32 88 -80 88c-49 0 -81 -35 -81 -92c0 -60 44 -85 91 -112c53 -31 110 -63 110 -150c0 -77 -47 -124 -119 -124s-119 48 -119 120v28h33v-28c0 -53 34 -88 86 -88s86 35 86 92c0 66 -48 94 -96 122c-53 30 -106 61 -106 140
c0 77 46 124 115 124s114 -48 114 -120v-28h-34z" />
    <glyph glyph-name="scaron" unicode="&#x161;" horiz-adv-x="317" 
d="M146 553l-66 127h25l55 -97l55 97h25l-66 -127h-28zM240 357v28c0 53 -32 88 -80 88c-49 0 -81 -35 -81 -92c0 -60 44 -85 91 -112c53 -31 110 -63 110 -150c0 -77 -47 -124 -119 -124s-119 48 -119 120v28h33v-28c0 -53 34 -88 86 -88s86 35 86 92c0 66 -48 94 -96 122
c-53 30 -106 61 -106 140c0 77 46 124 115 124s114 -48 114 -120v-28h-34z" />
    <glyph glyph-name="scedilla" unicode="&#x15f;" horiz-adv-x="317" 
d="M240 357v28c0 53 -32 88 -80 88c-49 0 -81 -35 -81 -92c0 -60 44 -85 91 -112c53 -31 110 -63 110 -150c0 -77 -47 -124 -119 -124s-119 48 -119 120v28h33v-28c0 -53 34 -88 86 -88s86 35 86 92c0 66 -48 94 -96 122c-53 30 -106 61 -106 140c0 77 46 124 115 124
s114 -48 114 -120v-28h-34zM103 -191l47 143h33l-55 -143h-25z" />
    <glyph glyph-name="scircumflex" unicode="&#x15d;" horiz-adv-x="317" 
d="M105 553h-25l66 127h28l66 -127h-25l-55 97zM240 357v28c0 53 -32 88 -80 88c-49 0 -81 -35 -81 -92c0 -60 44 -85 91 -112c53 -31 110 -63 110 -150c0 -77 -47 -124 -119 -124s-119 48 -119 120v28h33v-28c0 -53 34 -88 86 -88s86 35 86 92c0 66 -48 94 -96 122
c-53 30 -106 61 -106 140c0 77 46 124 115 124s114 -48 114 -120v-28h-34z" />
    <glyph glyph-name="uni0219" unicode="&#x219;" horiz-adv-x="317" 
d="M240 357v28c0 53 -32 88 -80 88c-49 0 -81 -35 -81 -92c0 -60 44 -85 91 -112c53 -31 110 -63 110 -150c0 -77 -47 -124 -119 -124s-119 48 -119 120v28h33v-28c0 -53 34 -88 86 -88s86 35 86 92c0 66 -48 94 -96 122c-53 30 -106 61 -106 140c0 77 46 124 115 124
s114 -48 114 -120v-28h-34zM103 -190l47 143l30 -10l-55 -140z" />
    <glyph glyph-name="t" unicode="t" horiz-adv-x="262" 
d="M66 598h34v-98h122v-32h-122v-364c0 -46 22 -77 57 -77c19 0 44 9 76 29v-35c-32 -18 -61 -26 -83 -26c-51 0 -84 44 -84 109v494z" />
    <glyph glyph-name="tbar" unicode="&#x167;" horiz-adv-x="262" 
d="M66 598h34v-98h122v-32h-122l-1 -148h117v-30h-116v-186c0 -46 22 -77 57 -77c19 0 44 9 76 29v-35c-32 -18 -61 -26 -83 -26c-51 0 -84 44 -84 109v494z" />
    <glyph glyph-name="tcaron" unicode="&#x165;" horiz-adv-x="262" 
d="M159 575l46 140l29 -10l-54 -137zM66 598h34v-98h122v-32h-122v-364c0 -46 22 -77 57 -77c19 0 44 9 76 29v-35c-32 -18 -61 -26 -83 -26c-51 0 -84 44 -84 109v494z" />
    <glyph glyph-name="uni0163" unicode="&#x163;" horiz-adv-x="262" 
d="M66 598h34v-98h122v-32h-122v-364c0 -46 22 -77 57 -77c19 0 44 9 76 29v-35c-32 -18 -61 -26 -83 -26c-51 0 -84 44 -84 109v494zM84 -190l47 143l30 -10l-55 -140z" />
    <glyph glyph-name="uni021B" unicode="&#x21b;" horiz-adv-x="262" 
d="M66 598h34v-98h122v-32h-122v-364c0 -46 22 -77 57 -77c19 0 44 9 76 29v-35c-32 -18 -61 -26 -83 -26c-51 0 -84 44 -84 109v494zM84 -190l47 143l30 -10l-55 -140z" />
    <glyph glyph-name="u" unicode="u" horiz-adv-x="373" 
d="M66 500h34v-385c0 -53 34 -88 87 -88c52 0 87 35 87 88v385h34v-500h-34v47c-19 -33 -53 -52 -96 -52c-67 0 -112 48 -112 120v385z" />
    <glyph glyph-name="uacute" unicode="&#xfa;" horiz-adv-x="373" 
d="M192 558h-26l55 125h35zM66 500h34v-385c0 -53 34 -88 87 -88c52 0 87 35 87 88v385h34v-500h-34v47c-19 -33 -53 -52 -96 -52c-67 0 -112 48 -112 120v385z" />
    <glyph glyph-name="ubreve" unicode="&#x16d;" horiz-adv-x="373" 
d="M111 639h28c0 -35 19 -58 47 -58c29 0 47 23 47 58h29c0 -51 -31 -85 -76 -85s-75 34 -75 85zM66 500h34v-385c0 -53 34 -88 87 -88c52 0 87 35 87 88v385h34v-500h-34v47c-19 -33 -53 -52 -96 -52c-67 0 -112 48 -112 120v385z" />
    <glyph glyph-name="ucircumflex" unicode="&#xfb;" horiz-adv-x="373" 
d="M132 553h-25l66 127h28l66 -127h-25l-55 97zM66 500h34v-385c0 -53 34 -88 87 -88c52 0 87 35 87 88v385h34v-500h-34v47c-19 -33 -53 -52 -96 -52c-67 0 -112 48 -112 120v385z" />
    <glyph glyph-name="udieresis" unicode="&#xfc;" horiz-adv-x="373" 
d="M104 601c0 16 12 29 29 29c15 0 28 -13 28 -29s-13 -28 -28 -28c-17 0 -29 12 -29 28zM214 601c0 16 12 29 28 29s28 -13 28 -29s-12 -28 -28 -28s-28 12 -28 28zM66 500h34v-385c0 -53 34 -88 87 -88c52 0 87 35 87 88v385h34v-500h-34v47c-19 -33 -53 -52 -96 -52
c-67 0 -112 48 -112 120v385z" />
    <glyph glyph-name="ugrave" unicode="&#xf9;" horiz-adv-x="373" 
d="M154 683l55 -125h-26l-64 125h35zM66 500h34v-385c0 -53 34 -88 87 -88c52 0 87 35 87 88v385h34v-500h-34v47c-19 -33 -53 -52 -96 -52c-67 0 -112 48 -112 120v385z" />
    <glyph glyph-name="uhungarumlaut" unicode="&#x171;" horiz-adv-x="373" 
d="M151 558h-24l54 125h33zM237 558h-24l54 125h33zM66 500h34v-385c0 -53 34 -88 87 -88c52 0 87 35 87 88v385h34v-500h-34v47c-19 -33 -53 -52 -96 -52c-67 0 -112 48 -112 120v385z" />
    <glyph glyph-name="umacron" unicode="&#x16b;" horiz-adv-x="373" 
d="M109 582v29h155v-29h-155zM66 500h34v-385c0 -53 34 -88 87 -88c52 0 87 35 87 88v385h34v-500h-34v47c-19 -33 -53 -52 -96 -52c-67 0 -112 48 -112 120v385z" />
    <glyph glyph-name="uogonek" unicode="&#x173;" horiz-adv-x="373" 
d="M66 500h34v-385c0 -53 34 -88 87 -88c52 0 87 35 87 88v385h34v-500h-4s-51 -54 -51 -91c0 -20 16 -32 39 -32c13 0 28 4 40 10v-27c-13 -7 -30 -11 -46 -11c-36 0 -60 22 -60 55c0 50 50 96 50 96h-2v47c-19 -33 -53 -52 -96 -52c-67 0 -112 48 -112 120v385z" />
    <glyph glyph-name="uring" unicode="&#x16f;" horiz-adv-x="373" 
d="M125 611c0 35 26 61 61 61s62 -26 62 -61c0 -36 -27 -62 -62 -62s-61 26 -61 62zM151 611c0 -21 14 -36 35 -36c22 0 36 15 36 36s-14 36 -36 36c-21 0 -35 -15 -35 -36zM66 500h34v-385c0 -53 34 -88 87 -88c52 0 87 35 87 88v385h34v-500h-34v47
c-19 -33 -53 -52 -96 -52c-67 0 -112 48 -112 120v385z" />
    <glyph glyph-name="utilde" unicode="&#x169;" horiz-adv-x="373" 
d="M95 567c0 40 20 65 50 65c36 0 47 -40 71 -40c16 0 26 15 26 37h28c0 -39 -20 -65 -51 -65c-35 0 -47 40 -72 40c-15 0 -24 -15 -24 -37h-28zM66 500h34v-385c0 -53 34 -88 87 -88c52 0 87 35 87 88v385h34v-500h-34v47c-19 -33 -53 -52 -96 -52c-67 0 -112 48 -112 120
v385z" />
    <glyph glyph-name="v" unicode="v" horiz-adv-x="318" 
d="M172 0h-26l-124 500h35l102 -428l102 428h36z" />
    <glyph glyph-name="w" unicode="w" horiz-adv-x="458" 
d="M146 0h-26l-98 500h34l77 -431l81 431h31l80 -431l79 431h33l-99 -500h-25l-84 426z" />
    <glyph glyph-name="wacute" unicode="&#x1e83;" horiz-adv-x="458" 
d="M234 558h-26l55 125h35zM146 0h-26l-98 500h34l77 -431l81 431h31l80 -431l79 431h33l-99 -500h-25l-84 426z" />
    <glyph glyph-name="wcircumflex" unicode="&#x175;" horiz-adv-x="458" 
d="M174 553h-25l66 127h28l66 -127h-25l-55 97zM146 0h-26l-98 500h34l77 -431l81 431h31l80 -431l79 431h33l-99 -500h-25l-84 426z" />
    <glyph glyph-name="wdieresis" unicode="&#x1e85;" horiz-adv-x="458" 
d="M146 601c0 16 12 29 29 29c15 0 28 -13 28 -29s-13 -28 -28 -28c-17 0 -29 12 -29 28zM256 601c0 16 12 29 28 29s28 -13 28 -29s-12 -28 -28 -28s-28 12 -28 28zM146 0h-26l-98 500h34l77 -431l81 431h31l80 -431l79 431h33l-99 -500h-25l-84 426z" />
    <glyph glyph-name="wgrave" unicode="&#x1e81;" horiz-adv-x="458" 
d="M196 683l55 -125h-26l-64 125h35zM146 0h-26l-98 500h34l77 -431l81 431h31l80 -431l79 431h33l-99 -500h-25l-84 426z" />
    <glyph glyph-name="x" unicode="x" horiz-adv-x="329" 
d="M31 0l115 260l-106 240h37l88 -201l87 201h38l-107 -240l116 -260h-37l-97 221l-97 -221h-37z" />
    <glyph glyph-name="y" unicode="y" horiz-adv-x="373" 
d="M66 115v385h34v-385c0 -53 34 -88 87 -88c52 0 87 35 87 88v385h34v-615c0 -72 -48 -120 -119 -120c-73 0 -120 48 -120 120v19h34v-19c0 -53 34 -88 86 -88c51 0 85 35 85 88v162c-19 -33 -53 -52 -96 -52c-67 0 -112 48 -112 120z" />
    <glyph glyph-name="yacute" unicode="&#xfd;" horiz-adv-x="373" 
d="M192 558h-26l55 125h35zM66 115v385h34v-385c0 -53 34 -88 87 -88c52 0 87 35 87 88v385h34v-615c0 -72 -48 -120 -119 -120c-73 0 -120 48 -120 120v19h34v-19c0 -53 34 -88 86 -88c51 0 85 35 85 88v162c-19 -33 -53 -52 -96 -52c-67 0 -112 48 -112 120z" />
    <glyph glyph-name="ycircumflex" unicode="&#x177;" horiz-adv-x="373" 
d="M132 553h-25l66 127h28l66 -127h-25l-55 97zM66 115v385h34v-385c0 -53 34 -88 87 -88c52 0 87 35 87 88v385h34v-615c0 -72 -48 -120 -119 -120c-73 0 -120 48 -120 120v19h34v-19c0 -53 34 -88 86 -88c51 0 85 35 85 88v162c-19 -33 -53 -52 -96 -52
c-67 0 -112 48 -112 120z" />
    <glyph glyph-name="ydieresis" unicode="&#xff;" horiz-adv-x="373" 
d="M104 601c0 16 12 29 29 29c15 0 28 -13 28 -29s-13 -28 -28 -28c-17 0 -29 12 -29 28zM214 601c0 16 12 29 28 29s28 -13 28 -29s-12 -28 -28 -28s-28 12 -28 28zM66 115v385h34v-385c0 -53 34 -88 87 -88c52 0 87 35 87 88v385h34v-615c0 -72 -48 -120 -119 -120
c-73 0 -120 48 -120 120v19h34v-19c0 -53 34 -88 86 -88c51 0 85 35 85 88v162c-19 -33 -53 -52 -96 -52c-67 0 -112 48 -112 120z" />
    <glyph glyph-name="ygrave" unicode="&#x1ef3;" horiz-adv-x="373" 
d="M154 683l55 -125h-26l-64 125h35zM66 115v385h34v-385c0 -53 34 -88 87 -88c52 0 87 35 87 88v385h34v-615c0 -72 -48 -120 -119 -120c-73 0 -120 48 -120 120v19h34v-19c0 -53 34 -88 86 -88c51 0 85 35 85 88v162c-19 -33 -53 -52 -96 -52c-67 0 -112 48 -112 120z" />
    <glyph glyph-name="z" unicode="z" horiz-adv-x="279" 
d="M44 468v32h202v-32l-168 -436h162v-32h-198v32l168 436h-166z" />
    <glyph glyph-name="zacute" unicode="&#x17a;" horiz-adv-x="279" 
d="M149 558h-26l55 125h35zM44 468v32h202v-32l-168 -436h162v-32h-198v32l168 436h-166z" />
    <glyph glyph-name="zcaron" unicode="&#x17e;" horiz-adv-x="279" 
d="M130 553l-66 127h25l55 -97l55 97h25l-66 -127h-28zM44 468v32h202v-32l-168 -436h162v-32h-198v32l168 436h-166z" />
    <glyph glyph-name="zdotaccent" unicode="&#x17c;" horiz-adv-x="279" 
d="M110 602c0 18 15 34 34 34c18 0 34 -16 34 -34c0 -19 -16 -34 -34 -34c-19 0 -34 15 -34 34zM44 468v32h202v-32l-168 -436h162v-32h-198v32l168 436h-166z" />
    <glyph glyph-name="germandbls" unicode="&#xdf;" horiz-adv-x="347" 
d="M169 755c69 0 116 -48 116 -120v-124c0 -45 -20 -81 -53 -100c45 -16 72 -56 72 -108v-186c0 -70 -51 -117 -127 -117h-27v32h27c55 0 93 35 93 88v184c0 52 -36 87 -90 87h-39v31h24c52 0 86 35 86 87v127c0 53 -34 88 -83 88s-82 -35 -82 -88v-636h-34v635
c0 72 47 120 117 120z" />
    <glyph glyph-name="uni01DD" unicode="&#x1dd;" horiz-adv-x="347" 
d="M52 246h209v139c0 53 -35 88 -87 88c-53 0 -88 -35 -88 -88v-52h-34v52c0 72 49 120 122 120c72 0 121 -48 121 -120v-270c0 -72 -49 -120 -121 -120c-73 0 -122 48 -122 120v131zM86 214v-99c0 -53 35 -88 88 -88c52 0 87 35 87 88v99h-175z" />
    <glyph glyph-name="uni0259" unicode="&#x259;" horiz-adv-x="347" 
d="M52 246h209v139c0 53 -35 88 -87 88c-53 0 -88 -35 -88 -88v-52h-34v52c0 72 49 120 122 120c72 0 121 -48 121 -120v-270c0 -72 -49 -120 -121 -120c-73 0 -122 48 -122 120v131zM86 214v-99c0 -53 35 -88 88 -88c52 0 87 35 87 88v99h-175z" />
    <glyph glyph-name="uni0410" unicode="&#x410;" horiz-adv-x="364" 
d="M195 700l143 -700h-35l-36 182h-170l-35 -182h-35l142 700h26zM104 213h156l-78 398z" />
    <glyph glyph-name="uni0411" unicode="&#x411;" horiz-adv-x="365" 
d="M71 0v700h219v-32h-185v-279h88c75 0 126 -48 126 -120v-149c0 -72 -51 -120 -126 -120h-122zM105 32h88c55 0 92 35 92 88v149c0 53 -37 88 -92 88h-88v-325z" />
    <glyph glyph-name="uni0412" unicode="&#x412;" horiz-adv-x="364" 
d="M71 0v700h106c76 0 126 -48 126 -120v-111c0 -49 -23 -87 -62 -106c49 -16 80 -58 80 -114v-129c0 -72 -50 -120 -126 -120h-124zM105 375h72c56 0 93 35 93 88v117c0 53 -37 88 -93 88h-72v-293zM105 32h90c55 0 92 35 92 88v135c0 53 -37 88 -92 88h-90v-311z" />
    <glyph glyph-name="uni0413" unicode="&#x413;" horiz-adv-x="293" 
d="M71 -1v701h199v-32h-165v-669h-34z" />
    <glyph glyph-name="uni0414" unicode="&#x414;" horiz-adv-x="394" 
d="M102 628v72h218v-668h51v-162h-35v130h-287v-130h-35v162h34c36 28 54 141 54 596zM88 32h198v636h-150v-40c0 -392 -15 -539 -48 -596z" />
    <glyph glyph-name="uni0415" unicode="&#x415;" horiz-adv-x="318" 
d="M71 0v700h209v-32h-175v-302h156v-32h-156v-302h175v-32h-209z" />
    <glyph glyph-name="uni0401" unicode="&#x401;" horiz-adv-x="318" 
d="M92 791c0 16 12 29 29 29c15 0 28 -13 28 -29s-13 -28 -28 -28c-17 0 -29 12 -29 28zM202 791c0 16 12 29 28 29s28 -13 28 -29s-12 -28 -28 -28s-28 12 -28 28zM71 0v700h209v-32h-175v-302h156v-32h-156v-302h175v-32h-209z" />
    <glyph glyph-name="uni0416" unicode="&#x416;" horiz-adv-x="518" 
d="M242 0v341h-54l-130 -341h-36l138 358l-124 342h36l116 -326h54v326h33v-326h55l116 326h36l-124 -342l137 -358h-35l-130 341h-55v-341h-33z" />
    <glyph glyph-name="uni0417" unicode="&#x417;" horiz-adv-x="326" 
d="M150 -5c-33 0 -69 10 -111 31v34c45 -23 79 -33 111 -33c56 0 95 35 95 88v136c0 52 -37 87 -92 87h-43v31h41c53 0 89 35 89 87v130c0 53 -35 88 -86 88c-50 0 -83 -35 -83 -88v-72h-33v71c0 72 47 120 116 120c71 0 120 -47 120 -117v-130c0 -47 -23 -85 -61 -104
c40 -18 65 -56 65 -105v-137c0 -70 -51 -117 -128 -117z" />
    <glyph glyph-name="uni0418" unicode="&#x418;" horiz-adv-x="394" 
d="M71 0v700h34v-591l188 591h31v-700h-34v590l-189 -590h-30z" />
    <glyph glyph-name="uni0419" unicode="&#x419;" horiz-adv-x="394" 
d="M107 839h28c0 -40 25 -67 62 -67s62 27 62 67h29c0 -57 -36 -95 -91 -95c-54 0 -90 38 -90 95zM71 0v700h34v-591l188 591h31v-700h-34v590l-189 -590h-30z" />
    <glyph glyph-name="uni041A" unicode="&#x41a;" horiz-adv-x="366" 
d="M71 0v700h34v-326l55 -1l128 327h38l-136 -342l154 -358h-38l-145 341h-56v-341h-34z" />
    <glyph glyph-name="uni041B" unicode="&#x41b;" horiz-adv-x="405" 
d="M301 0v668h-154v-41c0 -521 -25 -632 -86 -632c-10 0 -26 3 -38 9v34c12 -6 23 -9 30 -9c40 0 60 118 60 599v72h221v-700h-33z" />
    <glyph glyph-name="uni041C" unicode="&#x41c;" horiz-adv-x="508" 
d="M122 700l132 -521l132 521h52v-700h-33v648l-135 -528h-31l-135 528v-648h-33v700h51z" />
    <glyph glyph-name="uni041D" unicode="&#x41d;" horiz-adv-x="393" 
d="M71 0v700h34v-334h184v334h34v-700h-34v334h-184v-334h-34z" />
    <glyph glyph-name="uni041E" unicode="&#x41e;" horiz-adv-x="367" 
d="M57 585c0 72 51 120 127 120c75 0 126 -48 126 -120v-470c0 -72 -51 -120 -126 -120c-76 0 -127 48 -127 120v470zM91 585v-470c0 -53 37 -88 93 -88c55 0 92 35 92 88v470c0 53 -37 88 -92 88c-56 0 -93 -35 -93 -88z" />
    <glyph glyph-name="uni041F" unicode="&#x41f;" horiz-adv-x="393" 
d="M71 0v700h252v-700h-34v668h-184v-668h-34z" />
    <glyph glyph-name="uni0420" unicode="&#x420;" horiz-adv-x="365" 
d="M71 0v700h126c75 0 126 -48 126 -120v-154c0 -72 -51 -120 -126 -120h-92v-306h-34zM104 338h93c55 0 92 35 92 88v154c0 53 -37 88 -92 88h-92z" />
    <glyph glyph-name="uni0421" unicode="&#x421;" horiz-adv-x="333" 
d="M262 499v86c0 53 -34 88 -86 88s-86 -35 -86 -88v-450c0 -65 37 -108 96 -108c29 0 62 10 104 33v-34c-40 -21 -74 -31 -106 -31c-80 0 -127 56 -127 140v450c0 72 47 120 119 120s119 -48 119 -120v-86h-33z" />
    <glyph glyph-name="uni0422" unicode="&#x422;" horiz-adv-x="342" 
d="M154 -1v669h-132v32h297v-32h-131v-669h-34z" />
    <glyph glyph-name="uni0423" unicode="&#x423;" horiz-adv-x="325" 
d="M48 700l125 -504l105 504h34l-133 -632c-9 -41 -40 -68 -74 -68h-35v32h33c21 0 38 18 44 43l17 79h-15l-136 546h35z" />
    <glyph glyph-name="uni0424" unicode="&#x424;" horiz-adv-x="500" 
d="M447 193c0 -72 -39 -120 -99 -120c-36 0 -65 18 -82 48v-126h-33v126c-17 -30 -45 -48 -82 -48c-59 0 -99 48 -99 120v314c0 72 40 120 99 120c37 0 65 -18 82 -48v126h33v-126c17 30 46 48 82 48c60 0 99 -48 99 -120v-314zM413 193v314c0 52 -29 88 -73 88
s-74 -36 -74 -88v-314c0 -52 30 -88 74 -88s73 36 73 88zM86 193c0 -52 30 -88 74 -88s73 36 73 88v314c0 52 -29 88 -73 88s-74 -36 -74 -88v-314z" />
    <glyph glyph-name="uni0425" unicode="&#x425;" horiz-adv-x="339" 
d="M32 0l119 360l-112 340h36l95 -300l94 300h36l-112 -340l120 -360h-36l-102 320l-103 -320h-35z" />
    <glyph glyph-name="uni0426" unicode="&#x426;" horiz-adv-x="397" 
d="M71 0v700h34v-668h184v668h34v-668h51v-162h-35v130h-268z" />
    <glyph glyph-name="uni0427" unicode="&#x427;" horiz-adv-x="360" 
d="M47 700h33v-282c0 -53 44 -87 111 -87h74v369h34v-700h-34v299h-74c-87 0 -144 48 -144 119v282z" />
    <glyph glyph-name="uni0428" unicode="&#x428;" horiz-adv-x="533" 
d="M71 0v700h34v-668h145v668h33v-668h146v668h34v-700h-392z" />
    <glyph glyph-name="uni0429" unicode="&#x429;" horiz-adv-x="537" 
d="M71 0v700h34v-668h145v668h33v-668h146v668h34v-668h51v-162h-35v130h-408z" />
    <glyph glyph-name="uni042A" unicode="&#x42a;" horiz-adv-x="435" 
d="M22 668v32h158v-326h88c75 0 126 -48 126 -120v-134c0 -72 -51 -120 -126 -120h-122v668h-124zM180 32h88c55 0 92 35 92 88v134c0 53 -37 88 -92 88h-88v-310z" />
    <glyph glyph-name="uni042B" unicode="&#x42b;" horiz-adv-x="508" 
d="M71 0v700h34v-326h88c75 0 126 -48 126 -120v-134c0 -72 -51 -120 -126 -120h-122zM404 0v700h33v-700h-33zM105 32h88c55 0 92 35 92 88v134c0 53 -37 88 -92 88h-88v-310z" />
    <glyph glyph-name="uni042C" unicode="&#x42c;" horiz-adv-x="360" 
d="M71 0v700h34v-326h88c75 0 126 -48 126 -120v-134c0 -72 -51 -120 -126 -120h-122zM105 32h88c55 0 92 35 92 88v134c0 53 -37 88 -92 88h-88v-310z" />
    <glyph glyph-name="uni042D" unicode="&#x42d;" horiz-adv-x="332" 
d="M70 509h-33v76c0 72 47 120 118 120c73 0 120 -48 120 -120v-450c0 -84 -47 -140 -127 -140c-32 0 -66 10 -106 31v34c42 -23 75 -33 104 -33c59 0 96 43 96 108v188h-147v32h147v230c0 53 -34 88 -87 88c-51 0 -85 -35 -85 -88v-76z" />
    <glyph glyph-name="uni042E" unicode="&#x42e;" horiz-adv-x="513" 
d="M71 0v700h34v-334h109v219c0 72 44 120 118 120s124 -48 124 -120v-470c0 -72 -50 -120 -124 -120s-118 48 -118 120v219h-109v-334h-34zM247 585v-470c0 -53 31 -88 85 -88s90 35 90 88v470c0 53 -36 88 -90 88s-85 -35 -85 -88z" />
    <glyph glyph-name="uni042F" unicode="&#x42f;" horiz-adv-x="378" 
d="M78 0h-36l105 320c-56 12 -92 56 -92 116v144c0 72 51 120 126 120h126v-700h-34v316h-93zM273 348v320h-92c-55 0 -92 -35 -92 -88v-144c0 -53 37 -88 92 -88h92z" />
    <glyph glyph-name="uni0490" unicode="&#x490;" horiz-adv-x="293" 
d="M71 -1v701h165v109h34v-141h-165v-669h-34z" />
    <glyph glyph-name="uni0402" unicode="&#x402;" horiz-adv-x="463" 
d="M22 668v32h297v-32h-131v-267h74c87 0 144 -48 144 -119v-167c0 -72 -48 -120 -119 -120v32c51 0 85 35 85 88v167c0 53 -44 87 -110 87h-74v-369h-34v668h-132z" />
    <glyph glyph-name="uni0403" unicode="&#x403;" horiz-adv-x="293" 
d="M175 748h-26l55 125h35zM71 -1v701h199v-32h-165v-669h-34z" />
    <glyph glyph-name="uni0404" unicode="&#x404;" horiz-adv-x="333" 
d="M262 509v76c0 53 -34 88 -86 88s-86 -35 -86 -88v-229h147v-32h-147v-189c0 -65 37 -108 96 -108c29 0 62 10 104 33v-34c-40 -21 -74 -31 -106 -31c-80 0 -127 56 -127 140v450c0 72 47 120 119 120s119 -48 119 -120v-76h-33z" />
    <glyph glyph-name="uni0405" unicode="&#x405;" horiz-adv-x="327" 
d="M81 493c0 -51 50 -86 97 -125c53 -41 107 -85 107 -151v-102c0 -72 -47 -120 -120 -120c-71 0 -118 48 -118 120v87h33v-87c0 -53 34 -88 85 -88c53 0 87 35 87 88v102c0 50 -46 86 -93 124c-53 41 -111 85 -111 152v92c0 72 45 120 114 120s114 -48 114 -120v-86h-33v86
c0 53 -32 88 -81 88s-81 -35 -81 -88v-92z" />
    <glyph glyph-name="uni0406" unicode="&#x406;" horiz-adv-x="175" 
d="M71 0v700h34v-700h-34z" />
    <glyph glyph-name="uni0407" unicode="&#x407;" horiz-adv-x="175" 
d="M5 791c0 16 12 29 29 29c15 0 28 -13 28 -29s-13 -28 -28 -28c-17 0 -29 12 -29 28zM115 791c0 16 12 29 28 29s28 -13 28 -29s-12 -28 -28 -28s-28 12 -28 28zM71 0v700h34v-700h-34z" />
    <glyph glyph-name="uni0408" unicode="&#x408;" horiz-adv-x="325" 
d="M27 171h34v-56c0 -53 35 -88 87 -88c51 0 85 35 85 88v585h34v-585c0 -72 -48 -120 -119 -120c-73 0 -121 48 -121 120v56z" />
    <glyph glyph-name="uni0409" unicode="&#x409;" horiz-adv-x="590" 
d="M113 628v72h221v-326h88c76 0 127 -48 127 -120v-134c0 -72 -51 -120 -127 -120h-121v668h-154v-41c0 -521 -25 -632 -86 -632c-10 0 -26 3 -38 9v34c12 -6 23 -9 30 -9c40 0 60 118 60 599zM334 32h88c56 0 93 35 93 88v134c0 53 -37 88 -93 88h-88v-310z" />
    <glyph glyph-name="uni040A" unicode="&#x40a;" horiz-adv-x="578" 
d="M71 0v700h34v-334h184v334h34v-334h88c76 0 126 -48 126 -120v-126c0 -72 -50 -120 -126 -120h-122v334h-184v-334h-34zM323 32h88c55 0 92 35 92 88v126c0 53 -37 88 -92 88h-88v-302z" />
    <glyph glyph-name="uni040B" unicode="&#x40b;" horiz-adv-x="468" 
d="M406 0h-34v282c0 53 -44 87 -110 87h-74v-369h-34v668h-132v32h297v-32h-131v-267h74c87 0 144 -48 144 -119v-282z" />
    <glyph glyph-name="uni040C" unicode="&#x40c;" horiz-adv-x="366" 
d="M202 748h-26l55 125h35zM71 0v700h34v-326l55 -1l128 327h38l-136 -342l154 -358h-38l-145 341h-56v-341h-34z" />
    <glyph glyph-name="uni040E" unicode="&#x40e;" horiz-adv-x="325" 
d="M78 839h28c0 -40 25 -67 62 -67s62 27 62 67h29c0 -57 -36 -95 -91 -95c-54 0 -90 38 -90 95zM48 700l125 -504l105 504h34l-133 -632c-9 -41 -40 -68 -74 -68h-35v32h33c21 0 38 18 44 43l17 79h-15l-136 546h35z" />
    <glyph glyph-name="uni040F" unicode="&#x40f;" horiz-adv-x="393" 
d="M71 0v700h34v-668h184v668h34v-700h-109v-130h-34v130h-109z" />
    <glyph glyph-name="uni0400" unicode="&#x400;" horiz-adv-x="318" 
d="M142 873l55 -125h-26l-64 125h35zM71 0v700h209v-32h-175v-302h156v-32h-156v-302h175v-32h-209z" />
    <glyph glyph-name="uni040D" unicode="&#x40d;" horiz-adv-x="394" 
d="M164 873l55 -125h-26l-64 125h35zM71 0v700h34v-591l188 591h31v-700h-34v590l-189 -590h-30z" />
    <glyph glyph-name="uni04D8" unicode="&#x4d8;" horiz-adv-x="367" 
d="M57 499v86c0 72 51 120 127 120c75 0 126 -48 126 -120v-470c0 -72 -51 -120 -126 -120c-76 0 -127 48 -127 120v240h219v230c0 53 -37 88 -92 88c-56 0 -93 -35 -93 -88v-86h-34zM91 323v-208c0 -53 37 -88 93 -88c55 0 92 35 92 88v208h-185z" />
    <glyph glyph-name="uni0430" unicode="&#x430;" horiz-adv-x="369" 
d="M304 385v-385h-34v48c-20 -33 -55 -53 -102 -53c-66 0 -112 42 -112 104v47c0 67 47 112 117 122l97 14v103c0 53 -33 88 -84 88s-84 -35 -84 -88v-36h-34v36c0 72 47 120 118 120s118 -48 118 -120zM270 251l-91 -13c-53 -8 -89 -41 -89 -91v-47c0 -43 36 -73 87 -73
c57 0 93 35 93 88v136z" />
    <glyph glyph-name="uni0431" unicode="&#x431;" horiz-adv-x="356" 
d="M52 115v473c0 62 36 109 91 125c48 14 88 22 154 42v-35c-57 -17 -90 -25 -130 -35c-49 -13 -81 -52 -81 -98v-125c20 27 53 43 93 43c69 0 116 -48 116 -120v-270c0 -72 -49 -120 -121 -120c-73 0 -122 48 -122 120zM86 385v-270c0 -53 35 -88 88 -88c52 0 87 35 87 88
v270c0 53 -35 88 -87 88c-53 0 -88 -35 -88 -88z" />
    <glyph glyph-name="uni0432" unicode="&#x432;" horiz-adv-x="341" 
d="M186 0h-120v500h100c73 0 121 -47 121 -117v-21c0 -46 -20 -81 -54 -101c46 -15 74 -55 74 -109v-35c0 -70 -48 -117 -121 -117zM100 271h66c53 0 88 35 88 88v22c0 53 -35 88 -88 88h-66v-198zM100 31h86c53 0 88 35 88 88v36c0 52 -35 87 -88 87h-86v-211z" />
    <glyph glyph-name="uni0433" unicode="&#x433;" horiz-adv-x="278" 
d="M66 0v500h189v-32h-155v-468h-34z" />
    <glyph glyph-name="uni0434" unicode="&#x434;" horiz-adv-x="363" 
d="M95 429v71h204v-468h45v-162h-34v130h-258v-130h-34v162h26c37 15 51 129 51 397zM89 32h176v436h-137v-34c0 -233 -11 -351 -39 -402z" />
    <glyph glyph-name="uni0435" unicode="&#x435;" horiz-adv-x="337" 
d="M86 223v-88c0 -65 37 -108 98 -108c30 0 63 10 105 33v-34c-40 -21 -74 -31 -108 -31c-80 0 -129 56 -129 140v250c0 72 49 120 122 120c72 0 121 -48 121 -120v-145zM86 254l175 14v117c0 53 -35 88 -87 88c-53 0 -88 -35 -88 -88v-131z" />
    <glyph glyph-name="uni0451" unicode="&#x451;" horiz-adv-x="337" 
d="M93 599c0 16 12 29 29 29c15 0 28 -13 28 -29s-13 -28 -28 -28c-17 0 -29 12 -29 28zM203 599c0 16 12 29 28 29s28 -13 28 -29s-12 -28 -28 -28s-28 12 -28 28zM86 223v-88c0 -65 37 -108 98 -108c30 0 63 10 105 33v-34c-40 -21 -74 -31 -108 -31
c-80 0 -129 56 -129 140v250c0 72 49 120 122 120c72 0 121 -48 121 -120v-145zM86 254l175 14v117c0 53 -35 88 -87 88c-53 0 -88 -35 -88 -88v-131z" />
    <glyph glyph-name="uni0436" unicode="&#x436;" horiz-adv-x="462" 
d="M215 0v241h-60l-101 -241h-37l110 258l-100 242h36l92 -226h60v226h33v-226l59 -1l92 227h37l-101 -242l110 -258h-37l-101 241h-59v-241h-33z" />
    <glyph glyph-name="uni0437" unicode="&#x437;" horiz-adv-x="315" 
d="M145 -5c-33 0 -69 10 -110 31v34c44 -23 78 -33 110 -33c55 0 94 35 94 88v36c0 53 -37 88 -91 88h-48v29h46c52 0 88 35 88 87v31c0 53 -35 88 -85 88c-49 0 -82 -35 -82 -88v-31h-33v30c0 72 46 120 115 120c71 0 119 -47 119 -117v-30c0 -48 -23 -85 -62 -104
c41 -17 66 -55 66 -105v-37c0 -70 -51 -117 -127 -117z" />
    <glyph glyph-name="uni0438" unicode="&#x438;" horiz-adv-x="375" 
d="M66 0v500h34v-419l179 419h31v-500h-34v418l-180 -418h-30z" />
    <glyph glyph-name="uni0439" unicode="&#x439;" horiz-adv-x="375" 
d="M102 643h28c0 -40 23 -67 58 -67c34 0 57 27 57 67h29c0 -57 -35 -95 -86 -95c-52 0 -86 38 -86 95zM66 0v500h34v-419l179 419h31v-500h-34v418l-180 -418h-30z" />
    <glyph glyph-name="uni043A" unicode="&#x43a;" horiz-adv-x="333" 
d="M66 0v500h34v-226l49 -1l110 227h39l-120 -242l138 -258h-38l-128 241h-50v-241h-34z" />
    <glyph glyph-name="uni043B" unicode="&#x43b;" horiz-adv-x="379" 
d="M279 0v468h-142v-41c0 -321 -19 -432 -80 -432c-11 0 -26 3 -38 9v34c12 -6 23 -9 29 -9c41 0 56 118 56 399v72h209v-500h-34z" />
    <glyph glyph-name="uni043C" unicode="&#x43c;" horiz-adv-x="455" 
d="M117 500l110 -335l111 335h51v-500h-33v458l-113 -338h-30l-114 338v-458h-33v500h51z" />
    <glyph glyph-name="uni043D" unicode="&#x43d;" horiz-adv-x="369" 
d="M66 0v500h34v-236h170v236h34v-500h-34v232h-170v-232h-34z" />
    <glyph glyph-name="uni043E" unicode="&#x43e;" horiz-adv-x="347" 
d="M52 385c0 72 49 120 122 120c72 0 121 -48 121 -120v-270c0 -72 -49 -120 -121 -120c-73 0 -122 48 -122 120v270zM86 385v-270c0 -53 35 -88 88 -88c52 0 87 35 87 88v270c0 53 -35 88 -87 88c-53 0 -88 -35 -88 -88z" />
    <glyph glyph-name="uni043F" unicode="&#x43f;" horiz-adv-x="369" 
d="M66 0v500h238v-500h-34v468h-170v-468h-34z" />
    <glyph glyph-name="uni0440" unicode="&#x440;" horiz-adv-x="360" 
d="M308 115c0 -72 -45 -120 -113 -120c-43 0 -77 19 -95 52v-277h-34v730h34v-47c18 33 52 52 95 52c68 0 113 -48 113 -120v-270zM274 115v270c0 53 -35 88 -87 88c-53 0 -87 -35 -87 -88v-270c0 -53 34 -88 87 -88c52 0 87 35 87 88z" />
    <glyph glyph-name="uni0441" unicode="&#x441;" horiz-adv-x="328" 
d="M252 329v56c0 53 -33 88 -83 88s-83 -35 -83 -88v-250c0 -65 35 -108 93 -108c28 0 60 10 102 33v-34c-41 -21 -73 -31 -105 -31c-77 0 -124 56 -124 140v250c0 72 47 120 117 120c71 0 117 -48 117 -120v-56h-34z" />
    <glyph glyph-name="uni0442" unicode="&#x442;" horiz-adv-x="305" 
d="M136 0v468h-113v32h259v-32h-112v-468h-34z" />
    <glyph glyph-name="uni0443" unicode="&#x443;" horiz-adv-x="373" 
d="M66 115v385h34v-385c0 -53 34 -88 87 -88c52 0 87 35 87 88v385h34v-615c0 -72 -48 -120 -119 -120c-73 0 -120 48 -120 120v19h34v-19c0 -53 34 -88 86 -88c51 0 85 35 85 88v162c-19 -33 -53 -52 -96 -52c-67 0 -112 48 -112 120z" />
    <glyph glyph-name="uni0444" unicode="&#x444;" horiz-adv-x="499" 
d="M446 115c0 -72 -39 -120 -98 -120c-36 0 -65 18 -82 48v-273h-34v273c-17 -30 -45 -48 -81 -48c-59 0 -99 48 -99 120v270c0 72 40 120 99 120c36 0 64 -18 81 -48v294h34v-294c17 30 46 48 82 48c59 0 98 -48 98 -120v-270zM412 115v270c0 53 -29 88 -73 88
c-43 0 -73 -35 -73 -88v-270c0 -53 30 -88 73 -88c44 0 73 35 73 88zM86 115c0 -53 30 -88 73 -88c44 0 73 35 73 88v270c0 53 -29 88 -73 88c-43 0 -73 -35 -73 -88v-270z" />
    <glyph glyph-name="uni0445" unicode="&#x445;" horiz-adv-x="329" 
d="M31 0l115 260l-106 240h37l88 -201l87 201h38l-107 -240l116 -260h-37l-97 221l-97 -221h-37z" />
    <glyph glyph-name="uni0446" unicode="&#x446;" horiz-adv-x="367" 
d="M66 0v500h34v-468h170v468h34v-468h45v-162h-34v130h-249z" />
    <glyph glyph-name="uni0447" unicode="&#x447;" horiz-adv-x="350" 
d="M42 330v170h34v-171c0 -53 35 -88 88 -88h87v259h34v-500h-34v210h-96c-68 0 -113 48 -113 120z" />
    <glyph glyph-name="uni0448" unicode="&#x448;" horiz-adv-x="518" 
d="M66 0v500h34v-468h142v468h33v-468h143v468h34v-500h-386z" />
    <glyph glyph-name="uni0449" unicode="&#x449;" horiz-adv-x="515" 
d="M66 0v500h34v-468h142v468h33v-468h143v468h34v-468h45v-162h-34v130h-397z" />
    <glyph glyph-name="uni044A" unicode="&#x44a;" horiz-adv-x="409" 
d="M170 500v-226h87c72 0 121 -48 121 -119v-36c0 -71 -49 -119 -121 -119h-121v468h-113v32h147zM170 32h87c52 0 87 35 87 88v34c0 52 -35 88 -87 88h-87v-210z" />
    <glyph glyph-name="uni044B" unicode="&#x44b;" horiz-adv-x="490" 
d="M100 500v-226h87c72 0 121 -48 121 -119v-36c0 -71 -49 -119 -121 -119h-121v500h34zM424 500v-500h-34v500h34zM100 32h87c52 0 87 35 87 88v34c0 52 -35 88 -87 88h-87v-210z" />
    <glyph glyph-name="uni044C" unicode="&#x44c;" horiz-adv-x="339" 
d="M100 500v-226h87c72 0 121 -48 121 -119v-36c0 -71 -49 -119 -121 -119h-121v500h34zM100 32h87c52 0 87 35 87 88v34c0 52 -35 88 -87 88h-87v-210z" />
    <glyph glyph-name="uni044D" unicode="&#x44d;" horiz-adv-x="329" 
d="M76 342h-33v43c0 72 47 120 117 120s116 -48 116 -120v-250c0 -84 -47 -140 -126 -140c-32 0 -66 10 -107 31v34c43 -23 75 -33 104 -33c59 0 95 43 95 108v92h-124v32h124v126c0 53 -33 88 -83 88s-83 -35 -83 -88v-43z" />
    <glyph glyph-name="uni044E" unicode="&#x44e;" horiz-adv-x="488" 
d="M66 0v500h34v-236h99v121c0 72 43 120 116 120c72 0 121 -48 121 -120v-270c0 -72 -49 -120 -121 -120c-73 0 -116 48 -116 120v117h-99v-232h-34zM232 385v-270c0 -53 30 -88 83 -88c52 0 87 35 87 88v270c0 53 -35 88 -87 88c-53 0 -83 -35 -83 -88z" />
    <glyph glyph-name="uni044F" unicode="&#x44f;" horiz-adv-x="373" 
d="M273 0v227h-89h-7l-97 -227h-38l101 233c-49 15 -80 57 -80 113v35c0 71 49 119 121 119h123v-500h-34zM273 258v211h-89c-52 0 -87 -35 -87 -88v-35c0 -52 35 -88 87 -88h89z" />
    <glyph glyph-name="uni0491" unicode="&#x491;" horiz-adv-x="278" 
d="M66 0v500h155v128h34v-160h-155v-468h-34z" />
    <glyph glyph-name="uni0452" unicode="&#x452;" horiz-adv-x="374" 
d="M100 750v-111h147v-31h-147v-155c19 33 53 52 96 52c68 0 113 -48 113 -120v-503c0 -67 -43 -112 -109 -112h-26v32h26c45 0 75 32 75 80v503c0 53 -35 88 -87 88c-53 0 -88 -35 -88 -88v-385h-33v608h-62v31h62v111h33z" />
    <glyph glyph-name="uni0453" unicode="&#x453;" horiz-adv-x="278" 
d="M165 558h-26l55 125h35zM66 0v500h189v-32h-155v-468h-34z" />
    <glyph glyph-name="uni0454" unicode="&#x454;" horiz-adv-x="327" 
d="M252 334v51c0 53 -33 88 -83 88s-83 -35 -83 -88v-126h138v-32h-138v-92c0 -65 35 -108 94 -108c29 0 60 10 103 33v-34c-41 -21 -74 -31 -106 -31c-78 0 -125 56 -125 140v250c0 72 47 120 117 120c71 0 117 -48 117 -120v-51h-34z" />
    <glyph glyph-name="uni0455" unicode="&#x455;" horiz-adv-x="317" 
d="M240 357v28c0 53 -32 88 -80 88c-49 0 -81 -35 -81 -92c0 -60 44 -85 91 -112c53 -31 110 -63 110 -150c0 -77 -47 -124 -119 -124s-119 48 -119 120v28h33v-28c0 -53 34 -88 86 -88s86 35 86 92c0 66 -48 94 -96 122c-53 30 -106 61 -106 140c0 77 46 124 115 124
s114 -48 114 -120v-28h-34z" />
    <glyph glyph-name="uni0456" unicode="&#x456;" horiz-adv-x="165" 
d="M51 621c0 18 14 32 32 32c17 0 32 -14 32 -32s-15 -32 -32 -32c-18 0 -32 14 -32 32zM66 0v500h34v-500h-34z" />
    <glyph glyph-name="uni0457" unicode="&#x457;" horiz-adv-x="165" 
d="M3 601c0 15 12 28 28 28s28 -13 28 -28c0 -16 -12 -29 -28 -29s-28 13 -28 29zM106 601c0 15 12 28 29 28c15 0 27 -13 27 -28c0 -16 -12 -29 -27 -29c-17 0 -29 13 -29 29zM66 0v500h34v-500h-34z" />
    <glyph glyph-name="uni0458" unicode="&#x458;" horiz-adv-x="165" 
d="M51 621c0 18 14 32 32 32c17 0 32 -14 32 -32s-15 -32 -32 -32c-18 0 -32 14 -32 32zM-9 -230h-26v32h26c45 0 75 32 75 80v618h34v-618c0 -67 -44 -112 -109 -112z" />
    <glyph glyph-name="uni0459" unicode="&#x459;" horiz-adv-x="557" 
d="M283 0v468h-142v-41c0 -321 -19 -432 -80 -432c-10 0 -26 3 -38 9v34c12 -6 23 -9 30 -9c40 0 55 118 55 399v72h209v-226h87c73 0 122 -48 122 -119v-36c0 -71 -49 -119 -122 -119h-121zM317 32h87c53 0 88 35 88 88v34c0 52 -35 88 -88 88h-87v-210z" />
    <glyph glyph-name="uni045A" unicode="&#x45a;" horiz-adv-x="543" 
d="M66 0v500h34v-235h170v235h34v-235h87c73 0 121 -47 121 -119v-27c0 -71 -48 -119 -121 -119h-121v233h-170v-233h-34zM304 32h87c52 0 87 35 87 88v25c0 53 -35 88 -87 88h-87v-201z" />
    <glyph glyph-name="uni045B" unicode="&#x45b;" horiz-adv-x="374" 
d="M309 0h-34v385c0 53 -35 88 -87 88c-53 0 -88 -35 -88 -88v-385h-33v608h-62v31h62v111h33v-111h147v-31h-147v-155c19 33 53 52 96 52c68 0 113 -48 113 -120v-385z" />
    <glyph glyph-name="uni045C" unicode="&#x45c;" horiz-adv-x="333" 
d="M186 558h-26l55 125h35zM66 0v500h34v-226l49 -1l110 227h39l-120 -242l138 -258h-38l-128 241h-50v-241h-34z" />
    <glyph glyph-name="uni045E" unicode="&#x45e;" horiz-adv-x="373" 
d="M102 643h28c0 -40 23 -67 58 -67c34 0 57 27 57 67h29c0 -57 -35 -95 -86 -95c-52 0 -86 38 -86 95zM66 115v385h34v-385c0 -53 34 -88 87 -88c52 0 87 35 87 88v385h34v-615c0 -72 -48 -120 -119 -120c-73 0 -120 48 -120 120v19h34v-19c0 -53 34 -88 86 -88
c51 0 85 35 85 88v162c-19 -33 -53 -52 -96 -52c-67 0 -112 48 -112 120z" />
    <glyph glyph-name="uni045F" unicode="&#x45f;" horiz-adv-x="369" 
d="M66 0v500h34v-468h170v468h34v-500h-102v-130h-34v130h-102z" />
    <glyph glyph-name="uni0450" unicode="&#x450;" horiz-adv-x="337" 
d="M140 683l55 -125h-26l-64 125h35zM86 223v-88c0 -65 37 -108 98 -108c30 0 63 10 105 33v-34c-40 -21 -74 -31 -108 -31c-80 0 -129 56 -129 140v250c0 72 49 120 122 120c72 0 121 -48 121 -120v-145zM86 254l175 14v117c0 53 -35 88 -87 88c-53 0 -88 -35 -88 -88v-131
z" />
    <glyph glyph-name="uni045D" unicode="&#x45d;" horiz-adv-x="375" 
d="M155 683l55 -125h-26l-64 125h35zM66 0v500h34v-419l179 419h31v-500h-34v418l-180 -418h-30z" />
    <glyph glyph-name="uni04D9" unicode="&#x4d9;" horiz-adv-x="347" 
d="M52 246h209v139c0 53 -35 88 -87 88c-53 0 -88 -35 -88 -88v-52h-34v52c0 72 49 120 122 120c72 0 121 -48 121 -120v-270c0 -72 -49 -120 -121 -120c-73 0 -122 48 -122 120v131zM86 214v-99c0 -53 35 -88 88 -88c52 0 87 35 87 88v99h-175z" />
    <glyph glyph-name="zero" unicode="0" horiz-adv-x="348" 
d="M57 585c0 72 47 120 117 120s116 -48 116 -120v-470c0 -72 -46 -120 -116 -120s-117 48 -117 120v470zM91 585v-470c0 -53 33 -88 83 -88s83 35 83 88v470c0 53 -33 88 -83 88s-83 -35 -83 -88z" />
    <glyph glyph-name="zerotnum.zero" 
d="M76 585c0 72 47 120 117 120s116 -48 116 -120v-470c0 -72 -46 -120 -116 -120s-117 48 -117 120v470zM110 585v-442l163 468c-10 38 -39 62 -80 62c-50 0 -83 -35 -83 -88zM276 549l-162 -464c10 -36 39 -58 79 -58c50 0 83 35 83 88v434z" />
    <glyph glyph-name="one" unicode="1" horiz-adv-x="274" 
d="M156 0v653l-104 -82l-21 24l132 105h27v-700h-34z" />
    <glyph glyph-name="two" unicode="2" horiz-adv-x="348" 
d="M258 422v163c0 53 -34 88 -85 88c-49 0 -83 -35 -83 -88v-72h-33v72c0 72 47 120 116 120c72 0 119 -48 119 -120v-163c0 -66 -55 -110 -105 -151c-46 -39 -90 -74 -90 -125v-112h203v-34h-237v146c0 67 53 111 103 152c46 38 92 74 92 124z" />
    <glyph glyph-name="three" unicode="3" horiz-adv-x="348" 
d="M55 535v50c0 72 48 120 117 120c67 0 112 -48 112 -120v-102c0 -52 -23 -92 -63 -109c41 -18 66 -58 66 -110v-149c0 -72 -47 -120 -116 -120c-70 0 -117 48 -117 120v50h34v-50c0 -53 33 -88 83 -88c49 0 82 35 82 88v155c0 52 -33 87 -82 87h-29v32h29
c48 0 79 36 79 88v108c0 53 -31 88 -78 88c-48 0 -84 -35 -84 -88v-50h-33z" />
    <glyph glyph-name="four" unicode="4" horiz-adv-x="348" 
d="M243 0v177h-219v32l219 491h34v-491h53v-32h-53v-177h-34zM60 209h183v412z" />
    <glyph glyph-name="five" unicode="5" horiz-adv-x="348" 
d="M96 333h-33v367h217v-34h-184v-256c19 27 49 43 87 43c64 0 107 -48 107 -120v-218c0 -72 -46 -120 -116 -120s-117 48 -117 120v50h34v-50c0 -53 33 -88 83 -88s83 35 83 88v218c0 52 -32 88 -80 88c-49 0 -81 -36 -81 -88z" />
    <glyph glyph-name="six" unicode="6" horiz-adv-x="348" 
d="M257 531v54c0 53 -33 88 -83 88s-83 -35 -83 -88v-198c20 28 51 44 89 44c66 0 110 -48 110 -120v-196c0 -72 -46 -120 -116 -120s-117 48 -117 120v470c0 72 47 120 117 120s116 -48 116 -120v-54h-33zM91 311v-196c0 -53 33 -88 83 -88s83 35 83 88v196
c0 53 -33 88 -83 88s-83 -35 -83 -88z" />
    <glyph glyph-name="seven" unicode="7" horiz-adv-x="348" 
d="M112 0l142 668l-213 1v32l246 -1v-32l-142 -668h-33z" />
    <glyph glyph-name="eight" unicode="8" horiz-adv-x="348" 
d="M57 264c0 52 25 92 66 110c-39 17 -63 57 -63 109v102c0 72 45 120 114 120s113 -48 113 -120v-102c0 -52 -23 -92 -62 -109c40 -18 65 -58 65 -110v-149c0 -72 -46 -120 -116 -120s-117 48 -117 120v149zM94 585v-108c0 -52 31 -88 80 -88s80 36 80 88v108
c0 53 -31 88 -80 88s-80 -35 -80 -88zM91 270v-155c0 -53 33 -88 83 -88s83 35 83 88v155c0 52 -33 87 -83 87s-83 -35 -83 -87z" />
    <glyph glyph-name="nine" unicode="9" horiz-adv-x="348" 
d="M57 161h34v-46c0 -53 33 -88 83 -88s83 35 83 88v198c-20 -28 -51 -45 -89 -45c-66 0 -111 51 -111 123v194c0 72 47 120 117 120s116 -48 116 -120v-470c0 -72 -46 -120 -116 -120s-117 48 -117 120v46zM257 391v194c0 53 -33 88 -83 88s-83 -35 -83 -88v-194
c0 -53 33 -88 83 -88s83 35 83 88z" />
    <glyph glyph-name="zero.tnum" 
d="M76 585c0 72 47 120 117 120s116 -48 116 -120v-470c0 -72 -46 -120 -116 -120s-117 48 -117 120v470zM110 585v-470c0 -53 33 -88 83 -88s83 35 83 88v470c0 53 -33 88 -83 88s-83 -35 -83 -88z" />
    <glyph glyph-name="zero.zero" horiz-adv-x="348" 
d="M57 585c0 72 47 120 117 120s116 -48 116 -120v-470c0 -72 -46 -120 -116 -120s-117 48 -117 120v470zM91 585v-440l162 468c-9 37 -39 60 -79 60c-50 0 -83 -35 -83 -88zM257 551l-162 -465c10 -36 39 -59 79 -59c50 0 83 35 83 88v436z" />
    <glyph glyph-name="one.tnum" 
d="M71 0v32h125v621l-104 -82l-21 24l132 105h26v-668h125v-32h-283z" />
    <glyph glyph-name="two.tnum" 
d="M277 422v163c0 53 -34 88 -85 88c-49 0 -83 -35 -83 -88v-72h-33v72c0 72 47 120 116 120c72 0 119 -48 119 -120v-163c0 -66 -55 -110 -105 -151c-46 -39 -90 -74 -90 -125v-112h203v-34h-237v146c0 67 53 111 103 152c46 38 92 74 92 124z" />
    <glyph glyph-name="three.tnum" 
d="M71 535v50c0 72 49 120 117 120s113 -48 113 -120v-102c0 -52 -24 -92 -63 -109c41 -18 66 -58 66 -110v-149c0 -72 -47 -120 -117 -120s-116 48 -116 120v50h33v-50c0 -53 34 -88 83 -88c50 0 83 35 83 88v155c0 52 -33 87 -83 87h-28v32h28c49 0 80 36 80 88v108
c0 53 -31 88 -79 88s-83 -35 -83 -88v-50h-34z" />
    <glyph glyph-name="four.tnum" 
d="M252 0v177h-219v32l219 490v1h33v-491h53v-32h-53v-177h-33zM68 209h184v411z" />
    <glyph glyph-name="five.tnum" 
d="M113 333h-33v367h217v-34h-184v-256c19 27 49 43 87 43c64 0 107 -48 107 -120v-218c0 -72 -47 -120 -116 -120c-70 0 -117 48 -117 120v50h34v-50c0 -53 33 -88 83 -88c49 0 82 35 82 88v218c0 52 -32 88 -80 88s-80 -36 -80 -88z" />
    <glyph glyph-name="six.tnum" 
d="M273 531v54c0 53 -33 88 -82 88c-50 0 -83 -35 -83 -88v-198c19 28 50 44 89 44c66 0 110 -48 110 -120v-196c0 -72 -47 -120 -116 -120c-70 0 -117 48 -117 120v470c0 72 47 120 117 120c69 0 116 -48 116 -120v-54h-34zM108 311v-196c0 -53 33 -88 83 -88
c49 0 82 35 82 88v196c0 53 -33 88 -82 88c-50 0 -83 -35 -83 -88z" />
    <glyph glyph-name="seven.tnum" 
d="M128 0l142 668l-213 1v32l247 -1v-32l-143 -668h-33z" />
    <glyph glyph-name="eight.tnum" 
d="M74 264c0 52 25 92 66 110c-40 17 -63 57 -63 109v102c0 72 45 120 114 120c68 0 113 -48 113 -120v-102c0 -52 -24 -92 -63 -109c41 -18 66 -58 66 -110v-149c0 -72 -47 -120 -116 -120c-70 0 -117 48 -117 120v149zM111 585v-108c0 -52 31 -88 80 -88c48 0 79 36 79 88
v108c0 53 -31 88 -79 88c-49 0 -80 -35 -80 -88zM108 270v-155c0 -53 33 -88 83 -88c49 0 82 35 82 88v155c0 52 -33 87 -82 87c-50 0 -83 -35 -83 -87z" />
    <glyph glyph-name="nine.tnum" 
d="M74 161h34v-46c0 -53 33 -88 82 -88c50 0 83 35 83 88v198c-19 -28 -50 -45 -89 -45c-66 0 -110 51 -110 123v194c0 72 47 120 116 120c70 0 117 -48 117 -120v-470c0 -72 -47 -120 -117 -120c-69 0 -116 48 -116 120v46zM273 391v194c0 53 -33 88 -83 88
c-49 0 -82 -35 -82 -88v-194c0 -53 33 -88 82 -88c50 0 83 35 83 88z" />
    <glyph glyph-name="zero.onum" horiz-adv-x="348" 
d="M57 385c0 72 47 120 117 120s116 -48 116 -120v-270c0 -72 -46 -120 -116 -120s-117 48 -117 120v270zM91 385v-270c0 -53 33 -88 83 -88s83 35 83 88v270c0 53 -33 88 -83 88s-83 -35 -83 -88z" />
    <glyph glyph-name="zeroonum.zero" horiz-adv-x="348" 
d="M57 385c0 72 47 120 117 120s116 -48 116 -120v-270c0 -72 -46 -120 -116 -120s-117 48 -117 120v270zM91 385v-270c0 -11 2 -21 4 -31l144 359c-14 19 -37 30 -65 30c-50 0 -83 -35 -83 -88zM253 415l-144 -358c15 -19 37 -30 65 -30c50 0 83 35 83 88v270
c0 11 -2 21 -4 30z" />
    <glyph glyph-name="one.onum" horiz-adv-x="274" 
d="M156 0v453l-104 -82l-21 24l132 105h27v-500h-34z" />
    <glyph glyph-name="two.onum" horiz-adv-x="348" 
d="M262 339v47c0 52 -34 87 -85 87c-49 0 -82 -35 -82 -88v-52h-34v52c0 72 47 120 116 120c72 0 119 -48 119 -119v-47c0 -66 -55 -109 -105 -150c-46 -38 -90 -74 -90 -124v-31h203v-34h-237v65c0 67 53 110 103 151c46 37 92 73 92 123z" />
    <glyph glyph-name="three.onum" horiz-adv-x="348" 
d="M55 335v50c0 72 48 120 117 120c67 0 112 -48 112 -120v-102c0 -52 -23 -92 -63 -109c41 -18 66 -58 66 -110v-149c0 -72 -47 -120 -116 -120c-70 0 -117 48 -117 120v50h34v-50c0 -53 33 -88 83 -88c49 0 82 35 82 88v155c0 52 -33 87 -82 87h-29v32h29
c48 0 79 36 79 88v108c0 53 -31 88 -78 88c-48 0 -84 -35 -84 -88v-50h-33z" />
    <glyph glyph-name="four.onum" horiz-adv-x="348" 
d="M243 -200v177h-219v32l219 490v1h34v-491h53v-32h-53v-177h-34zM60 9h183v412z" />
    <glyph glyph-name="five.onum" horiz-adv-x="348" 
d="M96 133h-33v367h217v-34h-184v-256c19 27 49 43 87 43c64 0 107 -48 107 -120v-218c0 -72 -46 -120 -116 -120s-117 48 -117 120v50h34v-50c0 -53 33 -88 83 -88s83 35 83 88v218c0 52 -32 88 -80 88c-49 0 -81 -36 -81 -88z" />
    <glyph glyph-name="six.onum" horiz-adv-x="348" 
d="M257 531v54c0 53 -33 88 -83 88s-83 -35 -83 -88v-198c20 28 51 44 89 44c66 0 110 -48 110 -120v-196c0 -72 -46 -120 -116 -120s-117 48 -117 120v470c0 72 47 120 117 120s116 -48 116 -120v-54h-33zM91 311v-196c0 -53 33 -88 83 -88s83 35 83 88v196
c0 53 -33 88 -83 88s-83 -35 -83 -88z" />
    <glyph glyph-name="seven.onum" horiz-adv-x="348" 
d="M112 -200l142 668l-213 1v32l246 -1v-32l-142 -668h-33z" />
    <glyph glyph-name="eight.onum" horiz-adv-x="348" 
d="M57 264c0 52 25 92 66 110c-39 17 -63 57 -63 109v102c0 72 45 120 114 120s113 -48 113 -120v-102c0 -52 -23 -92 -62 -109c40 -18 65 -58 65 -110v-149c0 -72 -46 -120 -116 -120s-117 48 -117 120v149zM94 585v-108c0 -52 31 -88 80 -88s80 36 80 88v108
c0 53 -31 88 -80 88s-80 -35 -80 -88zM91 270v-155c0 -53 33 -88 83 -88s83 35 83 88v155c0 52 -33 87 -83 87s-83 -35 -83 -87z" />
    <glyph glyph-name="nine.onum" horiz-adv-x="348" 
d="M57 -39h34v-46c0 -53 33 -88 83 -88s83 35 83 88v198c-20 -28 -51 -45 -89 -45c-66 0 -111 51 -111 123v194c0 72 47 120 117 120s116 -48 116 -120v-470c0 -72 -46 -120 -116 -120s-117 48 -117 120v46zM257 191v194c0 53 -33 88 -83 88s-83 -35 -83 -88v-194
c0 -53 33 -88 83 -88s83 35 83 88z" />
    <glyph glyph-name="zero.sup" horiz-adv-x="208" 
d="M38 740c0 38 27 65 66 65c40 0 66 -27 66 -65v-229c0 -39 -26 -66 -66 -66c-39 0 -66 27 -66 66v229zM67 740v-229c0 -24 15 -38 37 -38c23 0 37 14 37 38v229c0 23 -14 38 -37 38c-22 0 -37 -15 -37 -38z" />
    <glyph glyph-name="zerosup.zero" horiz-adv-x="208" 
d="M38 740c0 38 27 65 66 65c40 0 66 -27 66 -65v-229c0 -39 -26 -66 -66 -66c-39 0 -66 27 -66 66v229zM67 740v-195l74 203c-4 18 -17 30 -37 30c-22 0 -37 -15 -37 -38zM141 706l-73 -204c3 -18 17 -29 36 -29c23 0 37 14 37 38v195z" />
    <glyph glyph-name="one.sup" horiz-adv-x="180" 
d="M92 450v311l-47 -37l-17 20l70 56h23v-350h-29z" />
    <glyph glyph-name="two.sup" horiz-adv-x="211" 
d="M141 663v77c0 23 -15 38 -38 38c-22 0 -37 -15 -37 -38v-37h-28v38c0 38 26 64 65 64c40 0 67 -26 67 -64v-78c0 -36 -29 -60 -57 -80c-22 -18 -43 -34 -43 -57v-48h103v-28h-132v76c0 36 27 58 57 80c22 18 43 34 43 57z" />
    <glyph glyph-name="three.sup" horiz-adv-x="188" 
d="M29 716v25c0 38 26 64 65 64s64 -26 64 -64v-49c0 -26 -11 -46 -32 -56c21 -10 34 -30 34 -57v-69c0 -39 -27 -65 -66 -65s-66 26 -66 65v25h29v-24c0 -24 14 -39 37 -39c22 0 37 15 37 39v72c0 24 -16 40 -40 40h-14v25h14c24 0 39 16 39 40v52c0 23 -14 38 -35 38
c-22 0 -38 -15 -38 -38v-24h-28z" />
    <glyph glyph-name="four.sup" horiz-adv-x="202" 
d="M129 450v84h-110v26l110 240h28v-240h25v-26h-25v-84h-28zM45 560h84v185z" />
    <glyph glyph-name="five.sup" horiz-adv-x="194" 
d="M65 613h-27v187h119v-28h-92v-112c10 11 24 18 42 18c35 0 58 -26 58 -65v-103c0 -39 -26 -65 -66 -65c-39 0 -66 26 -66 65v27h29v-26c0 -24 15 -39 37 -39s37 15 37 39v101c0 25 -15 41 -36 41s-35 -16 -35 -40z" />
    <glyph glyph-name="six.sup" horiz-adv-x="204" 
d="M141 717v23c0 23 -15 39 -37 39s-37 -16 -37 -39v-93c10 12 25 20 44 20c35 0 59 -26 59 -65v-92c0 -39 -26 -65 -66 -65c-39 0 -66 26 -66 65v231c0 38 27 64 66 64c40 0 66 -26 66 -65v-23h-29zM67 601v-90c0 -24 15 -39 37 -39s37 15 37 39v90c0 23 -15 39 -37 39
s-37 -16 -37 -39z" />
    <glyph glyph-name="seven.sup" horiz-adv-x="190" 
d="M56 450l71 324h-103v27l132 -1v-26l-71 -324h-29z" />
    <glyph glyph-name="eight.sup" horiz-adv-x="208" 
d="M38 578c0 28 12 48 34 58c-20 10 -32 30 -32 56v47c0 38 26 64 64 64c39 0 64 -26 64 -64v-47c0 -26 -12 -46 -32 -56c22 -10 34 -30 34 -58v-66c0 -39 -26 -65 -66 -65c-39 0 -66 26 -66 65v66zM69 738v-50c0 -24 14 -39 35 -39s35 15 35 39v50c0 23 -14 39 -35 39
s-35 -16 -35 -39zM67 583v-70c0 -24 15 -40 37 -40s37 16 37 40v70c0 24 -15 39 -37 39s-37 -15 -37 -39z" />
    <glyph glyph-name="nine.sup" horiz-adv-x="204" 
d="M34 533h29v-22c0 -24 15 -39 37 -39s37 15 37 39v92c-10 -12 -25 -20 -44 -20c-35 0 -59 26 -59 65v92c0 39 26 65 66 65c39 0 66 -26 66 -65v-231c0 -38 -27 -64 -66 -64c-40 0 -66 27 -66 65v23zM137 649v90c0 24 -15 39 -37 39s-37 -15 -37 -39v-90
c0 -23 15 -39 37 -39s37 16 37 39z" />
    <glyph glyph-name="zero.sub" horiz-adv-x="208" 
d="M38 190c0 38 27 65 66 65c40 0 66 -27 66 -65v-229c0 -39 -26 -66 -66 -66c-39 0 -66 27 -66 66v229zM67 190v-229c0 -24 15 -39 37 -39c23 0 37 15 37 39v229c0 23 -14 38 -37 38c-22 0 -37 -15 -37 -38z" />
    <glyph glyph-name="zerosub.zero" horiz-adv-x="208" 
d="M38 190c0 38 27 65 66 65c40 0 66 -27 66 -65v-229c0 -39 -26 -66 -66 -66c-39 0 -66 27 -66 66v229zM67 190v-195l74 203c-4 18 -17 30 -37 30c-22 0 -37 -15 -37 -38zM141 156l-73 -204c3 -18 17 -30 36 -30c23 0 37 15 37 39v195z" />
    <glyph glyph-name="one.sub" horiz-adv-x="180" 
d="M92 -100v311l-47 -37l-17 20l70 56h23v-350h-29z" />
    <glyph glyph-name="two.sub" horiz-adv-x="211" 
d="M141 113v77c0 23 -15 38 -38 38c-22 0 -37 -15 -37 -38v-37h-28v38c0 38 26 64 65 64c40 0 67 -26 67 -64v-78c0 -36 -29 -60 -57 -80c-22 -18 -43 -34 -43 -57v-48h103v-28h-132v76c0 36 27 58 57 80c22 18 43 34 43 57z" />
    <glyph glyph-name="three.sub" horiz-adv-x="188" 
d="M29 166v25c0 38 26 64 65 64s64 -26 64 -64v-49c0 -26 -11 -46 -32 -56c21 -10 34 -30 34 -57v-69c0 -39 -27 -65 -66 -65s-66 26 -66 65v25h29v-24c0 -24 14 -39 37 -39c22 0 37 15 37 39v72c0 24 -16 40 -40 40h-14v25h14c24 0 39 16 39 40v52c0 23 -14 38 -35 38
c-22 0 -38 -15 -38 -38v-24h-28z" />
    <glyph glyph-name="four.sub" horiz-adv-x="202" 
d="M129 -100v84h-110v26l110 240h28v-240h25v-26h-25v-84h-28zM45 10h84v185z" />
    <glyph glyph-name="five.sub" horiz-adv-x="194" 
d="M65 63h-27v187h119v-28h-92v-112c10 11 24 18 42 18c35 0 58 -26 58 -65v-103c0 -39 -26 -65 -66 -65c-39 0 -66 26 -66 65v27h29v-26c0 -24 15 -39 37 -39s37 15 37 39v101c0 25 -15 41 -36 41s-35 -16 -35 -40z" />
    <glyph glyph-name="six.sub" horiz-adv-x="204" 
d="M141 167v23c0 23 -15 39 -37 39s-37 -16 -37 -39v-93c10 12 25 20 44 20c35 0 59 -26 59 -65v-92c0 -39 -26 -65 -66 -65c-39 0 -66 26 -66 65v231c0 38 27 64 66 64c40 0 66 -26 66 -65v-23h-29zM67 51v-90c0 -24 15 -39 37 -39s37 15 37 39v90c0 23 -15 39 -37 39
s-37 -16 -37 -39z" />
    <glyph glyph-name="seven.sub" horiz-adv-x="190" 
d="M56 -100l71 324h-103v27l132 -1v-26l-71 -324h-29z" />
    <glyph glyph-name="eight.sub" horiz-adv-x="208" 
d="M38 28c0 28 12 48 34 58c-20 10 -32 30 -32 56v47c0 38 26 64 64 64c39 0 64 -26 64 -64v-47c0 -26 -12 -46 -32 -56c22 -10 34 -30 34 -58v-66c0 -39 -26 -65 -66 -65c-39 0 -66 26 -66 65v66zM69 188v-50c0 -24 14 -39 35 -39s35 15 35 39v50c0 23 -14 39 -35 39
s-35 -16 -35 -39zM67 33v-70c0 -24 15 -40 37 -40s37 16 37 40v70c0 24 -15 39 -37 39s-37 -15 -37 -39z" />
    <glyph glyph-name="nine.sub" horiz-adv-x="204" 
d="M34 -17h29v-23c0 -23 15 -39 37 -39s37 16 37 39v93c-10 -12 -25 -20 -44 -20c-35 0 -59 26 -59 65v92c0 39 26 65 66 65c39 0 66 -26 66 -65v-231c0 -38 -27 -64 -66 -64c-40 0 -66 26 -66 65v23zM137 99v90c0 24 -15 39 -37 39s-37 -15 -37 -39v-90
c0 -23 15 -39 37 -39s37 16 37 39z" />
    <glyph glyph-name="zero.numr" horiz-adv-x="208" 
d="M38 640c0 38 27 65 66 65c40 0 66 -27 66 -65v-229c0 -39 -26 -66 -66 -66c-39 0 -66 27 -66 66v229zM67 640v-229c0 -24 15 -38 37 -38c23 0 37 14 37 38v229c0 23 -14 38 -37 38c-22 0 -37 -15 -37 -38z" />
    <glyph glyph-name="zeronumr.zero" horiz-adv-x="208" 
d="M38 640c0 38 27 65 66 65c40 0 66 -27 66 -65v-229c0 -39 -26 -66 -66 -66c-39 0 -66 27 -66 66v229zM67 640v-195l74 203c-4 18 -17 30 -37 30c-22 0 -37 -15 -37 -38zM141 606l-73 -204c3 -18 17 -29 36 -29c23 0 37 14 37 38v195z" />
    <glyph glyph-name="one.numr" horiz-adv-x="180" 
d="M92 350v311l-47 -37l-17 20l70 56h23v-350h-29z" />
    <glyph glyph-name="two.numr" horiz-adv-x="211" 
d="M141 563v77c0 23 -15 38 -38 38c-22 0 -37 -15 -37 -38v-37h-28v38c0 38 26 64 65 64c40 0 67 -26 67 -64v-78c0 -36 -29 -60 -57 -80c-22 -18 -43 -34 -43 -57v-48h103v-28h-132v76c0 36 27 58 57 80c22 18 43 34 43 57z" />
    <glyph glyph-name="three.numr" horiz-adv-x="188" 
d="M29 616v25c0 38 26 64 65 64s64 -26 64 -64v-49c0 -26 -11 -46 -32 -56c21 -10 34 -30 34 -57v-69c0 -39 -27 -65 -66 -65s-66 26 -66 65v25h29v-24c0 -24 14 -39 37 -39c22 0 37 15 37 39v72c0 24 -16 40 -40 40h-14v25h14c24 0 39 16 39 40v52c0 23 -14 38 -35 38
c-22 0 -38 -15 -38 -38v-24h-28z" />
    <glyph glyph-name="four.numr" horiz-adv-x="202" 
d="M129 350v84h-110v26l110 240h28v-240h25v-26h-25v-84h-28zM45 460h84v185z" />
    <glyph glyph-name="five.numr" horiz-adv-x="194" 
d="M65 513h-27v187h119v-28h-92v-112c10 11 24 18 42 18c35 0 58 -26 58 -65v-103c0 -39 -26 -65 -66 -65c-39 0 -66 26 -66 65v27h29v-26c0 -24 15 -39 37 -39s37 15 37 39v101c0 25 -15 41 -36 41s-35 -16 -35 -40z" />
    <glyph glyph-name="six.numr" horiz-adv-x="204" 
d="M141 617v23c0 23 -15 39 -37 39s-37 -16 -37 -39v-93c10 12 25 20 44 20c35 0 59 -26 59 -65v-92c0 -39 -26 -65 -66 -65c-39 0 -66 26 -66 65v231c0 38 27 64 66 64c40 0 66 -26 66 -65v-23h-29zM67 501v-90c0 -24 15 -39 37 -39s37 15 37 39v90c0 23 -15 39 -37 39
s-37 -16 -37 -39z" />
    <glyph glyph-name="seven.numr" horiz-adv-x="190" 
d="M56 350l71 324h-103v27l132 -1v-26l-71 -324h-29z" />
    <glyph glyph-name="eight.numr" horiz-adv-x="208" 
d="M38 478c0 28 12 48 34 58c-20 10 -32 30 -32 56v47c0 38 26 64 64 64c39 0 64 -26 64 -64v-47c0 -26 -12 -46 -32 -56c22 -10 34 -30 34 -58v-66c0 -39 -26 -65 -66 -65c-39 0 -66 26 -66 65v66zM69 638v-50c0 -24 14 -39 35 -39s35 15 35 39v50c0 23 -14 39 -35 39
s-35 -16 -35 -39zM67 483v-70c0 -24 15 -40 37 -40s37 16 37 40v70c0 24 -15 39 -37 39s-37 -15 -37 -39z" />
    <glyph glyph-name="nine.numr" horiz-adv-x="204" 
d="M34 433h29v-22c0 -24 15 -39 37 -39s37 15 37 39v92c-10 -12 -25 -20 -44 -20c-35 0 -59 26 -59 65v92c0 39 26 65 66 65c39 0 66 -26 66 -65v-231c0 -38 -27 -64 -66 -64c-40 0 -66 27 -66 65v23zM137 549v90c0 24 -15 39 -37 39s-37 -15 -37 -39v-90
c0 -23 15 -39 37 -39s37 16 37 39z" />
    <glyph glyph-name="zero.dnom" horiz-adv-x="208" 
d="M38 290c0 38 27 65 66 65c40 0 66 -27 66 -65v-229c0 -39 -26 -66 -66 -66c-39 0 -66 27 -66 66v229zM67 290v-229c0 -24 15 -38 37 -38c23 0 37 14 37 38v229c0 23 -14 38 -37 38c-22 0 -37 -15 -37 -38z" />
    <glyph glyph-name="zerodnom.zero" horiz-adv-x="208" 
d="M38 290c0 38 27 65 66 65c40 0 66 -27 66 -65v-229c0 -39 -26 -66 -66 -66c-39 0 -66 27 -66 66v229zM67 290v-195l74 203c-4 18 -17 30 -37 30c-22 0 -37 -15 -37 -38zM141 256l-73 -204c3 -18 17 -29 36 -29c23 0 37 14 37 38v195z" />
    <glyph glyph-name="one.dnom" horiz-adv-x="180" 
d="M92 0v311l-47 -37l-17 20l70 56h23v-350h-29z" />
    <glyph glyph-name="two.dnom" horiz-adv-x="211" 
d="M141 213v77c0 23 -15 38 -38 38c-22 0 -37 -15 -37 -38v-37h-28v38c0 38 26 64 65 64c40 0 67 -26 67 -64v-78c0 -36 -29 -60 -57 -80c-22 -18 -43 -34 -43 -57v-48h103v-28h-132v76c0 36 27 58 57 80c22 18 43 34 43 57z" />
    <glyph glyph-name="three.dnom" horiz-adv-x="188" 
d="M29 266v25c0 38 26 64 65 64s64 -26 64 -64v-49c0 -26 -11 -46 -32 -56c21 -10 34 -30 34 -57v-69c0 -39 -27 -65 -66 -65s-66 26 -66 65v25h29v-24c0 -24 14 -39 37 -39c22 0 37 15 37 39v72c0 24 -16 40 -40 40h-14v25h14c24 0 39 16 39 40v52c0 23 -14 38 -35 38
c-22 0 -38 -15 -38 -38v-24h-28z" />
    <glyph glyph-name="four.dnom" horiz-adv-x="202" 
d="M129 0v84h-110v26l110 240h28v-240h25v-26h-25v-84h-28zM45 110h84v185z" />
    <glyph glyph-name="five.dnom" horiz-adv-x="194" 
d="M65 163h-27v187h119v-28h-92v-112c10 11 24 18 42 18c35 0 58 -26 58 -65v-103c0 -39 -26 -65 -66 -65c-39 0 -66 26 -66 65v27h29v-26c0 -24 15 -39 37 -39s37 15 37 39v101c0 25 -15 41 -36 41s-35 -16 -35 -40z" />
    <glyph glyph-name="six.dnom" horiz-adv-x="204" 
d="M141 267v23c0 23 -15 39 -37 39s-37 -16 -37 -39v-93c10 12 25 20 44 20c35 0 59 -26 59 -65v-92c0 -39 -26 -65 -66 -65c-39 0 -66 26 -66 65v231c0 38 27 64 66 64c40 0 66 -26 66 -65v-23h-29zM67 151v-90c0 -24 15 -39 37 -39s37 15 37 39v90c0 23 -15 39 -37 39
s-37 -16 -37 -39z" />
    <glyph glyph-name="seven.dnom" horiz-adv-x="190" 
d="M56 0l71 324h-103v27l132 -1v-26l-71 -324h-29z" />
    <glyph glyph-name="eight.dnom" horiz-adv-x="208" 
d="M38 128c0 28 12 48 34 58c-20 10 -32 30 -32 56v47c0 38 26 64 64 64c39 0 64 -26 64 -64v-47c0 -26 -12 -46 -32 -56c22 -10 34 -30 34 -58v-66c0 -39 -26 -65 -66 -65c-39 0 -66 26 -66 65v66zM69 288v-50c0 -24 14 -39 35 -39s35 15 35 39v50c0 23 -14 39 -35 39
s-35 -16 -35 -39zM67 133v-70c0 -24 15 -40 37 -40s37 16 37 40v70c0 24 -15 39 -37 39s-37 -15 -37 -39z" />
    <glyph glyph-name="nine.dnom" horiz-adv-x="204" 
d="M34 83h29v-22c0 -24 15 -39 37 -39s37 15 37 39v92c-10 -12 -25 -20 -44 -20c-35 0 -59 26 -59 65v92c0 39 26 65 66 65c39 0 66 -26 66 -65v-231c0 -38 -27 -64 -66 -64c-40 0 -66 27 -66 65v23zM137 199v90c0 24 -15 39 -37 39s-37 -15 -37 -39v-90
c0 -23 15 -39 37 -39s37 16 37 39z" />
    <glyph glyph-name="uni24EA" unicode="&#x24ea;" horiz-adv-x="437" 
d="M38 532c0 103 72 173 181 173c108 0 180 -69 180 -173v-365c0 -103 -72 -172 -180 -172c-109 0 -181 69 -181 172v365zM68 532v-365c0 -85 61 -142 152 -142c89 0 149 57 149 142v365c0 86 -60 143 -149 143c-91 0 -152 -57 -152 -143zM152 465c0 38 27 65 67 65
c39 0 66 -27 66 -65v-229c0 -39 -27 -66 -66 -66c-40 0 -67 27 -67 66v229zM181 465v-229c0 -24 15 -38 38 -38c22 0 37 14 37 38v229c0 23 -15 38 -37 38c-23 0 -38 -15 -38 -38z" />
    <glyph glyph-name="uni2460" unicode="&#x2460;" horiz-adv-x="437" 
d="M38 532c0 103 72 173 181 173c108 0 180 -69 180 -173v-365c0 -103 -72 -172 -180 -172c-109 0 -181 69 -181 172v365zM68 532v-365c0 -85 61 -142 152 -142c89 0 149 57 149 142v365c0 86 -60 143 -149 143c-91 0 -152 -57 -152 -143zM213 175v311l-47 -37l-18 20l71 56
h23v-350h-29z" />
    <glyph glyph-name="uni2461" unicode="&#x2461;" horiz-adv-x="437" 
d="M38 532c0 103 72 173 181 173c108 0 180 -69 180 -173v-365c0 -103 -72 -172 -180 -172c-109 0 -181 69 -181 172v365zM68 532v-365c0 -85 61 -142 152 -142c89 0 149 57 149 142v365c0 86 -60 143 -149 143c-91 0 -152 -57 -152 -143zM258 388v77c0 23 -15 38 -38 38
c-22 0 -37 -15 -37 -38v-37h-29v38c0 38 27 64 66 64c40 0 67 -26 67 -64v-78c0 -36 -29 -60 -58 -80c-22 -18 -43 -34 -43 -57v-48h103v-28h-131v76c0 36 27 58 56 80c23 18 44 34 44 57z" />
    <glyph glyph-name="uni2462" unicode="&#x2462;" horiz-adv-x="437" 
d="M38 532c0 103 72 173 181 173c108 0 180 -69 180 -173v-365c0 -103 -72 -172 -180 -172c-109 0 -181 69 -181 172v365zM68 532v-365c0 -85 61 -142 152 -142c89 0 149 57 149 142v365c0 86 -60 143 -149 143c-91 0 -152 -57 -152 -143zM154 441v25c0 38 27 64 66 64
s64 -26 64 -64v-49c0 -26 -12 -46 -32 -56c20 -10 33 -30 33 -57v-69c0 -39 -26 -65 -66 -65c-39 0 -65 26 -65 65v25h28v-24c0 -24 15 -39 37 -39c23 0 38 15 38 39v72c0 24 -16 40 -40 40h-15v25h15c24 0 39 16 39 40v52c0 23 -14 38 -36 38c-21 0 -37 -15 -37 -38v-24
h-29z" />
    <glyph glyph-name="uni2463" unicode="&#x2463;" horiz-adv-x="437" 
d="M38 532c0 103 72 173 181 173c108 0 180 -69 180 -173v-365c0 -103 -72 -172 -180 -172c-109 0 -181 69 -181 172v365zM68 532v-365c0 -85 61 -142 152 -142c89 0 149 57 149 142v365c0 86 -60 143 -149 143c-91 0 -152 -57 -152 -143zM241 175v84h-110v26l110 240h28
v-240h25v-26h-25v-84h-28zM157 285h84v185z" />
    <glyph glyph-name="uni2464" unicode="&#x2464;" horiz-adv-x="437" 
d="M38 532c0 103 72 173 181 173c108 0 180 -69 180 -173v-365c0 -103 -72 -172 -180 -172c-109 0 -181 69 -181 172v365zM68 532v-365c0 -85 61 -142 152 -142c89 0 149 57 149 142v365c0 86 -60 143 -149 143c-91 0 -152 -57 -152 -143zM186 338h-27v187h120v-28h-93v-112
c10 11 25 18 42 18c35 0 59 -26 59 -65v-103c0 -39 -27 -65 -66 -65c-40 0 -66 26 -66 65v27h28v-26c0 -24 15 -39 37 -39c23 0 38 15 38 39v101c0 25 -15 41 -37 41c-21 0 -35 -16 -35 -40z" />
    <glyph glyph-name="uni2465" unicode="&#x2465;" horiz-adv-x="437" 
d="M38 532c0 103 72 173 181 173c108 0 180 -69 180 -173v-365c0 -103 -72 -172 -180 -172c-109 0 -181 69 -181 172v365zM68 532v-365c0 -85 61 -142 152 -142c89 0 149 57 149 142v365c0 86 -60 143 -149 143c-91 0 -152 -57 -152 -143zM255 442v23c0 23 -14 39 -37 39
c-22 0 -37 -16 -37 -39v-93c11 12 26 20 44 20c35 0 60 -26 60 -65v-92c0 -39 -27 -65 -66 -65c-40 0 -66 26 -66 65v231c0 38 26 64 66 64c39 0 65 -26 65 -65v-23h-29zM181 326v-90c0 -24 15 -39 37 -39c23 0 38 15 38 39v90c0 23 -15 39 -38 39c-22 0 -37 -16 -37 -39z
" />
    <glyph glyph-name="uni2466" unicode="&#x2466;" horiz-adv-x="437" 
d="M38 532c0 103 72 173 181 173c108 0 180 -69 180 -173v-365c0 -103 -72 -172 -180 -172c-109 0 -181 69 -181 172v365zM68 532v-365c0 -85 61 -142 152 -142c89 0 149 57 149 142v365c0 86 -60 143 -149 143c-91 0 -152 -57 -152 -143zM185 175l71 324h-104v27l133 -1
v-26l-72 -324h-28z" />
    <glyph glyph-name="uni2467" unicode="&#x2467;" horiz-adv-x="437" 
d="M38 532c0 103 72 173 181 173c108 0 180 -69 180 -173v-365c0 -103 -72 -172 -180 -172c-109 0 -181 69 -181 172v365zM68 532v-365c0 -85 61 -142 152 -142c89 0 149 57 149 142v365c0 86 -60 143 -149 143c-91 0 -152 -57 -152 -143zM152 303c0 28 13 48 34 58
c-19 10 -32 30 -32 56v47c0 38 26 64 65 64c38 0 64 -26 64 -64v-47c0 -26 -13 -46 -32 -56c21 -10 34 -30 34 -58v-66c0 -39 -27 -65 -66 -65c-40 0 -67 26 -67 65v66zM183 463v-50c0 -24 14 -39 35 -39c22 0 36 15 36 39v50c0 23 -14 39 -36 39c-21 0 -35 -16 -35 -39z
M181 308v-70c0 -24 15 -40 37 -40c23 0 38 16 38 40v70c0 24 -15 39 -38 39c-22 0 -37 -15 -37 -39z" />
    <glyph glyph-name="uni2468" unicode="&#x2468;" horiz-adv-x="437" 
d="M38 532c0 103 72 173 181 173c108 0 180 -69 180 -173v-365c0 -103 -72 -172 -180 -172c-109 0 -181 69 -181 172v365zM68 532v-365c0 -85 61 -142 152 -142c89 0 149 57 149 142v365c0 86 -60 143 -149 143c-91 0 -152 -57 -152 -143zM151 258h29v-22
c0 -24 15 -39 37 -39s37 15 37 39v92c-10 -12 -25 -20 -44 -20c-35 0 -59 26 -59 65v92c0 39 26 65 65 65c40 0 67 -26 67 -65v-231c0 -38 -27 -64 -66 -64c-40 0 -66 27 -66 65v23zM254 374v90c0 24 -15 39 -37 39c-23 0 -38 -15 -38 -39v-90c0 -23 15 -39 38 -39
c22 0 37 16 37 39z" />
    <glyph glyph-name="uni24FF" unicode="&#x24ff;" horiz-adv-x="437" 
d="M38 532c0 103 72 173 181 173c108 0 180 -69 180 -173v-365c0 -103 -72 -172 -180 -172c-109 0 -181 69 -181 172v365zM152 465v-229c0 -39 27 -66 67 -66c39 0 66 27 66 66v229c0 38 -27 65 -66 65c-40 0 -67 -27 -67 -65zM181 465c0 23 15 38 38 38c22 0 37 -15 37 -38
v-229c0 -24 -15 -38 -37 -38c-23 0 -38 14 -38 38v229z" />
    <glyph glyph-name="uni278A" unicode="&#x278a;" horiz-adv-x="437" 
d="M38 532c0 103 72 173 181 173c108 0 180 -69 180 -173v-365c0 -103 -72 -172 -180 -172c-109 0 -181 69 -181 172v365zM213 175h29v350h-23l-71 -56l18 -20l47 37v-311z" />
    <glyph glyph-name="uni278B" unicode="&#x278b;" horiz-adv-x="437" 
d="M38 532c0 103 72 173 181 173c108 0 180 -69 180 -173v-365c0 -103 -72 -172 -180 -172c-109 0 -181 69 -181 172v365zM258 388c0 -23 -21 -39 -44 -57c-29 -22 -56 -44 -56 -80v-76h131v28h-103v48c0 23 21 39 43 57c29 20 58 44 58 80v78c0 38 -27 64 -67 64
c-39 0 -66 -26 -66 -64v-38h29v37c0 23 15 38 37 38c23 0 38 -15 38 -38v-77z" />
    <glyph glyph-name="uni278C" unicode="&#x278c;" horiz-adv-x="437" 
d="M38 532c0 103 72 173 181 173c108 0 180 -69 180 -173v-365c0 -103 -72 -172 -180 -172c-109 0 -181 69 -181 172v365zM154 441h29v24c0 23 16 38 37 38c22 0 36 -15 36 -38v-52c0 -24 -15 -40 -39 -40h-15v-25h15c24 0 40 -16 40 -40v-72c0 -24 -15 -39 -38 -39
c-22 0 -37 15 -37 39v24h-28v-25c0 -39 26 -65 65 -65c40 0 66 26 66 65v69c0 27 -13 47 -33 57c20 10 32 30 32 56v49c0 38 -25 64 -64 64s-66 -26 -66 -64v-25z" />
    <glyph glyph-name="uni278D" unicode="&#x278d;" horiz-adv-x="437" 
d="M38 532c0 103 72 173 181 173c108 0 180 -69 180 -173v-365c0 -103 -72 -172 -180 -172c-109 0 -181 69 -181 172v365zM241 175h28v84h25v26h-25v240h-28l-110 -240v-26h110v-84zM157 285l84 185v-185h-84z" />
    <glyph glyph-name="uni278E" unicode="&#x278e;" horiz-adv-x="437" 
d="M38 532c0 103 72 173 181 173c108 0 180 -69 180 -173v-365c0 -103 -72 -172 -180 -172c-109 0 -181 69 -181 172v365zM186 338c0 24 14 40 35 40c22 0 37 -16 37 -41v-101c0 -24 -15 -39 -38 -39c-22 0 -37 15 -37 39v26h-28v-27c0 -39 26 -65 66 -65c39 0 66 26 66 65
v103c0 39 -24 65 -59 65c-17 0 -32 -7 -42 -18v112h93v28h-120v-187h27z" />
    <glyph glyph-name="uni278F" unicode="&#x278f;" horiz-adv-x="437" 
d="M38 532c0 103 72 173 181 173c108 0 180 -69 180 -173v-365c0 -103 -72 -172 -180 -172c-109 0 -181 69 -181 172v365zM255 442h29v23c0 39 -26 65 -65 65c-40 0 -66 -26 -66 -64v-231c0 -39 26 -65 66 -65c39 0 66 26 66 65v92c0 39 -25 65 -60 65c-18 0 -33 -8 -44 -20
v93c0 23 15 39 37 39c23 0 37 -16 37 -39v-23zM181 326c0 23 15 39 37 39c23 0 38 -16 38 -39v-90c0 -24 -15 -39 -38 -39c-22 0 -37 15 -37 39v90z" />
    <glyph glyph-name="uni2790" unicode="&#x2790;" horiz-adv-x="437" 
d="M38 532c0 103 72 173 181 173c108 0 180 -69 180 -173v-365c0 -103 -72 -172 -180 -172c-109 0 -181 69 -181 172v365zM185 175h28l72 324v26l-133 1v-27h104z" />
    <glyph glyph-name="uni2791" unicode="&#x2791;" horiz-adv-x="437" 
d="M38 532c0 103 72 173 181 173c108 0 180 -69 180 -173v-365c0 -103 -72 -172 -180 -172c-109 0 -181 69 -181 172v365zM152 303v-66c0 -39 27 -65 67 -65c39 0 66 26 66 65v66c0 28 -13 48 -34 58c19 10 32 30 32 56v47c0 38 -26 64 -64 64c-39 0 -65 -26 -65 -64v-47
c0 -26 13 -46 32 -56c-21 -10 -34 -30 -34 -58zM183 463c0 23 14 39 35 39c22 0 36 -16 36 -39v-50c0 -24 -14 -39 -36 -39c-21 0 -35 15 -35 39v50zM181 308c0 24 15 39 37 39c23 0 38 -15 38 -39v-70c0 -24 -15 -40 -38 -40c-22 0 -37 16 -37 40v70z" />
    <glyph glyph-name="uni2792" unicode="&#x2792;" horiz-adv-x="437" 
d="M38 532c0 103 72 173 181 173c108 0 180 -69 180 -173v-365c0 -103 -72 -172 -180 -172c-109 0 -181 69 -181 172v365zM151 258v-23c0 -38 26 -65 66 -65c39 0 66 26 66 64v231c0 39 -27 65 -67 65c-39 0 -65 -26 -65 -65v-92c0 -39 24 -65 59 -65c19 0 34 8 44 20v-92
c0 -24 -15 -39 -37 -39s-37 15 -37 39v22h-29zM254 374c0 -23 -15 -39 -37 -39c-23 0 -38 16 -38 39v90c0 24 15 39 38 39c22 0 37 -15 37 -39v-90z" />
    <glyph glyph-name="cent" unicode="&#xa2;" horiz-adv-x="328" 
d="M252 329v56c0 53 -33 88 -83 88s-83 -35 -83 -88v-250c0 -65 35 -108 93 -108c28 0 60 10 102 33v-34c-35 -18 -64 -28 -92 -30v-114h-30v114c-67 8 -107 61 -107 139v250c0 68 42 115 106 120v113h30v-114c60 -8 98 -54 98 -119v-56h-34z" />
    <glyph glyph-name="dollar" unicode="$" horiz-adv-x="329" 
d="M86 493c0 -51 46 -86 93 -125c52 -41 107 -85 107 -151v-102c0 -64 -37 -109 -96 -118v-87h-31v85c-67 3 -112 51 -112 120v87h34v-87c0 -53 34 -88 85 -88c52 0 86 35 86 88v102c0 50 -45 86 -92 124c-53 41 -108 85 -108 152v92c0 65 38 111 97 119v86h31v-86
c61 -5 101 -51 101 -119v-86h-34v86c0 53 -32 88 -80 88c-49 0 -81 -35 -81 -88v-92z" />
    <glyph glyph-name="Euro" unicode="&#x20ac;" horiz-adv-x="368" 
d="M296 527v58c0 53 -34 88 -85 88c-53 0 -86 -35 -86 -88v-162h140v-31h-140v-113h135v-31h-135v-113c0 -65 36 -108 95 -108c30 0 62 10 104 33v-34c-40 -21 -74 -31 -106 -31c-80 0 -127 56 -127 140v113h-72v31h72v113h-72v31h72v162c0 72 47 120 120 120
c71 0 118 -48 118 -120v-58h-33z" />
    <glyph glyph-name="sterling" unicode="&#xa3;" horiz-adv-x="343" 
d="M250 507v78c0 53 -34 88 -84 88s-83 -35 -83 -88c0 -113 47 -190 69 -274h123v-30h-116c2 -16 4 -32 4 -48c0 -56 -22 -120 -75 -201h223v-32h-267v22c60 87 85 154 85 212c0 16 -2 31 -4 47h-88v30h81c-22 82 -69 159 -69 274c0 72 46 120 117 120s117 -48 117 -120v-78
h-33z" />
    <glyph glyph-name="yen" unicode="&#xa5;" horiz-adv-x="352" 
d="M159 0v127h-115v30h115v77h-115v30h115v29l-135 407h36l115 -353l117 353h35l-134 -404v-32h114v-30h-114v-77h114v-30h-114v-127h-34z" />
    <glyph glyph-name="uni20B4" unicode="&#x20b4;" horiz-adv-x="399" 
d="M208 705c72 0 118 -47 118 -118c0 -54 -14 -100 -48 -155h84v-30h-104c-13 -18 -28 -36 -45 -57c-16 -18 -29 -36 -41 -53h190v-31h-209c-25 -47 -37 -92 -37 -144c0 -54 35 -90 88 -90c32 0 68 10 110 33v-34c-41 -21 -76 -31 -108 -31c-75 0 -124 49 -124 122
c0 49 12 95 38 144h-82v31h100c15 25 35 51 58 80c8 11 16 20 23 30h-181v30h203c37 57 51 103 51 155s-33 86 -83 86c-31 0 -67 -10 -109 -33v34c42 21 76 31 108 31z" />
    <glyph glyph-name="uni20BD" unicode="&#x20bd;" horiz-adv-x="389" 
d="M33 338h72v362h126c76 0 126 -48 126 -120v-154c0 -72 -50 -120 -126 -120h-92v-119h157v-31h-157v-156h-34v156h-72v31h72v119h-72v32zM139 338h92c55 0 92 35 92 88v154c0 53 -37 88 -92 88h-92v-330z" />
    <glyph glyph-name="uni20BF" unicode="&#x20bf;" horiz-adv-x="374" 
d="M111 -90v90h-40v700h40v90h27v-90h49h13v93h26v-98c54 -13 87 -56 87 -115v-111c0 -49 -23 -87 -62 -106c49 -16 80 -58 80 -114v-129c0 -65 -41 -110 -105 -119v-88h-26v87h-62v-90h-27zM105 375h82c56 0 93 35 93 88v117c0 53 -37 88 -93 88h-82v-293zM105 32h100
c55 0 92 35 92 88v135c0 53 -37 88 -92 88h-100v-311z" />
    <glyph glyph-name="period" unicode="." horiz-adv-x="214" 
d="M71 31c0 21 16 37 36 37s36 -16 36 -37c0 -20 -16 -36 -36 -36s-36 16 -36 36z" />
    <glyph glyph-name="comma" unicode="," horiz-adv-x="199" 
d="M32 -137l71 210l34 -11l-80 -207z" />
    <glyph glyph-name="colon" unicode=":" horiz-adv-x="177" 
d="M52 469c0 20 16 36 37 36c20 0 36 -16 36 -36s-16 -36 -36 -36c-21 0 -37 16 -37 36zM52 31c0 21 16 37 37 37c20 0 36 -16 36 -37c0 -20 -16 -36 -36 -36c-21 0 -37 16 -37 36z" />
    <glyph glyph-name="semicolon" unicode=";" horiz-adv-x="191" 
d="M67 469c0 20 16 36 36 36s36 -16 36 -36s-16 -36 -36 -36s-36 16 -36 36zM25 -137l71 210l33 -11l-80 -207z" />
    <glyph glyph-name="exclam" unicode="!" horiz-adv-x="194" 
d="M82 180l-3 520h36l-3 -520h-30zM61 31c0 21 16 37 36 37s36 -16 36 -37c0 -20 -16 -36 -36 -36s-36 16 -36 36z" />
    <glyph glyph-name="exclamdown" unicode="&#xa1;" horiz-adv-x="194" 
d="M61 469c0 20 16 36 36 36s36 -16 36 -36s-16 -36 -36 -36s-36 16 -36 36zM82 320h30l3 -520h-36z" />
    <glyph glyph-name="exclamdown.case" horiz-adv-x="194" 
d="M61 669c0 20 16 36 36 36s36 -16 36 -36s-16 -36 -36 -36s-36 16 -36 36zM82 520h30l3 -520h-36z" />
    <glyph glyph-name="question" unicode="?" horiz-adv-x="305" 
d="M234 508v77c0 53 -34 88 -83 88c-51 0 -85 -35 -85 -88v-52h-34v52c0 72 48 120 119 120c70 0 117 -49 117 -119v-77c0 -56 -28 -96 -50 -124c-35 -45 -59 -79 -60 -125l-2 -80h-28l-3 78c-1 56 30 99 69 151c17 23 40 53 40 99zM109 31c0 21 16 37 36 37
c21 0 37 -16 37 -37c0 -20 -16 -36 -37 -36c-20 0 -36 16 -36 36z" />
    <glyph glyph-name="questiondown" unicode="&#xbf;" horiz-adv-x="300" 
d="M201 469c0 -20 -16 -36 -36 -36s-36 16 -36 36s16 36 36 36s36 -16 36 -36zM76 -8v-77c0 -53 34 -88 84 -88s84 35 84 88v52h34v-52c0 -72 -48 -120 -118 -120s-118 49 -118 119v77c0 56 28 96 50 124c35 45 59 79 60 125l3 80h28l2 -78c1 -56 -29 -99 -69 -151
c-17 -23 -40 -53 -40 -99z" />
    <glyph glyph-name="questiondown.case" horiz-adv-x="301" 
d="M201 669c0 -20 -16 -36 -36 -36s-36 16 -36 36s16 36 36 36s36 -16 36 -36zM76 192v-77c0 -53 34 -88 84 -88s84 35 84 88v52h34v-52c0 -72 -48 -120 -118 -120s-118 49 -118 119v77c0 56 28 96 50 124c35 45 59 79 60 125l3 80h28l2 -78c1 -56 -29 -99 -69 -151
c-17 -23 -40 -53 -40 -99z" />
    <glyph glyph-name="quotedbl" unicode="&#x22;" horiz-adv-x="283" 
d="M68 470l-2 230h34l-2 -230h-30zM185 470l-2 230h34l-2 -230h-30z" />
    <glyph glyph-name="quotesingle" unicode="'" horiz-adv-x="166" 
d="M68 470l-2 230h34l-2 -230h-30z" />
    <glyph glyph-name="quotesinglbase" unicode="&#x201a;" horiz-adv-x="192" 
d="M32 -117l64 190l34 -11l-73 -187z" />
    <glyph glyph-name="quotedblbase" unicode="&#x201e;" horiz-adv-x="302" 
d="M32 -117l64 190l34 -11l-73 -187zM142 -117l64 190l33 -11l-73 -187z" />
    <glyph glyph-name="quoteleft" unicode="&#x2018;" horiz-adv-x="162" 
d="M130 747l-64 -190l-34 12l74 186z" />
    <glyph glyph-name="quoteright" unicode="&#x2019;" horiz-adv-x="167" 
d="M37 565l64 190l34 -12l-73 -186z" />
    <glyph glyph-name="quotereversed" unicode="&#x201b;" horiz-adv-x="167" 
d="M130 565l-24 -8l-74 186l34 12z" />
    <glyph glyph-name="quotedblleft" unicode="&#x201c;" horiz-adv-x="272" 
d="M239 747l-64 -190l-33 12l73 186zM130 747l-64 -190l-34 12l74 186z" />
    <glyph glyph-name="quotedblright" unicode="&#x201d;" horiz-adv-x="277" 
d="M37 565l64 190l34 -12l-73 -186zM147 565l64 190l33 -12l-73 -186z" />
    <glyph glyph-name="uni201F" unicode="&#x201f;" horiz-adv-x="277" 
d="M239 565l-24 -8l-73 186l33 12zM130 565l-24 -8l-74 186l34 12z" />
    <glyph glyph-name="asterisk" unicode="*" horiz-adv-x="280" 
d="M124 700h30l-2 -98l92 32l9 -28l-94 -28l59 -77l-24 -18l-56 81l-55 -79l-24 16l60 78l-92 27l8 29l92 -33z" />
    <glyph glyph-name="guillemotleft" unicode="&#xab;" horiz-adv-x="393" 
d="M153 88l-96 182l96 182h38l-97 -182l97 -182h-38zM290 88l-96 182l96 182h38l-97 -182l97 -182h-38z" />
    <glyph glyph-name="guillemotright" unicode="&#xbb;" horiz-adv-x="393" 
d="M240 88h-38l97 182l-97 182h38l96 -182zM103 88h-38l97 182l-97 182h38l96 -182z" />
    <glyph glyph-name="guillemotleft.case" horiz-adv-x="393" 
d="M153 168l-96 182l96 182h38l-97 -182l97 -182h-38zM290 168l-96 182l96 182h38l-97 -182l97 -182h-38z" />
    <glyph glyph-name="guillemotright.case" horiz-adv-x="393" 
d="M240 168h-38l97 182l-97 182h38l96 -182zM103 168h-38l97 182l-97 182h38l96 -182z" />
    <glyph glyph-name="guilsinglleft" unicode="&#x2039;" horiz-adv-x="255" 
d="M153 88l-96 182l96 182h38l-97 -182l97 -182h-38z" />
    <glyph glyph-name="guilsinglright" unicode="&#x203a;" horiz-adv-x="255" 
d="M103 88h-38l97 182l-97 182h38l96 -182z" />
    <glyph glyph-name="guilsinglleft.case" horiz-adv-x="255" 
d="M153 168l-96 182l96 182h38l-97 -182l97 -182h-38z" />
    <glyph glyph-name="guilsinglright.case" horiz-adv-x="255" 
d="M103 168h-38l97 182l-97 182h38l96 -182z" />
    <glyph glyph-name="hyphen" unicode="-" horiz-adv-x="333" 
d="M67 254v32h200v-32h-200z" />
    <glyph glyph-name="hyphen.case" horiz-adv-x="333" 
d="M67 334v32h200v-32h-200z" />
    <glyph glyph-name="endash" unicode="&#x2013;" horiz-adv-x="508" 
d="M67 254v32h375v-32h-375z" />
    <glyph glyph-name="endash.case" horiz-adv-x="508" 
d="M67 334v32h375v-32h-375z" />
    <glyph glyph-name="uni2015" unicode="&#x2014;" horiz-adv-x="808" 
d="M67 254v32h675v-32h-675z" />
    <glyph glyph-name="uni2015" unicode="&#x2015;" horiz-adv-x="808" 
d="M67 254v32h675v-32h-675z" />
    <glyph glyph-name="emdash.case" horiz-adv-x="808" 
d="M67 334v32h675v-32h-675z" />
    <glyph glyph-name="periodcentered" unicode="&#xb7;" horiz-adv-x="214" 
d="M71 350c0 20 16 36 36 36s36 -16 36 -36s-16 -36 -36 -36s-36 16 -36 36z" />
    <glyph glyph-name="bullet" unicode="&#x2022;" horiz-adv-x="277" 
d="M71 270c0 39 30 68 67 68c40 0 68 -29 68 -68c0 -37 -28 -68 -68 -68c-37 0 -67 31 -67 68z" />
    <glyph glyph-name="bullet.case" horiz-adv-x="277" 
d="M71 350c0 39 30 68 67 68c40 0 68 -29 68 -68c0 -37 -28 -68 -68 -68c-37 0 -67 31 -67 68z" />
    <glyph glyph-name="ellipsis" unicode="&#x2026;" horiz-adv-x="625" 
d="M71 31c0 21 16 37 36 37s36 -16 36 -37c0 -20 -16 -36 -36 -36s-36 16 -36 36zM277 31c0 21 16 37 36 37s36 -16 36 -37c0 -20 -16 -36 -36 -36s-36 16 -36 36zM482 31c0 21 16 37 36 37s36 -16 36 -37c0 -20 -16 -36 -36 -36s-36 16 -36 36z" />
    <glyph glyph-name="uni00AD" unicode="&#xad;" horiz-adv-x="333" 
d="M67 254v32h200v-32h-200z" />
    <glyph glyph-name="numbersign" unicode="#" horiz-adv-x="517" 
d="M88 0l36 204h-111l6 30h110l41 231h-111l6 29l111 1l36 205h30l-36 -205h156l37 205h30l-36 -205h111l-6 -29l-111 -1l-41 -231h112l-6 -29h-111l-36 -205h-30l36 205l-156 -1l-37 -204h-30zM160 234h156l41 231h-156z" />
    <glyph glyph-name="ampersand" unicode="&#x26;" horiz-adv-x="410" 
d="M202 -5c-77 0 -136 48 -136 120v134c0 54 28 95 74 112c-41 18 -67 57 -67 108v116c0 72 50 120 124 120c72 0 120 -48 120 -120v-68h-34v68c0 53 -34 88 -86 88c-54 0 -90 -35 -90 -88v-122c0 -53 37 -88 92 -88h183v-32h-68v-317c-41 -21 -78 -31 -112 -31zM282 47v296
h-90c-56 0 -92 -35 -92 -88v-140c0 -53 45 -88 102 -88c24 0 50 6 80 20z" />
    <glyph glyph-name="at" unicode="@" horiz-adv-x="682" 
d="M341 605c173 0 288 -139 288 -342c0 -133 -47 -217 -119 -217c-38 0 -68 24 -82 63c-17 -40 -54 -64 -103 -64c-69 0 -114 48 -114 120v150c0 72 45 120 114 120c42 0 75 -18 95 -48v43h33v-266c0 -54 25 -89 61 -89c52 0 87 72 87 185c0 188 -104 316 -260 316
s-260 -130 -260 -326s108 -326 270 -326c14 0 28 1 42 4l6 -28c-16 -3 -33 -5 -53 -5c-174 0 -294 142 -294 355s116 355 289 355zM244 164c0 -53 35 -89 88 -89s88 36 88 89v152c0 53 -35 89 -88 89s-88 -36 -88 -89v-152z" />
    <glyph glyph-name="at.case" horiz-adv-x="670" 
d="M335 705c173 0 289 -139 289 -342c0 -133 -47 -217 -120 -217c-38 0 -68 24 -82 63c-17 -40 -54 -64 -103 -64c-69 0 -114 48 -114 120v150c0 72 45 120 114 120c42 0 75 -18 95 -48v43h33v-266c0 -54 25 -89 61 -89c53 0 87 72 87 185c0 188 -104 316 -260 316
s-260 -130 -260 -326s108 -326 270 -326c14 0 29 1 43 4l5 -28c-16 -3 -33 -5 -53 -5c-174 0 -293 142 -293 355s115 355 288 355zM238 264c0 -53 35 -89 88 -89s88 36 88 89v152c0 53 -35 89 -88 89s-88 -36 -88 -89v-152z" />
    <glyph glyph-name="section" unicode="&#xa7;" horiz-adv-x="317" 
d="M280 267c0 -60 -29 -103 -77 -119c40 -27 73 -62 73 -127c0 -78 -47 -126 -119 -126c-71 0 -118 48 -118 120v28h33v-28c0 -53 34 -88 86 -88c50 0 84 36 84 93c0 68 -48 96 -92 121c-58 32 -113 64 -113 144v56c0 60 28 103 74 119c-39 26 -70 59 -70 119
c0 78 46 126 115 126s114 -48 114 -120v-28h-34v28c0 53 -32 88 -80 88c-49 0 -81 -36 -81 -93c0 -62 45 -88 88 -113c59 -33 117 -65 117 -151v-49zM160 173c53 1 88 38 88 93v49c0 66 -48 94 -95 120c-51 -1 -84 -38 -84 -93v-57c0 -60 44 -85 91 -112z" />
    <glyph glyph-name="uni2116" unicode="&#x2116;" horiz-adv-x="580" 
d="M381 596c0 65 35 109 88 109s88 -44 88 -109v-107c0 -65 -35 -109 -88 -109s-88 44 -88 109v107zM71 0v700h29l190 -592v592h33v-700h-30l-189 592v-592h-33zM412 597v-109c0 -47 23 -79 57 -79s57 32 57 79v109c0 47 -23 79 -57 79s-57 -32 -57 -79zM381 274v30h176v-30
h-176z" />
    <glyph glyph-name="paragraph" unicode="&#xb6;" horiz-adv-x="550" 
d="M385 -150v820h-121v-820h-31v465c-110 0 -186 77 -186 193s76 192 186 192h270v-30h-86v-820h-32z" />
    <glyph glyph-name="trademark" unicode="&#x2122;" horiz-adv-x="432" 
d="M73 349v325h-64v26h156v-26h-63v-325h-29zM240 700l60 -248l60 248h39v-350h-26v305l-62 -245h-21l-62 245v-305h-26v350h38z" />
    <glyph glyph-name="copyright" unicode="&#xa9;" horiz-adv-x="437" 
d="M38 532c0 103 72 173 181 173c108 0 180 -69 180 -173v-365c0 -103 -72 -172 -180 -172c-109 0 -181 69 -181 172v365zM68 532v-365c0 -85 61 -142 152 -142c89 0 149 57 149 142v365c0 86 -60 143 -149 143c-91 0 -152 -57 -152 -143zM255 421v41c0 23 -14 39 -37 39
s-38 -16 -38 -39v-213c0 -30 16 -50 45 -50c14 0 33 5 55 16v-27c-21 -10 -40 -16 -57 -16c-45 0 -72 31 -72 77v213c0 39 26 66 67 66c39 0 66 -27 66 -66v-41h-29z" />
    <glyph glyph-name="registered" unicode="&#xae;" horiz-adv-x="437" 
d="M38 532c0 103 72 173 181 173c108 0 180 -69 180 -173v-365c0 -103 -72 -172 -180 -172c-109 0 -181 69 -181 172v365zM68 532v-365c0 -85 61 -142 152 -142c89 0 149 57 149 142v365c0 86 -60 143 -149 143c-91 0 -152 -57 -152 -143zM273 175l-47 148v0h-41v-148h-28
v350h69c42 0 69 -26 69 -65v-71c0 -31 -16 -53 -43 -62l51 -152h-30zM185 348h41c25 0 40 16 40 40v72c0 24 -15 39 -40 39h-41v-151z" />
    <glyph glyph-name="uni2117" unicode="&#x2117;" horiz-adv-x="437" 
d="M38 532c0 103 72 173 181 173c108 0 180 -69 180 -173v-365c0 -103 -72 -172 -180 -172c-109 0 -181 69 -181 172v365zM68 532v-365c0 -85 61 -142 152 -142c89 0 149 57 149 142v365c0 86 -60 143 -149 143c-91 0 -152 -57 -152 -143zM162 175v350h69
c42 0 69 -26 69 -65v-72c0 -40 -27 -65 -69 -65h-40v-148h-29zM191 348h40c25 0 40 16 40 40v72c0 24 -15 39 -40 39h-40v-151z" />
    <glyph glyph-name="bar" unicode="|" horiz-adv-x="183" 
d="M76 -150v900h32v-900h-32z" />
    <glyph glyph-name="bar.case" horiz-adv-x="183" 
d="M76 -50v800h32v-800h-32z" />
    <glyph glyph-name="brokenbar" unicode="&#xa6;" horiz-adv-x="183" 
d="M108 370h-32v380h32v-380zM76 230h32v-380h-32v380z" />
    <glyph glyph-name="brokenbar.case" horiz-adv-x="183" 
d="M108 420h-32v330h32v-330zM76 280h32v-330h-32v330z" />
    <glyph glyph-name="dagger" unicode="&#x2020;" horiz-adv-x="332" 
d="M150 -100v572h-137v32h137v196h32v-196h137v-32h-137v-572h-32z" />
    <glyph glyph-name="dagger.case" horiz-adv-x="332" 
d="M150 0v472h-137v32h137v196h32v-196h137v-32h-137v-472h-32z" />
    <glyph glyph-name="daggerdbl" unicode="&#x2021;" horiz-adv-x="332" 
d="M150 -100v197h-137v31h137v344h-137v32h137v196h32v-196h137v-32h-137v-344h137v-31h-137v-197h-32z" />
    <glyph glyph-name="daggerdbl.case" horiz-adv-x="332" 
d="M150 0v197h-137v31h137v244h-137v32h137v196h32v-196h137v-32h-137v-244h137v-31h-137v-197h-32z" />
    <glyph glyph-name="slash" unicode="/" horiz-adv-x="274" 
d="M0 -150l242 900h32l-242 -900h-32z" />
    <glyph glyph-name="slash.case" horiz-adv-x="247" 
d="M0 -50l215 800h32l-215 -800h-32z" />
    <glyph glyph-name="backslash" unicode="\" horiz-adv-x="274" 
d="M274 -150h-32l-242 900h32z" />
    <glyph glyph-name="backslash.case" horiz-adv-x="247" 
d="M247 -50h-32l-215 800h32z" />
    <glyph glyph-name="parenleft" unicode="(" horiz-adv-x="230" 
d="M196 -123v-32c-78 0 -130 48 -130 120v670c0 72 52 120 130 120v-32c-58 0 -96 -35 -96 -88v-670c0 -53 38 -88 96 -88z" />
    <glyph glyph-name="parenright" unicode=")" horiz-adv-x="230" 
d="M34 -123c58 0 96 35 96 88v670c0 53 -38 88 -96 88v32c78 0 130 -48 130 -120v-670c0 -72 -52 -120 -130 -120v32z" />
    <glyph glyph-name="parenleft.case" horiz-adv-x="230" 
d="M196 -23v-32c-78 0 -130 48 -130 120v570c0 72 52 120 130 120v-32c-58 0 -96 -35 -96 -88v-570c0 -53 38 -88 96 -88z" />
    <glyph glyph-name="parenright.case" horiz-adv-x="230" 
d="M34 -23c58 0 96 35 96 88v570c0 53 -38 88 -96 88v32c78 0 130 -48 130 -120v-570c0 -72 -52 -120 -130 -120v32z" />
    <glyph glyph-name="bracketleft" unicode="[" horiz-adv-x="244" 
d="M76 -150v900h132v-32h-98l-1 -836h99v-32h-132z" />
    <glyph glyph-name="bracketright" unicode="]" horiz-adv-x="244" 
d="M169 -150h-132v32h98v836h-98v32h132v-900z" />
    <glyph glyph-name="bracketleft.case" horiz-adv-x="244" 
d="M76 -50v800h132v-32h-98l-1 -736h99v-32h-132z" />
    <glyph glyph-name="bracketright.case" horiz-adv-x="244" 
d="M169 -50h-132v32h98v736h-98v32h132v-800z" />
    <glyph glyph-name="braceleft" unicode="{" horiz-adv-x="278" 
d="M125 404v231c0 72 41 120 119 120v-32c-58 0 -86 -35 -86 -87v-229c0 -50 -24 -89 -65 -107c41 -18 65 -57 65 -107v-229c0 -52 28 -87 86 -87v-32c-78 0 -119 48 -119 120v231c0 53 -39 88 -97 88v32c58 0 97 35 97 88z" />
    <glyph glyph-name="braceright" unicode="}" horiz-adv-x="278" 
d="M153 404c0 -53 39 -88 97 -88v-32c-58 0 -97 -35 -97 -88v-231c0 -72 -41 -120 -119 -120v32c58 0 86 35 86 87v229c0 50 24 89 65 107c-41 18 -65 57 -65 107v229c0 52 -28 87 -86 87v32c78 0 119 -48 119 -120v-231z" />
    <glyph glyph-name="braceleft.case" horiz-adv-x="278" 
d="M125 454v181c0 72 41 120 119 120v-32c-58 0 -86 -35 -86 -87v-179c0 -50 -24 -89 -65 -107c41 -18 65 -57 65 -107v-179c0 -52 28 -87 86 -87v-32c-78 0 -119 48 -119 120v181c0 53 -39 88 -97 88v32c58 0 97 35 97 88z" />
    <glyph glyph-name="braceright.case" horiz-adv-x="278" 
d="M153 454c0 -53 39 -88 97 -88v-32c-58 0 -97 -35 -97 -88v-181c0 -72 -41 -120 -119 -120v32c58 0 86 35 86 87v179c0 50 24 89 65 107c-41 18 -65 57 -65 107v179c0 52 -28 87 -86 87v32c78 0 119 -48 119 -120v-181z" />
    <glyph glyph-name="underscore" unicode="_" horiz-adv-x="252" 
d="M0 -82v32h252v-32h-252z" />
    <glyph glyph-name="plus" unicode="+" 
d="M57 304v32h120v131h32v-131h120v-32h-120v-131h-32v131h-120z" />
    <glyph glyph-name="plusminus" unicode="&#xb1;" 
d="M57 364v32h120v123h32v-123h120v-32h-120v-122h-32v122h-120zM57 131v33h272v-33h-272z" />
    <glyph glyph-name="minus" unicode="&#x2212;" 
d="M57 304v32h272v-32h-272z" />
    <glyph glyph-name="figuredash" unicode="&#x2012;" 
d="M57 304v32h272v-32h-272z" />
    <glyph glyph-name="multiply" unicode="&#xd7;" 
d="M67 423l23 23l103 -102l103 102l23 -23l-103 -103l103 -103l-23 -23l-103 103l-103 -103l-23 23l102 103z" />
    <glyph glyph-name="divide" unicode="&#xf7;" 
d="M158 456c0 20 15 35 35 35s35 -15 35 -35s-15 -35 -35 -35s-35 15 -35 35zM57 304v32h272v-32h-272zM158 184c0 20 15 35 35 35s35 -15 35 -35s-15 -35 -35 -35s-35 15 -35 35z" />
    <glyph glyph-name="dotmath" unicode="&#x22c5;" 
d="M156 320c0 21 16 37 37 37s37 -16 37 -37s-16 -37 -37 -37s-37 16 -37 37z" />
    <glyph glyph-name="equal" unicode="=" 
d="M57 384v32h272v-32h-272zM57 224v32h272v-32h-272z" />
    <glyph glyph-name="notequal" unicode="&#x2260;" 
d="M57 384v32h167l37 79h27l-37 -79h78v-32h-93l-59 -128h152v-32h-167l-37 -79h-27l37 79h-78v32h93l59 128h-152z" />
    <glyph glyph-name="approxequal" unicode="&#x2248;" 
d="M54 338c0 54 31 91 79 91c63 0 71 -66 121 -66c29 0 47 24 47 61h31c0 -55 -31 -91 -79 -91c-63 0 -71 66 -119 66c-30 0 -49 -25 -49 -61h-31zM54 218c0 54 31 91 79 91c63 0 71 -66 121 -66c29 0 47 24 47 61h31c0 -55 -31 -91 -79 -91c-63 0 -71 66 -119 66
c-30 0 -49 -25 -49 -61h-31z" />
    <glyph glyph-name="less" unicode="&#x3c;" 
d="M40 304v32l284 111v-34l-242 -93l242 -92v-35z" />
    <glyph glyph-name="greater" unicode="&#x3e;" 
d="M345 304l-284 -111v35l242 92l-242 93v34l284 -111v-32z" />
    <glyph glyph-name="lessequal" unicode="&#x2264;" 
d="M40 364v32l284 111v-34l-242 -93l242 -92v-35zM40 131v33h284v-33h-284z" />
    <glyph glyph-name="greaterequal" unicode="&#x2265;" 
d="M345 364l-284 -111v35l242 92l-242 93v34l284 -111v-32zM345 131h-284v33h284v-33z" />
    <glyph glyph-name="logicalnot" unicode="&#xac;" 
d="M50 342v32h273v-147h-33v115h-240z" />
    <glyph glyph-name="asciitilde" unicode="~" 
d="M54 278c0 54 31 91 79 91c63 0 71 -66 121 -66c29 0 47 24 47 61h31c0 -55 -31 -91 -79 -91c-63 0 -71 66 -119 66c-30 0 -49 -25 -49 -61h-31z" />
    <glyph glyph-name="asciicircum" unicode="^" 
d="M61 573l132 132l132 -132l-22 -23l-110 110l-110 -109z" />
    <glyph glyph-name="degree" unicode="&#xb0;" horiz-adv-x="272" 
d="M42 596c0 65 38 109 95 109c55 0 93 -44 93 -109v-20c0 -65 -38 -109 -93 -109c-57 0 -95 44 -95 109v20zM74 597v-22c0 -47 25 -79 63 -79c36 0 61 32 61 79v22c0 47 -25 79 -61 79c-38 0 -63 -32 -63 -79z" />
    <glyph glyph-name="currency" unicode="&#xa4;" 
d="M98 412c0 25 5 47 15 64l-69 82l24 18l64 -76c16 14 37 22 62 22c23 0 43 -8 58 -22l65 76l23 -18l-68 -82c9 -17 15 -39 15 -64v-123c0 -26 -6 -48 -16 -65l69 -82l-24 -18l-64 76c-15 -13 -35 -21 -58 -21c-25 0 -45 8 -61 22l-65 -77l-24 18l69 82
c-9 18 -15 40 -15 65v123zM129 413v-125c0 -48 25 -80 65 -80c37 0 62 32 62 80v125c0 48 -25 80 -62 80c-40 0 -65 -32 -65 -80z" />
    <glyph glyph-name="fraction" unicode="&#x2044;" horiz-adv-x="42" 
d="M-111 1l234 699h30l-234 -699h-30z" />
    <glyph glyph-name="percent" unicode="%" horiz-adv-x="468" 
d="M22 596c0 65 36 109 90 109c52 0 88 -44 88 -109v-124c0 -65 -36 -109 -88 -109c-54 0 -90 44 -90 109v124zM101 1l234 699h33l-234 -699h-33zM54 597v-126c0 -47 23 -79 58 -79c33 0 56 32 56 79v126c0 47 -23 79 -56 79c-35 0 -58 -32 -58 -79zM269 228
c0 65 35 109 89 109c53 0 88 -44 88 -109v-124c0 -65 -35 -109 -88 -109c-54 0 -89 44 -89 109v124zM300 229v-125c0 -48 23 -80 58 -80c34 0 57 32 57 80v125c0 47 -23 79 -57 79c-35 0 -58 -32 -58 -79z" />
    <glyph glyph-name="perthousand" unicode="&#x2030;" horiz-adv-x="690" 
d="M22 596c0 65 36 109 90 109c52 0 88 -44 88 -109v-124c0 -65 -36 -109 -88 -109c-54 0 -90 44 -90 109v124zM101 1l234 699h33l-234 -699h-33zM54 597v-126c0 -47 23 -79 58 -79c33 0 56 32 56 79v126c0 47 -23 79 -56 79c-35 0 -58 -32 -58 -79zM269 228
c0 65 35 109 89 109c53 0 88 -44 88 -109v-124c0 -65 -35 -109 -88 -109c-54 0 -89 44 -89 109v124zM491 228c0 65 35 109 89 109c52 0 88 -44 88 -109v-124c0 -65 -36 -109 -88 -109c-54 0 -89 44 -89 109v124zM300 229v-125c0 -48 23 -80 58 -80c34 0 57 32 57 80v125
c0 47 -23 79 -57 79c-35 0 -58 -32 -58 -79zM522 229v-125c0 -48 23 -80 58 -80c34 0 57 32 57 80v125c0 47 -23 79 -57 79c-35 0 -58 -32 -58 -79z" />
    <glyph glyph-name="ordfeminine" unicode="&#xaa;" horiz-adv-x="243" 
d="M201 621v-258h-29v33c-13 -23 -37 -37 -68 -37c-45 0 -76 30 -76 73v30c0 47 32 78 80 84l64 9v66c0 35 -21 56 -53 56c-33 0 -54 -21 -54 -56v-23h-29v23c0 50 33 84 83 84c49 0 82 -34 82 -84zM172 531l-58 -9c-35 -4 -57 -26 -57 -57v-32c0 -27 22 -46 55 -46
c37 0 60 22 60 56v88z" />
    <glyph glyph-name="ordmasculine" unicode="&#xba;" horiz-adv-x="236" 
d="M33 621c0 50 34 84 85 84s85 -34 85 -84v-178c0 -49 -34 -84 -85 -84s-85 35 -85 84v178zM62 621v-178c0 -33 22 -56 56 -56c33 0 55 23 55 56v178c0 35 -22 57 -55 57c-34 0 -56 -22 -56 -57z" />
    <glyph glyph-name="onesuperior" unicode="&#xb9;" horiz-adv-x="180" 
d="M92 450v311l-47 -37l-17 20l70 56h23v-350h-29z" />
    <glyph glyph-name="twosuperior" unicode="&#xb2;" horiz-adv-x="211" 
d="M141 663v77c0 23 -15 38 -38 38c-22 0 -37 -15 -37 -38v-37h-28v38c0 38 26 64 65 64c40 0 67 -26 67 -64v-78c0 -36 -29 -60 -57 -80c-22 -18 -43 -34 -43 -57v-48h103v-28h-132v76c0 36 27 58 57 80c22 18 43 34 43 57z" />
    <glyph glyph-name="threesuperior" unicode="&#xb3;" horiz-adv-x="188" 
d="M29 716v25c0 38 26 64 65 64s64 -26 64 -64v-49c0 -26 -11 -46 -32 -56c21 -10 34 -30 34 -57v-69c0 -39 -27 -65 -66 -65s-66 26 -66 65v25h29v-24c0 -24 14 -39 37 -39c22 0 37 15 37 39v72c0 24 -16 40 -40 40h-14v25h14c24 0 39 16 39 40v52c0 23 -14 38 -35 38
c-22 0 -38 -15 -38 -38v-24h-28z" />
    <glyph glyph-name="onehalf" unicode="&#xbd;" horiz-adv-x="433" 
d="M92 350v311l-47 -37l-17 20l70 56h23v-350h-29zM69 1l234 699h30l-234 -699h-30zM363 213v77c0 23 -15 38 -38 38c-22 0 -37 -15 -37 -38v-37h-28v38c0 38 26 64 65 64c40 0 67 -26 67 -64v-78c0 -36 -29 -60 -57 -80c-22 -18 -43 -34 -43 -57v-48h103v-28h-132v76
c0 36 27 58 57 80c22 18 43 34 43 57z" />
    <glyph glyph-name="onethird" unicode="&#x2153;" horiz-adv-x="410" 
d="M92 350v311l-47 -37l-17 20l70 56h23v-350h-29zM69 1l234 699h30l-234 -699h-30zM251 266v25c0 38 26 64 65 64s64 -26 64 -64v-49c0 -26 -11 -46 -32 -56c21 -10 34 -30 34 -57v-69c0 -39 -27 -65 -66 -65s-66 26 -66 65v25h29v-24c0 -24 14 -39 37 -39
c22 0 37 15 37 39v72c0 24 -16 40 -40 40h-14v25h14c24 0 39 16 39 40v52c0 23 -14 38 -35 38c-22 0 -38 -15 -38 -38v-24h-28z" />
    <glyph glyph-name="onequarter" unicode="&#xbc;" horiz-adv-x="424" 
d="M92 350v311l-47 -37l-17 20l70 56h23v-350h-29zM69 1l234 699h30l-234 -699h-30zM351 0v84h-110v26l110 240h28v-240h25v-26h-25v-84h-28zM267 110h84v185z" />
    <glyph glyph-name="uni2155" unicode="&#x2155;" horiz-adv-x="416" 
d="M92 350v311l-47 -37l-17 20l70 56h23v-350h-29zM69 1l234 699h30l-234 -699h-30zM287 163h-27v187h119v-28h-92v-112c10 11 24 18 42 18c35 0 58 -26 58 -65v-103c0 -39 -26 -65 -66 -65c-39 0 -66 26 -66 65v27h29v-26c0 -24 15 -39 37 -39s37 15 37 39v101
c0 25 -15 41 -36 41s-35 -16 -35 -40z" />
    <glyph glyph-name="uni2159" unicode="&#x2159;" horiz-adv-x="426" 
d="M92 350v311l-47 -37l-17 20l70 56h23v-350h-29zM69 1l234 699h30l-234 -699h-30zM363 267v23c0 23 -15 39 -37 39s-37 -16 -37 -39v-93c10 12 25 20 44 20c35 0 59 -26 59 -65v-92c0 -39 -26 -65 -66 -65c-39 0 -66 26 -66 65v231c0 38 27 64 66 64c40 0 66 -26 66 -65
v-23h-29zM289 151v-90c0 -24 15 -39 37 -39s37 15 37 39v90c0 23 -15 39 -37 39s-37 -16 -37 -39z" />
    <glyph glyph-name="uni2150" unicode="&#x2150;" horiz-adv-x="412" 
d="M92 350v311l-47 -37l-17 20l70 56h23v-350h-29zM69 1l234 699h30l-234 -699h-30zM278 0l71 324h-103v27l132 -1v-26l-71 -324h-29z" />
    <glyph glyph-name="oneeighth" unicode="&#x215b;" horiz-adv-x="430" 
d="M92 350v311l-47 -37l-17 20l70 56h23v-350h-29zM69 1l234 699h30l-234 -699h-30zM260 128c0 28 12 48 34 58c-20 10 -32 30 -32 56v47c0 38 26 64 64 64c39 0 64 -26 64 -64v-47c0 -26 -12 -46 -32 -56c22 -10 34 -30 34 -58v-66c0 -39 -26 -65 -66 -65
c-39 0 -66 26 -66 65v66zM291 288v-50c0 -24 14 -39 35 -39s35 15 35 39v50c0 23 -14 39 -35 39s-35 -16 -35 -39zM289 133v-70c0 -24 15 -40 37 -40s37 16 37 40v70c0 24 -15 39 -37 39s-37 -15 -37 -39z" />
    <glyph glyph-name="uni2151" unicode="&#x2151;" horiz-adv-x="426" 
d="M92 350v311l-47 -37l-17 20l70 56h23v-350h-29zM69 1l234 699h30l-234 -699h-30zM256 83h29v-22c0 -24 15 -39 37 -39s37 15 37 39v92c-10 -12 -25 -20 -44 -20c-35 0 -59 26 -59 65v92c0 39 26 65 66 65c39 0 66 -26 66 -65v-231c0 -38 -27 -64 -66 -64
c-40 0 -66 27 -66 65v23zM359 199v90c0 24 -15 39 -37 39s-37 -15 -37 -39v-90c0 -23 15 -39 37 -39s37 16 37 39z" />
    <glyph glyph-name="uni2152" unicode="&#x2152;" horiz-adv-x="582" 
d="M92 350v311l-47 -37l-17 20l70 56h23v-350h-29zM69 1l234 699h30l-234 -699h-30zM411 290c0 38 27 65 66 65c40 0 66 -27 66 -65v-229c0 -39 -26 -66 -66 -66c-39 0 -66 27 -66 66v229zM314 0v311l-47 -37l-17 20l70 56h23v-350h-29zM440 290v-229c0 -24 15 -38 37 -38
c23 0 37 14 37 38v229c0 23 -14 38 -37 38c-22 0 -37 -15 -37 -38z" />
    <glyph glyph-name="twothirds" unicode="&#x2154;" horiz-adv-x="441" 
d="M141 563v77c0 23 -15 38 -38 38c-22 0 -37 -15 -37 -38v-37h-28v38c0 38 26 64 65 64c40 0 67 -26 67 -64v-78c0 -36 -29 -60 -57 -80c-22 -18 -43 -34 -43 -57v-48h103v-28h-132v76c0 36 27 58 57 80c22 18 43 34 43 57zM100 1l234 699h30l-234 -699h-30zM282 266v25
c0 38 26 64 65 64s64 -26 64 -64v-49c0 -26 -11 -46 -32 -56c21 -10 34 -30 34 -57v-69c0 -39 -27 -65 -66 -65s-66 26 -66 65v25h29v-24c0 -24 14 -39 37 -39c22 0 37 15 37 39v72c0 24 -16 40 -40 40h-14v25h14c24 0 39 16 39 40v52c0 23 -14 38 -35 38
c-22 0 -38 -15 -38 -38v-24h-28z" />
    <glyph glyph-name="uni2156" unicode="&#x2156;" horiz-adv-x="447" 
d="M141 563v77c0 23 -15 38 -38 38c-22 0 -37 -15 -37 -38v-37h-28v38c0 38 26 64 65 64c40 0 67 -26 67 -64v-78c0 -36 -29 -60 -57 -80c-22 -18 -43 -34 -43 -57v-48h103v-28h-132v76c0 36 27 58 57 80c22 18 43 34 43 57zM100 1l234 699h30l-234 -699h-30zM318 163h-27
v187h119v-28h-92v-112c10 11 24 18 42 18c35 0 58 -26 58 -65v-103c0 -39 -26 -65 -66 -65c-39 0 -66 26 -66 65v27h29v-26c0 -24 15 -39 37 -39s37 15 37 39v101c0 25 -15 41 -36 41s-35 -16 -35 -40z" />
    <glyph glyph-name="threequarters" unicode="&#xbe;" horiz-adv-x="432" 
d="M29 616v25c0 38 26 64 65 64s64 -26 64 -64v-49c0 -26 -11 -46 -32 -56c21 -10 34 -30 34 -57v-69c0 -39 -27 -65 -66 -65s-66 26 -66 65v25h29v-24c0 -24 14 -39 37 -39c22 0 37 15 37 39v72c0 24 -16 40 -40 40h-14v25h14c24 0 39 16 39 40v52c0 23 -14 38 -35 38
c-22 0 -38 -15 -38 -38v-24h-28zM77 1l234 699h30l-234 -699h-30zM359 0v84h-110v26l110 240h28v-240h25v-26h-25v-84h-28zM275 110h84v185z" />
    <glyph glyph-name="uni2157" unicode="&#x2157;" horiz-adv-x="424" 
d="M29 616v25c0 38 26 64 65 64s64 -26 64 -64v-49c0 -26 -11 -46 -32 -56c21 -10 34 -30 34 -57v-69c0 -39 -27 -65 -66 -65s-66 26 -66 65v25h29v-24c0 -24 14 -39 37 -39c22 0 37 15 37 39v72c0 24 -16 40 -40 40h-14v25h14c24 0 39 16 39 40v52c0 23 -14 38 -35 38
c-22 0 -38 -15 -38 -38v-24h-28zM77 1l234 699h30l-234 -699h-30zM295 163h-27v187h119v-28h-92v-112c10 11 24 18 42 18c35 0 58 -26 58 -65v-103c0 -39 -26 -65 -66 -65c-39 0 -66 26 -66 65v27h29v-26c0 -24 15 -39 37 -39s37 15 37 39v101c0 25 -15 41 -36 41
s-35 -16 -35 -40z" />
    <glyph glyph-name="threeeighths" unicode="&#x215c;" horiz-adv-x="438" 
d="M29 616v25c0 38 26 64 65 64s64 -26 64 -64v-49c0 -26 -11 -46 -32 -56c21 -10 34 -30 34 -57v-69c0 -39 -27 -65 -66 -65s-66 26 -66 65v25h29v-24c0 -24 14 -39 37 -39c22 0 37 15 37 39v72c0 24 -16 40 -40 40h-14v25h14c24 0 39 16 39 40v52c0 23 -14 38 -35 38
c-22 0 -38 -15 -38 -38v-24h-28zM77 1l234 699h30l-234 -699h-30zM268 128c0 28 12 48 34 58c-20 10 -32 30 -32 56v47c0 38 26 64 64 64c39 0 64 -26 64 -64v-47c0 -26 -12 -46 -32 -56c22 -10 34 -30 34 -58v-66c0 -39 -26 -65 -66 -65c-39 0 -66 26 -66 65v66zM299 288
v-50c0 -24 14 -39 35 -39s35 15 35 39v50c0 23 -14 39 -35 39s-35 -16 -35 -39zM297 133v-70c0 -24 15 -40 37 -40s37 16 37 40v70c0 24 -15 39 -37 39s-37 -15 -37 -39z" />
    <glyph glyph-name="uni2158" unicode="&#x2158;" horiz-adv-x="438" 
d="M129 350v84h-110v26l110 240h28v-240h25v-26h-25v-84h-28zM91 1l234 699h30l-234 -699h-30zM45 460h84v185zM309 163h-27v187h119v-28h-92v-112c10 11 24 18 42 18c35 0 58 -26 58 -65v-103c0 -39 -26 -65 -66 -65c-39 0 -66 26 -66 65v27h29v-26c0 -24 15 -39 37 -39
s37 15 37 39v101c0 25 -15 41 -36 41s-35 -16 -35 -40z" />
    <glyph glyph-name="uni215A" unicode="&#x215a;" horiz-adv-x="440" 
d="M65 513h-27v187h119v-28h-92v-112c10 11 24 18 42 18c35 0 58 -26 58 -65v-103c0 -39 -26 -65 -66 -65c-39 0 -66 26 -66 65v27h29v-26c0 -24 15 -39 37 -39s37 15 37 39v101c0 25 -15 41 -36 41s-35 -16 -35 -40zM83 1l234 699h30l-234 -699h-30zM377 267v23
c0 23 -15 39 -37 39s-37 -16 -37 -39v-93c10 12 25 20 44 20c35 0 59 -26 59 -65v-92c0 -39 -26 -65 -66 -65c-39 0 -66 26 -66 65v231c0 38 27 64 66 64c40 0 66 -26 66 -65v-23h-29zM303 151v-90c0 -24 15 -39 37 -39s37 15 37 39v90c0 23 -15 39 -37 39s-37 -16 -37 -39z
" />
    <glyph glyph-name="fiveeighths" unicode="&#x215d;" horiz-adv-x="444" 
d="M65 513h-27v187h119v-28h-92v-112c10 11 24 18 42 18c35 0 58 -26 58 -65v-103c0 -39 -26 -65 -66 -65c-39 0 -66 26 -66 65v27h29v-26c0 -24 15 -39 37 -39s37 15 37 39v101c0 25 -15 41 -36 41s-35 -16 -35 -40zM83 1l234 699h30l-234 -699h-30zM274 128
c0 28 12 48 34 58c-20 10 -32 30 -32 56v47c0 38 26 64 64 64c39 0 64 -26 64 -64v-47c0 -26 -12 -46 -32 -56c22 -10 34 -30 34 -58v-66c0 -39 -26 -65 -66 -65c-39 0 -66 26 -66 65v66zM305 288v-50c0 -24 14 -39 35 -39s35 15 35 39v50c0 23 -14 39 -35 39
s-35 -16 -35 -39zM303 133v-70c0 -24 15 -40 37 -40s37 16 37 40v70c0 24 -15 39 -37 39s-37 -15 -37 -39z" />
    <glyph glyph-name="seveneighths" unicode="&#x215e;" horiz-adv-x="441" 
d="M56 350l71 324h-103v27l132 -1v-26l-71 -324h-29zM79 1l234 699h30l-234 -699h-30zM270 128c0 28 12 48 34 58c-20 10 -32 30 -32 56v47c0 38 26 64 64 64c39 0 64 -26 64 -64v-47c0 -26 -12 -46 -32 -56c22 -10 34 -30 34 -58v-66c0 -39 -26 -65 -66 -65
c-39 0 -66 26 -66 65v66zM301 288v-50c0 -24 14 -39 35 -39s35 15 35 39v50c0 23 -14 39 -35 39s-35 -16 -35 -39zM299 133v-70c0 -24 15 -40 37 -40s37 16 37 40v70c0 24 -15 39 -37 39s-37 -15 -37 -39z" />
    <glyph glyph-name="uni215F" unicode="&#x215f;" horiz-adv-x="222" 
d="M92 350v311l-47 -37l-17 20l70 56h23v-350h-29zM69 1l234 699h30l-234 -699h-30z" />
    <glyph glyph-name="uni2189" unicode="&#x2189;" horiz-adv-x="438" 
d="M38 640c0 38 27 65 66 65c40 0 66 -27 66 -65v-229c0 -39 -26 -66 -66 -66c-39 0 -66 27 -66 66v229zM97 1l234 699h30l-234 -699h-30zM67 640v-229c0 -24 15 -38 37 -38c23 0 37 14 37 38v229c0 23 -14 38 -37 38c-22 0 -37 -15 -37 -38zM279 266v25c0 38 26 64 65 64
s64 -26 64 -64v-49c0 -26 -11 -46 -32 -56c21 -10 34 -30 34 -57v-69c0 -39 -27 -65 -66 -65s-66 26 -66 65v25h29v-24c0 -24 14 -39 37 -39c22 0 37 15 37 39v72c0 24 -16 40 -40 40h-14v25h14c24 0 39 16 39 40v52c0 23 -14 38 -35 38c-22 0 -38 -15 -38 -38v-24h-28z" />
    <glyph glyph-name="radical" unicode="&#x221a;" horiz-adv-x="368" 
d="M9 223l94 68l117 -327l93 786h32l-101 -850h-32l-125 340l-60 -43z" />
    <glyph glyph-name="uni2113" unicode="&#x2113;" horiz-adv-x="287" 
d="M74 133v74c-34 -24 -59 -35 -59 -35v40s26 10 59 36v406c0 61 32 101 81 101c61 0 101 -64 101 -185c0 -172 -82 -279 -150 -338v-100c0 -63 28 -106 75 -106c40 0 72 33 72 33l14 -26s-39 -38 -91 -38c-64 0 -102 55 -102 138zM106 275c57 55 119 149 119 296
c0 101 -28 153 -70 153c-30 0 -49 -27 -49 -68v-381z" />
    <glyph glyph-name="lozenge" unicode="&#x25ca;" horiz-adv-x="374" 
d="M34 350l137 350h32l137 -350l-137 -350h-32zM306 350l-119 307l-119 -307l119 -307z" />
    <glyph glyph-name="pi" unicode="&#x3c0;" horiz-adv-x="386" 
d="M81 0v468h-54v32h332v-32h-60v-468h-34v468h-150v-468h-34z" />
    <glyph glyph-name="uni00B5" unicode="&#xb5;" horiz-adv-x="373" 
d="M66 500h34v-385c0 -53 34 -88 87 -88c52 0 87 35 87 88v385h34v-500h-34v47c-19 -33 -53 -52 -96 -52c-36 0 -66 14 -86 38l8 -263h-34v730z" />
    <glyph glyph-name="product" unicode="&#x220f;" horiz-adv-x="369" 
d="M66 -100v800h238v-800h-33v768h-172v-768h-33z" />
    <glyph glyph-name="summation" unicode="&#x2211;" horiz-adv-x="321" 
d="M34 671v29h254v-32h-217l167 -369l-167 -367h217v-32h-254v29l168 370z" />
    <glyph glyph-name="florin" unicode="&#x17f;" horiz-adv-x="239" 
d="M229 750h38l-4 -32h-37c-50 0 -88 -35 -94 -88l-16 -130h120l-4 -32h-120l-71 -578c-8 -72 -61 -120 -132 -120h-37l3 32h38c50 0 88 35 94 88l91 740c8 72 61 120 131 120z" />
    <glyph glyph-name="florin" unicode="&#x192;" horiz-adv-x="239" 
d="M229 750h38l-4 -32h-37c-50 0 -88 -35 -94 -88l-16 -130h120l-4 -32h-120l-71 -578c-8 -72 -61 -120 -132 -120h-37l3 32h38c50 0 88 35 94 88l91 740c8 72 61 120 131 120z" />
    <glyph glyph-name="uni03A9" unicode="&#x3a9;" horiz-adv-x="441" 
d="M220 705c83 0 138 -52 138 -129v-449c0 -38 -15 -73 -47 -95h92v-32h-144v30c41 17 65 37 65 85v458c0 60 -41 100 -104 100c-62 0 -104 -40 -104 -100v-458c0 -48 24 -68 65 -85v-30h-144v32h93c-32 22 -48 57 -48 95v449c0 77 56 129 138 129z" />
    <glyph glyph-name="estimated" unicode="&#x212e;" horiz-adv-x="852" 
d="M783 350h-554v-248c54 -43 123 -69 197 -69c119 0 225 66 281 170h44c-57 -128 -185 -210 -325 -210c-196 0 -357 159 -357 357c0 197 159 357 357 357c197 0 357 -159 357 -357zM229 390h394v208c-54 43 -123 69 -197 69s-143 -26 -197 -69v-208z" />
    <glyph glyph-name="arrowleft" unicode="&#x2190;" horiz-adv-x="708" 
d="M203 168l-136 182l136 182h41l-124 -166h522v-32h-522l124 -166h-41z" />
    <glyph glyph-name="arrowright" unicode="&#x2192;" horiz-adv-x="708" 
d="M505 168h-41l125 166h-522v32h522l-125 166h41l137 -182z" />
    <glyph glyph-name="arrowup" unicode="&#x2191;" horiz-adv-x="708" 
d="M172 501l182 137l182 -137v-41l-166 125v-523h-32v523l-166 -125v41z" />
    <glyph glyph-name="arrowdown" unicode="&#x2193;" horiz-adv-x="708" 
d="M172 199v41l166 -125v523h32v-523l166 125v-41l-182 -137z" />
    <glyph glyph-name="uni2196" unicode="&#x2196;" horiz-adv-x="708" 
d="M119 328l31 226l226 31l29 -28l-205 -30l369 -369l-23 -23l-369 370l-29 -206z" />
    <glyph glyph-name="uni2197" unicode="&#x2197;" horiz-adv-x="708" 
d="M569 328l-29 -29l-29 206l-369 -370l-23 23l369 369l-205 30l29 28l226 -31z" />
    <glyph glyph-name="uni2198" unicode="&#x2198;" horiz-adv-x="708" 
d="M569 392l-31 -225l-226 -32l-29 29l205 29l-369 369l23 23l369 -369l29 206z" />
    <glyph glyph-name="uni2199" unicode="&#x2199;" horiz-adv-x="708" 
d="M119 392l29 30l29 -206l369 369l23 -23l-369 -369l205 -29l-29 -29l-226 32z" />
    <glyph glyph-name="uni23F6" unicode="&#x23f6;" horiz-adv-x="183" 
d="M91 416l72 -131h-143z" />
    <glyph glyph-name="uni23F4" unicode="&#x23f4;" horiz-adv-x="183" 
d="M27 351l130 71v-143z" />
    <glyph glyph-name="uni23F5" unicode="&#x23f5;" horiz-adv-x="183" 
d="M157 351l-130 -72v143z" />
    <glyph glyph-name="uni23F7" unicode="&#x23f7;" horiz-adv-x="183" 
d="M91 285l-71 131h143z" />
    <glyph glyph-name="filledbox" unicode="&#x25a0;" horiz-adv-x="808" 
d="M54 0v700h700v-700h-700z" />
    <glyph glyph-name="uni25A1" unicode="&#x25a1;" horiz-adv-x="808" 
d="M54 0v700h700v-700h-700zM86 32h636v636h-636v-636z" />
    <glyph glyph-name="circle" unicode="&#x25cb;" horiz-adv-x="758" 
d="M24 350c0 196 159 355 355 355s355 -159 355 -355s-159 -355 -355 -355s-355 159 -355 355zM56 350c0 -178 145 -323 323 -323s323 145 323 323s-145 323 -323 323s-323 -145 -323 -323z" />
    <glyph glyph-name="uni25CF" unicode="&#x25cf;" horiz-adv-x="758" 
d="M24 350c0 196 159 355 355 355s355 -159 355 -355s-159 -355 -355 -355s-355 159 -355 355z" />
    <glyph glyph-name="triagup" unicode="&#x25b2;" horiz-adv-x="770" 
d="M35 0l350 705l350 -705h-700z" />
    <glyph glyph-name="uni25B3" unicode="&#x25b3;" horiz-adv-x="770" 
d="M385 705l350 -705h-700zM385 637l-301 -607h602z" />
    <glyph glyph-name="uni2605" unicode="&#x2605;" horiz-adv-x="797" 
d="M632 -10l-234 163l-233 -163l82 273l-227 172l285 6l93 269l94 -269l285 -6l-227 -172z" />
    </font>
</defs>
</svg>
